%TF.GenerationSoftware,KiCad,Pcbnew,6.0.5*%
%TF.CreationDate,2022-07-08T15:37:51+02:00*%
%TF.ProjectId,pool_heater,706f6f6c-5f68-4656-9174-65722e6b6963,rev?*%
%TF.SameCoordinates,Original*%
%TF.FileFunction,Legend,Bot*%
%TF.FilePolarity,Positive*%
%FSLAX46Y46*%
G04 Gerber Fmt 4.6, Leading zero omitted, Abs format (unit mm)*
G04 Created by KiCad (PCBNEW 6.0.5) date 2022-07-08 15:37:51*
%MOMM*%
%LPD*%
G01*
G04 APERTURE LIST*
%ADD10C,0.150000*%
%ADD11C,0.120000*%
G04 APERTURE END LIST*
D10*
%TO.C,R1*%
X44566666Y-38632380D02*
X44900000Y-38156190D01*
X45138095Y-38632380D02*
X45138095Y-37632380D01*
X44757142Y-37632380D01*
X44661904Y-37680000D01*
X44614285Y-37727619D01*
X44566666Y-37822857D01*
X44566666Y-37965714D01*
X44614285Y-38060952D01*
X44661904Y-38108571D01*
X44757142Y-38156190D01*
X45138095Y-38156190D01*
X43614285Y-38632380D02*
X44185714Y-38632380D01*
X43900000Y-38632380D02*
X43900000Y-37632380D01*
X43995238Y-37775238D01*
X44090476Y-37870476D01*
X44185714Y-37918095D01*
%TO.C,R4*%
X39616666Y-53632380D02*
X39950000Y-53156190D01*
X40188095Y-53632380D02*
X40188095Y-52632380D01*
X39807142Y-52632380D01*
X39711904Y-52680000D01*
X39664285Y-52727619D01*
X39616666Y-52822857D01*
X39616666Y-52965714D01*
X39664285Y-53060952D01*
X39711904Y-53108571D01*
X39807142Y-53156190D01*
X40188095Y-53156190D01*
X38759523Y-52965714D02*
X38759523Y-53632380D01*
X38997619Y-52584761D02*
X39235714Y-53299047D01*
X38616666Y-53299047D01*
%TO.C,R6*%
X39616666Y-58632380D02*
X39950000Y-58156190D01*
X40188095Y-58632380D02*
X40188095Y-57632380D01*
X39807142Y-57632380D01*
X39711904Y-57680000D01*
X39664285Y-57727619D01*
X39616666Y-57822857D01*
X39616666Y-57965714D01*
X39664285Y-58060952D01*
X39711904Y-58108571D01*
X39807142Y-58156190D01*
X40188095Y-58156190D01*
X38759523Y-57632380D02*
X38950000Y-57632380D01*
X39045238Y-57680000D01*
X39092857Y-57727619D01*
X39188095Y-57870476D01*
X39235714Y-58060952D01*
X39235714Y-58441904D01*
X39188095Y-58537142D01*
X39140476Y-58584761D01*
X39045238Y-58632380D01*
X38854761Y-58632380D01*
X38759523Y-58584761D01*
X38711904Y-58537142D01*
X38664285Y-58441904D01*
X38664285Y-58203809D01*
X38711904Y-58108571D01*
X38759523Y-58060952D01*
X38854761Y-58013333D01*
X39045238Y-58013333D01*
X39140476Y-58060952D01*
X39188095Y-58108571D01*
X39235714Y-58203809D01*
D11*
%TO.C,R1*%
X40177064Y-43410000D02*
X38722936Y-43410000D01*
X40177064Y-41590000D02*
X38722936Y-41590000D01*
%TO.C,R4*%
X40177064Y-54090000D02*
X38722936Y-54090000D01*
X40177064Y-55910000D02*
X38722936Y-55910000D01*
%TO.C,R6*%
X40177064Y-59090000D02*
X38722936Y-59090000D01*
X40177064Y-60910000D02*
X38722936Y-60910000D01*
%TD*%
M02*
