%TF.GenerationSoftware,KiCad,Pcbnew,6.0.5*%
%TF.CreationDate,2022-07-08T15:37:50+02:00*%
%TF.ProjectId,pool_heater,706f6f6c-5f68-4656-9174-65722e6b6963,rev?*%
%TF.SameCoordinates,Original*%
%TF.FileFunction,Copper,L2,Bot*%
%TF.FilePolarity,Positive*%
%FSLAX46Y46*%
G04 Gerber Fmt 4.6, Leading zero omitted, Abs format (unit mm)*
G04 Created by KiCad (PCBNEW 6.0.5) date 2022-07-08 15:37:50*
%MOMM*%
%LPD*%
G01*
G04 APERTURE LIST*
G04 Aperture macros list*
%AMRoundRect*
0 Rectangle with rounded corners*
0 $1 Rounding radius*
0 $2 $3 $4 $5 $6 $7 $8 $9 X,Y pos of 4 corners*
0 Add a 4 corners polygon primitive as box body*
4,1,4,$2,$3,$4,$5,$6,$7,$8,$9,$2,$3,0*
0 Add four circle primitives for the rounded corners*
1,1,$1+$1,$2,$3*
1,1,$1+$1,$4,$5*
1,1,$1+$1,$6,$7*
1,1,$1+$1,$8,$9*
0 Add four rect primitives between the rounded corners*
20,1,$1+$1,$2,$3,$4,$5,0*
20,1,$1+$1,$4,$5,$6,$7,0*
20,1,$1+$1,$6,$7,$8,$9,0*
20,1,$1+$1,$8,$9,$2,$3,0*%
G04 Aperture macros list end*
%TA.AperFunction,ComponentPad*%
%ADD10R,3.000000X3.000000*%
%TD*%
%TA.AperFunction,ComponentPad*%
%ADD11C,3.000000*%
%TD*%
%TA.AperFunction,ComponentPad*%
%ADD12R,2.400000X1.600000*%
%TD*%
%TA.AperFunction,ComponentPad*%
%ADD13O,2.400000X1.600000*%
%TD*%
%TA.AperFunction,ComponentPad*%
%ADD14O,3.000000X2.000000*%
%TD*%
%TA.AperFunction,ComponentPad*%
%ADD15R,2.000000X3.000000*%
%TD*%
%TA.AperFunction,ComponentPad*%
%ADD16O,2.000000X3.000000*%
%TD*%
%TA.AperFunction,ComponentPad*%
%ADD17RoundRect,0.250000X-0.725000X0.600000X-0.725000X-0.600000X0.725000X-0.600000X0.725000X0.600000X0*%
%TD*%
%TA.AperFunction,ComponentPad*%
%ADD18O,1.950000X1.700000*%
%TD*%
%TA.AperFunction,ComponentPad*%
%ADD19R,1.600000X1.600000*%
%TD*%
%TA.AperFunction,ComponentPad*%
%ADD20C,1.600000*%
%TD*%
%TA.AperFunction,ComponentPad*%
%ADD21R,1.700000X1.700000*%
%TD*%
%TA.AperFunction,ComponentPad*%
%ADD22O,1.700000X1.700000*%
%TD*%
%TA.AperFunction,ComponentPad*%
%ADD23O,1.600000X1.600000*%
%TD*%
%TA.AperFunction,ComponentPad*%
%ADD24R,2.000000X2.300000*%
%TD*%
%TA.AperFunction,ComponentPad*%
%ADD25C,2.300000*%
%TD*%
%TA.AperFunction,SMDPad,CuDef*%
%ADD26RoundRect,0.250000X0.400000X0.625000X-0.400000X0.625000X-0.400000X-0.625000X0.400000X-0.625000X0*%
%TD*%
%TA.AperFunction,ViaPad*%
%ADD27C,0.800000*%
%TD*%
%TA.AperFunction,Conductor*%
%ADD28C,1.000000*%
%TD*%
%TA.AperFunction,Conductor*%
%ADD29C,3.000000*%
%TD*%
G04 APERTURE END LIST*
D10*
%TO.P,J1,1,Pin_1*%
%TO.N,Net-(J1-Pad1)*%
X31000000Y-105000000D03*
D11*
%TO.P,J1,2,Pin_2*%
%TO.N,Net-(J1-Pad2)*%
X36080000Y-105000000D03*
%TD*%
D12*
%TO.P,U1,1,I1*%
%TO.N,GND*%
X53620000Y-62500000D03*
D13*
%TO.P,U1,2,I2*%
X53620000Y-59960000D03*
%TO.P,U1,3,I3*%
%TO.N,Net-(A1-Pad11)*%
X53620000Y-57420000D03*
%TO.P,U1,4,I4*%
%TO.N,Net-(A1-Pad10)*%
X53620000Y-54880000D03*
%TO.P,U1,5,I5*%
%TO.N,Net-(A1-Pad9)*%
X53620000Y-52340000D03*
%TO.P,U1,6,I6*%
%TO.N,Net-(A1-Pad8)*%
X53620000Y-49800000D03*
%TO.P,U1,7,I7*%
%TO.N,Net-(A1-Pad7)*%
X53620000Y-47260000D03*
%TO.P,U1,8,GND*%
%TO.N,GND*%
X53620000Y-44720000D03*
%TO.P,U1,9,COM*%
%TO.N,+5V*%
X46000000Y-44720000D03*
%TO.P,U1,10,O7*%
%TO.N,/SONOFF_OUT*%
X46000000Y-47260000D03*
%TO.P,U1,11,O6*%
%TO.N,/POOL_PUMP_OUT*%
X46000000Y-49800000D03*
%TO.P,U1,12,O5*%
%TO.N,/HEATING_ON_OUT*%
X46000000Y-52340000D03*
%TO.P,U1,13,O4*%
%TO.N,/HEATING_ERROR_OUT*%
X46000000Y-54880000D03*
%TO.P,U1,14,O3*%
%TO.N,/HEATING_VALVE_OUT*%
X46000000Y-57420000D03*
%TO.P,U1,15,O2*%
%TO.N,unconnected-(U1-Pad15)*%
X46000000Y-59960000D03*
%TO.P,U1,16,O1*%
%TO.N,unconnected-(U1-Pad16)*%
X46000000Y-62500000D03*
%TD*%
D11*
%TO.P,K2,11*%
%TO.N,/AC_L*%
X56000000Y-91500000D03*
%TO.P,K2,12*%
%TO.N,unconnected-(K2-Pad12)*%
X48500000Y-88000000D03*
%TO.P,K2,14*%
%TO.N,/HEATING_VALVE_AC_L*%
X48500000Y-95000000D03*
D10*
%TO.P,K2,A1*%
%TO.N,+5V*%
X56000000Y-71500000D03*
D11*
%TO.P,K2,A2*%
%TO.N,/HEATING_VALVE_OUT*%
X48500000Y-71500000D03*
%TD*%
D14*
%TO.P,K1,11*%
%TO.N,Net-(A1-Pad5)*%
X31000000Y-74700000D03*
X38500000Y-74700000D03*
%TO.P,K1,12*%
%TO.N,unconnected-(K1-Pad12)*%
X38500000Y-79740000D03*
X31000000Y-79740000D03*
%TO.P,K1,14*%
%TO.N,GND*%
X31000000Y-69660000D03*
X38500000Y-69660000D03*
D15*
%TO.P,K1,A1*%
%TO.N,Net-(J1-Pad2)*%
X38500000Y-95000000D03*
D16*
%TO.P,K1,A2*%
%TO.N,Net-(J1-Pad1)*%
X31000000Y-95000000D03*
%TD*%
D17*
%TO.P,J7,1,Pin_1*%
%TO.N,Net-(J7-Pad1)*%
X33500000Y-52500000D03*
D18*
%TO.P,J7,2,Pin_2*%
%TO.N,Net-(J7-Pad2)*%
X33500000Y-55000000D03*
%TO.P,J7,3,Pin_3*%
%TO.N,Net-(J7-Pad3)*%
X33500000Y-57500000D03*
%TO.P,J7,4,Pin_4*%
%TO.N,Net-(J7-Pad4)*%
X33500000Y-60000000D03*
%TD*%
D17*
%TO.P,J6,1,Pin_1*%
%TO.N,+5V*%
X33500000Y-40000000D03*
D18*
%TO.P,J6,2,Pin_2*%
%TO.N,Net-(J6-Pad2)*%
X33500000Y-42500000D03*
%TO.P,J6,3,Pin_3*%
%TO.N,Net-(J6-Pad3)*%
X33500000Y-45000000D03*
%TD*%
D10*
%TO.P,J2,1,Pin_1*%
%TO.N,/HEATING_PUMP_AC_L*%
X43500000Y-105000000D03*
D11*
%TO.P,J2,2,Pin_2*%
X48580000Y-105000000D03*
%TO.P,J2,3,Pin_3*%
%TO.N,/HEATING_VALVE_AC_L*%
X53660000Y-105000000D03*
%TO.P,J2,4,Pin_4*%
%TO.N,/AC_L*%
X58740000Y-105000000D03*
%TD*%
D17*
%TO.P,J5,1,Pin_1*%
%TO.N,+5V*%
X33500000Y-27500000D03*
D18*
%TO.P,J5,2,Pin_2*%
%TO.N,GND*%
X33500000Y-30000000D03*
%TO.P,J5,3,Pin_3*%
%TO.N,/SONOFF_IN*%
X33500000Y-32500000D03*
%TD*%
D19*
%TO.P,C1,1*%
%TO.N,+3V3*%
X85652651Y-58000000D03*
D20*
%TO.P,C1,2*%
%TO.N,GND*%
X82152651Y-58000000D03*
%TD*%
D10*
%TO.P,J4,1,Pin_1*%
%TO.N,/AC_PE*%
X83500000Y-105000000D03*
D11*
%TO.P,J4,2,Pin_2*%
X88580000Y-105000000D03*
%TO.P,J4,3,Pin_3*%
X93660000Y-105000000D03*
%TO.P,J4,4,Pin_4*%
X98740000Y-105000000D03*
%TD*%
D21*
%TO.P,U2,1,GND*%
%TO.N,GND*%
X93000000Y-61540000D03*
D22*
%TO.P,U2,2,VCC*%
%TO.N,+3V3*%
X93000000Y-59000000D03*
%TO.P,U2,3,CE*%
%TO.N,Net-(A1-Pad12)*%
X95540000Y-61540000D03*
%TO.P,U2,4,~{CSN}*%
%TO.N,Net-(A1-Pad13)*%
X95540000Y-59000000D03*
%TO.P,U2,5,SCK*%
%TO.N,Net-(A1-Pad16)*%
X98080000Y-61540000D03*
%TO.P,U2,6,MOSI*%
%TO.N,Net-(A1-Pad14)*%
X98080000Y-59000000D03*
%TO.P,U2,7,MISO*%
%TO.N,Net-(A1-Pad15)*%
X100620000Y-61540000D03*
%TO.P,U2,8,IRQ*%
%TO.N,unconnected-(U2-Pad8)*%
X100620000Y-59000000D03*
%TD*%
D19*
%TO.P,A1,1,D1/TX*%
%TO.N,unconnected-(A1-Pad1)*%
X60890000Y-26940000D03*
D23*
%TO.P,A1,2,D0/RX*%
%TO.N,unconnected-(A1-Pad2)*%
X60890000Y-29480000D03*
%TO.P,A1,3,~{RESET}*%
%TO.N,unconnected-(A1-Pad3)*%
X60890000Y-32020000D03*
%TO.P,A1,4,GND*%
%TO.N,GND*%
X60890000Y-34560000D03*
%TO.P,A1,5,D2*%
%TO.N,Net-(A1-Pad5)*%
X60890000Y-37100000D03*
%TO.P,A1,6,D3*%
%TO.N,/SONOFF_IN*%
X60890000Y-39640000D03*
%TO.P,A1,7,D4*%
%TO.N,Net-(A1-Pad7)*%
X60890000Y-42180000D03*
%TO.P,A1,8,D5*%
%TO.N,Net-(A1-Pad8)*%
X60890000Y-44720000D03*
%TO.P,A1,9,D6*%
%TO.N,Net-(A1-Pad9)*%
X60890000Y-47260000D03*
%TO.P,A1,10,D7*%
%TO.N,Net-(A1-Pad10)*%
X60890000Y-49800000D03*
%TO.P,A1,11,D8*%
%TO.N,Net-(A1-Pad11)*%
X60890000Y-52340000D03*
%TO.P,A1,12,D9*%
%TO.N,Net-(A1-Pad12)*%
X60890000Y-54880000D03*
%TO.P,A1,13,D10*%
%TO.N,Net-(A1-Pad13)*%
X60890000Y-57420000D03*
%TO.P,A1,14,D11*%
%TO.N,Net-(A1-Pad14)*%
X60890000Y-59960000D03*
%TO.P,A1,15,D12*%
%TO.N,Net-(A1-Pad15)*%
X60890000Y-62500000D03*
%TO.P,A1,16,D13*%
%TO.N,Net-(A1-Pad16)*%
X76130000Y-62500000D03*
%TO.P,A1,17,3V3*%
%TO.N,+3V3*%
X76130000Y-59960000D03*
%TO.P,A1,18,AREF*%
%TO.N,unconnected-(A1-Pad18)*%
X76130000Y-57420000D03*
%TO.P,A1,19,A0*%
%TO.N,unconnected-(A1-Pad19)*%
X76130000Y-54880000D03*
%TO.P,A1,20,A1*%
%TO.N,unconnected-(A1-Pad20)*%
X76130000Y-52340000D03*
%TO.P,A1,21,A2*%
%TO.N,unconnected-(A1-Pad21)*%
X76130000Y-49800000D03*
%TO.P,A1,22,A3*%
%TO.N,unconnected-(A1-Pad22)*%
X76130000Y-47260000D03*
%TO.P,A1,23,A4*%
%TO.N,unconnected-(A1-Pad23)*%
X76130000Y-44720000D03*
%TO.P,A1,24,A5*%
%TO.N,unconnected-(A1-Pad24)*%
X76130000Y-42180000D03*
%TO.P,A1,25,A6*%
%TO.N,unconnected-(A1-Pad25)*%
X76130000Y-39640000D03*
%TO.P,A1,26,A7*%
%TO.N,unconnected-(A1-Pad26)*%
X76130000Y-37100000D03*
%TO.P,A1,27,+5V*%
%TO.N,+5V*%
X76130000Y-34560000D03*
%TO.P,A1,28,~{RESET}*%
%TO.N,unconnected-(A1-Pad28)*%
X76130000Y-32020000D03*
%TO.P,A1,29,GND*%
%TO.N,GND*%
X76130000Y-29480000D03*
%TO.P,A1,30,VIN*%
%TO.N,unconnected-(A1-Pad30)*%
X76130000Y-26940000D03*
%TD*%
D24*
%TO.P,PS1,1,AC/L*%
%TO.N,/AC_L*%
X66000000Y-95000000D03*
D25*
%TO.P,PS1,3,AC/N*%
%TO.N,/AC_N*%
X71080000Y-95000000D03*
%TO.P,PS1,5,NC*%
%TO.N,unconnected-(PS1-Pad5)*%
X96480000Y-95000000D03*
%TO.P,PS1,14,-Vo*%
%TO.N,GND*%
X96480000Y-77220000D03*
%TO.P,PS1,16,+Vo*%
%TO.N,+5V*%
X91400000Y-77220000D03*
%TD*%
D10*
%TO.P,J3,1,Pin_1*%
%TO.N,/AC_N*%
X66000000Y-105000000D03*
D11*
%TO.P,J3,2,Pin_2*%
X71080000Y-105000000D03*
%TO.P,J3,3,Pin_3*%
X76160000Y-105000000D03*
%TD*%
D19*
%TO.P,C2,1*%
%TO.N,+5V*%
X82000000Y-45000000D03*
D20*
%TO.P,C2,2*%
%TO.N,GND*%
X85500000Y-45000000D03*
%TD*%
D26*
%TO.P,R1,1*%
%TO.N,GND*%
X41000000Y-42500000D03*
%TO.P,R1,2*%
%TO.N,Net-(J6-Pad2)*%
X37900000Y-42500000D03*
%TD*%
%TO.P,R4,1*%
%TO.N,/HEATING_ON_OUT*%
X41000000Y-55000000D03*
%TO.P,R4,2*%
%TO.N,Net-(J7-Pad2)*%
X37900000Y-55000000D03*
%TD*%
%TO.P,R6,1*%
%TO.N,/HEATING_VALVE_OUT*%
X41000000Y-60000000D03*
%TO.P,R6,2*%
%TO.N,Net-(J7-Pad4)*%
X37900000Y-60000000D03*
%TD*%
D27*
%TO.N,Net-(A1-Pad5)*%
X45000000Y-66000000D03*
X57500000Y-66000000D03*
%TO.N,Net-(A1-Pad13)*%
X66000000Y-73000000D03*
%TO.N,Net-(A1-Pad14)*%
X64000000Y-69000000D03*
%TO.N,Net-(A1-Pad16)*%
X74000000Y-67000000D03*
%TD*%
D28*
%TO.N,+3V3*%
X76130000Y-59960000D02*
X83692651Y-59960000D01*
X83692651Y-59960000D02*
X85652651Y-58000000D01*
%TO.N,Net-(A1-Pad5)*%
X57500000Y-37500000D02*
X57900000Y-37100000D01*
X45000000Y-68200000D02*
X38500000Y-74700000D01*
X57500000Y-66000000D02*
X57500000Y-37500000D01*
X38500000Y-74700000D02*
X31000000Y-74700000D01*
X45000000Y-66000000D02*
X45000000Y-68200000D01*
X57900000Y-37100000D02*
X60890000Y-37100000D01*
%TO.N,Net-(A1-Pad13)*%
X63420000Y-57420000D02*
X60890000Y-57420000D01*
X66000000Y-73000000D02*
X66000000Y-60000000D01*
X66000000Y-60000000D02*
X63420000Y-57420000D01*
%TO.N,Net-(A1-Pad14)*%
X62960000Y-59960000D02*
X60890000Y-59960000D01*
X64000000Y-69000000D02*
X64000000Y-61000000D01*
X64000000Y-61000000D02*
X62960000Y-59960000D01*
%TO.N,Net-(A1-Pad16)*%
X74000000Y-63000000D02*
X74000000Y-67000000D01*
X76130000Y-62500000D02*
X74500000Y-62500000D01*
X74500000Y-62500000D02*
X74000000Y-63000000D01*
D29*
%TO.N,Net-(J1-Pad1)*%
X31000000Y-105000000D02*
X31000000Y-95000000D01*
%TO.N,Net-(J1-Pad2)*%
X36080000Y-97420000D02*
X38500000Y-95000000D01*
X36080000Y-105000000D02*
X36080000Y-97420000D01*
%TO.N,/HEATING_PUMP_AC_L*%
X48580000Y-105000000D02*
X43500000Y-105000000D01*
%TO.N,/HEATING_VALVE_AC_L*%
X53660000Y-100160000D02*
X48500000Y-95000000D01*
X53660000Y-105000000D02*
X53660000Y-100160000D01*
%TO.N,/AC_L*%
X58740000Y-105000000D02*
X58740000Y-94240000D01*
X59500000Y-95000000D02*
X58740000Y-94240000D01*
X58740000Y-94240000D02*
X56000000Y-91500000D01*
X66000000Y-95000000D02*
X59500000Y-95000000D01*
%TO.N,/AC_N*%
X66000000Y-105000000D02*
X71080000Y-105000000D01*
X71080000Y-105000000D02*
X71080000Y-95000000D01*
X71080000Y-105000000D02*
X76160000Y-105000000D01*
D28*
%TO.N,/HEATING_VALVE_OUT*%
X48500000Y-58500000D02*
X47420000Y-57420000D01*
X43580000Y-57420000D02*
X46000000Y-57420000D01*
X41000000Y-60000000D02*
X43580000Y-57420000D01*
X47420000Y-57420000D02*
X46000000Y-57420000D01*
X48500000Y-71500000D02*
X48500000Y-58500000D01*
%TO.N,/HEATING_ON_OUT*%
X43660000Y-52340000D02*
X46000000Y-52340000D01*
X41000000Y-55000000D02*
X43660000Y-52340000D01*
%TO.N,Net-(J6-Pad2)*%
X37900000Y-42500000D02*
X33500000Y-42500000D01*
%TO.N,Net-(J7-Pad2)*%
X37900000Y-55000000D02*
X33500000Y-55000000D01*
%TO.N,Net-(J7-Pad4)*%
X37900000Y-60000000D02*
X33500000Y-60000000D01*
%TD*%
%TA.AperFunction,Conductor*%
%TO.N,GND*%
G36*
X88942121Y-21020002D02*
G01*
X88988614Y-21073658D01*
X89000000Y-21126000D01*
X89000000Y-34000000D01*
X108874000Y-34000000D01*
X108942121Y-34020002D01*
X108988614Y-34073658D01*
X109000000Y-34126000D01*
X109000000Y-80874000D01*
X108979998Y-80942121D01*
X108926342Y-80988614D01*
X108874000Y-81000000D01*
X40183391Y-81000000D01*
X40115270Y-80979998D01*
X40068777Y-80926342D01*
X40058673Y-80856068D01*
X40089894Y-80792320D01*
X40088655Y-80791302D01*
X40239526Y-80607628D01*
X40239528Y-80607625D01*
X40242734Y-80603722D01*
X40364841Y-80393922D01*
X40451833Y-80167298D01*
X40501474Y-79929680D01*
X40512486Y-79687183D01*
X40497235Y-79555373D01*
X40485167Y-79451071D01*
X40485166Y-79451067D01*
X40484585Y-79446044D01*
X40445517Y-79307978D01*
X40419866Y-79217331D01*
X40418490Y-79212468D01*
X40416356Y-79207892D01*
X40416354Y-79207886D01*
X40318038Y-78997046D01*
X40318036Y-78997042D01*
X40315901Y-78992464D01*
X40179456Y-78791693D01*
X40012668Y-78615319D01*
X39951739Y-78568735D01*
X39823846Y-78470953D01*
X39823842Y-78470950D01*
X39819826Y-78467880D01*
X39605891Y-78353169D01*
X39376369Y-78274138D01*
X39277022Y-78256978D01*
X39141074Y-78233496D01*
X39141068Y-78233495D01*
X39137164Y-78232821D01*
X39133203Y-78232641D01*
X39133202Y-78232641D01*
X39109494Y-78231564D01*
X39109475Y-78231564D01*
X39108075Y-78231500D01*
X37938999Y-78231500D01*
X37936491Y-78231702D01*
X37936486Y-78231702D01*
X37763076Y-78245654D01*
X37763071Y-78245655D01*
X37758035Y-78246060D01*
X37753127Y-78247266D01*
X37753124Y-78247266D01*
X37637007Y-78275787D01*
X37522294Y-78303963D01*
X37517642Y-78305938D01*
X37517638Y-78305939D01*
X37410252Y-78351522D01*
X37298844Y-78398812D01*
X37294560Y-78401510D01*
X37097712Y-78525472D01*
X37097709Y-78525474D01*
X37093433Y-78528167D01*
X37089639Y-78531512D01*
X36915142Y-78685350D01*
X36915139Y-78685353D01*
X36911345Y-78688698D01*
X36908135Y-78692606D01*
X36908134Y-78692607D01*
X36768053Y-78863146D01*
X36757266Y-78876278D01*
X36635159Y-79086078D01*
X36548167Y-79312702D01*
X36498526Y-79550320D01*
X36487514Y-79792817D01*
X36488095Y-79797837D01*
X36488095Y-79797841D01*
X36503923Y-79934631D01*
X36515415Y-80033956D01*
X36516791Y-80038820D01*
X36516792Y-80038823D01*
X36562476Y-80200266D01*
X36581510Y-80267532D01*
X36583644Y-80272108D01*
X36583646Y-80272114D01*
X36640446Y-80393922D01*
X36684099Y-80487536D01*
X36820544Y-80688307D01*
X36824023Y-80691986D01*
X36824027Y-80691991D01*
X36914276Y-80787427D01*
X36946548Y-80850665D01*
X36939508Y-80921312D01*
X36895391Y-80976937D01*
X36822728Y-81000000D01*
X32683391Y-81000000D01*
X32615270Y-80979998D01*
X32568777Y-80926342D01*
X32558673Y-80856068D01*
X32589894Y-80792320D01*
X32588655Y-80791302D01*
X32739526Y-80607628D01*
X32739528Y-80607625D01*
X32742734Y-80603722D01*
X32864841Y-80393922D01*
X32951833Y-80167298D01*
X33001474Y-79929680D01*
X33012486Y-79687183D01*
X32997235Y-79555373D01*
X32985167Y-79451071D01*
X32985166Y-79451067D01*
X32984585Y-79446044D01*
X32945517Y-79307978D01*
X32919866Y-79217331D01*
X32918490Y-79212468D01*
X32916356Y-79207892D01*
X32916354Y-79207886D01*
X32818038Y-78997046D01*
X32818036Y-78997042D01*
X32815901Y-78992464D01*
X32679456Y-78791693D01*
X32512668Y-78615319D01*
X32451739Y-78568735D01*
X32323846Y-78470953D01*
X32323842Y-78470950D01*
X32319826Y-78467880D01*
X32105891Y-78353169D01*
X31876369Y-78274138D01*
X31777022Y-78256978D01*
X31641074Y-78233496D01*
X31641068Y-78233495D01*
X31637164Y-78232821D01*
X31633203Y-78232641D01*
X31633202Y-78232641D01*
X31609494Y-78231564D01*
X31609475Y-78231564D01*
X31608075Y-78231500D01*
X30438999Y-78231500D01*
X30436491Y-78231702D01*
X30436486Y-78231702D01*
X30263076Y-78245654D01*
X30263071Y-78245655D01*
X30258035Y-78246060D01*
X30253127Y-78247266D01*
X30253124Y-78247266D01*
X30137007Y-78275787D01*
X30022294Y-78303963D01*
X30017642Y-78305938D01*
X30017638Y-78305939D01*
X29910252Y-78351522D01*
X29798844Y-78398812D01*
X29794560Y-78401510D01*
X29597712Y-78525472D01*
X29597709Y-78525474D01*
X29593433Y-78528167D01*
X29589639Y-78531512D01*
X29415142Y-78685350D01*
X29415139Y-78685353D01*
X29411345Y-78688698D01*
X29408135Y-78692606D01*
X29408134Y-78692607D01*
X29268053Y-78863146D01*
X29257266Y-78876278D01*
X29135159Y-79086078D01*
X29048167Y-79312702D01*
X28998526Y-79550320D01*
X28987514Y-79792817D01*
X28988095Y-79797837D01*
X28988095Y-79797841D01*
X29003923Y-79934631D01*
X29015415Y-80033956D01*
X29016791Y-80038820D01*
X29016792Y-80038823D01*
X29062476Y-80200266D01*
X29081510Y-80267532D01*
X29083644Y-80272108D01*
X29083646Y-80272114D01*
X29140446Y-80393922D01*
X29184099Y-80487536D01*
X29320544Y-80688307D01*
X29324023Y-80691986D01*
X29324027Y-80691991D01*
X29414276Y-80787427D01*
X29446548Y-80850665D01*
X29439508Y-80921312D01*
X29395391Y-80976937D01*
X29322728Y-81000000D01*
X21126000Y-81000000D01*
X21057879Y-80979998D01*
X21011386Y-80926342D01*
X21000000Y-80874000D01*
X21000000Y-77220000D01*
X89736372Y-77220000D01*
X89756854Y-77480249D01*
X89758008Y-77485056D01*
X89758009Y-77485062D01*
X89796424Y-77645069D01*
X89817796Y-77734089D01*
X89917697Y-77975271D01*
X90054097Y-78197856D01*
X90223637Y-78396363D01*
X90422144Y-78565903D01*
X90644729Y-78702303D01*
X90649299Y-78704196D01*
X90649303Y-78704198D01*
X90880189Y-78799834D01*
X90885911Y-78802204D01*
X90974931Y-78823576D01*
X91134938Y-78861991D01*
X91134944Y-78861992D01*
X91139751Y-78863146D01*
X91400000Y-78883628D01*
X91660249Y-78863146D01*
X91665056Y-78861992D01*
X91665062Y-78861991D01*
X91825069Y-78823576D01*
X91914089Y-78802204D01*
X91919811Y-78799834D01*
X92150697Y-78704198D01*
X92150701Y-78704196D01*
X92155271Y-78702303D01*
X92377856Y-78565903D01*
X92382187Y-78562204D01*
X95503151Y-78562204D01*
X95507720Y-78568735D01*
X95720736Y-78699271D01*
X95729530Y-78703752D01*
X95961492Y-78799834D01*
X95970877Y-78802883D01*
X96215017Y-78861496D01*
X96224764Y-78863039D01*
X96475070Y-78882739D01*
X96484930Y-78882739D01*
X96735236Y-78863039D01*
X96744983Y-78861496D01*
X96989123Y-78802883D01*
X96998508Y-78799834D01*
X97230470Y-78703752D01*
X97239264Y-78699271D01*
X97450875Y-78569596D01*
X97456922Y-78560330D01*
X97450915Y-78550125D01*
X96492812Y-77592022D01*
X96478868Y-77584408D01*
X96477035Y-77584539D01*
X96470420Y-77588790D01*
X95510544Y-78548666D01*
X95503151Y-78562204D01*
X92382187Y-78562204D01*
X92576363Y-78396363D01*
X92745903Y-78197856D01*
X92882303Y-77975271D01*
X92982204Y-77734089D01*
X93003576Y-77645069D01*
X93041991Y-77485062D01*
X93041992Y-77485056D01*
X93043146Y-77480249D01*
X93063240Y-77224930D01*
X94817261Y-77224930D01*
X94836961Y-77475236D01*
X94838504Y-77484983D01*
X94897117Y-77729123D01*
X94900166Y-77738508D01*
X94996248Y-77970470D01*
X95000729Y-77979264D01*
X95130404Y-78190875D01*
X95139670Y-78196922D01*
X95149875Y-78190915D01*
X96107978Y-77232812D01*
X96114356Y-77221132D01*
X96844408Y-77221132D01*
X96844539Y-77222965D01*
X96848790Y-77229580D01*
X97808666Y-78189456D01*
X97822204Y-78196849D01*
X97828735Y-78192280D01*
X97959271Y-77979264D01*
X97963752Y-77970470D01*
X98059834Y-77738508D01*
X98062883Y-77729123D01*
X98121496Y-77484983D01*
X98123039Y-77475236D01*
X98142739Y-77224930D01*
X98142739Y-77215070D01*
X98123039Y-76964764D01*
X98121496Y-76955017D01*
X98062883Y-76710877D01*
X98059834Y-76701492D01*
X97963752Y-76469530D01*
X97959271Y-76460736D01*
X97829596Y-76249125D01*
X97820330Y-76243078D01*
X97810125Y-76249085D01*
X96852022Y-77207188D01*
X96844408Y-77221132D01*
X96114356Y-77221132D01*
X96115592Y-77218868D01*
X96115461Y-77217035D01*
X96111210Y-77210420D01*
X95151334Y-76250544D01*
X95137796Y-76243151D01*
X95131265Y-76247720D01*
X95000729Y-76460736D01*
X94996248Y-76469530D01*
X94900166Y-76701492D01*
X94897117Y-76710877D01*
X94838504Y-76955017D01*
X94836961Y-76964764D01*
X94817261Y-77215070D01*
X94817261Y-77224930D01*
X93063240Y-77224930D01*
X93063628Y-77220000D01*
X93043146Y-76959751D01*
X93041992Y-76954944D01*
X93041991Y-76954938D01*
X92983359Y-76710723D01*
X92982204Y-76705911D01*
X92882303Y-76464729D01*
X92745903Y-76242144D01*
X92576363Y-76043637D01*
X92384381Y-75879670D01*
X95503078Y-75879670D01*
X95509085Y-75889875D01*
X96467188Y-76847978D01*
X96481132Y-76855592D01*
X96482965Y-76855461D01*
X96489580Y-76851210D01*
X97449456Y-75891334D01*
X97456849Y-75877796D01*
X97452280Y-75871265D01*
X97239264Y-75740729D01*
X97230470Y-75736248D01*
X96998508Y-75640166D01*
X96989123Y-75637117D01*
X96744983Y-75578504D01*
X96735236Y-75576961D01*
X96484930Y-75557261D01*
X96475070Y-75557261D01*
X96224764Y-75576961D01*
X96215017Y-75578504D01*
X95970877Y-75637117D01*
X95961492Y-75640166D01*
X95729530Y-75736248D01*
X95720736Y-75740729D01*
X95509125Y-75870404D01*
X95503078Y-75879670D01*
X92384381Y-75879670D01*
X92377856Y-75874097D01*
X92155271Y-75737697D01*
X92150701Y-75735804D01*
X92150697Y-75735802D01*
X91918662Y-75639690D01*
X91918660Y-75639689D01*
X91914089Y-75637796D01*
X91825069Y-75616424D01*
X91665062Y-75578009D01*
X91665056Y-75578008D01*
X91660249Y-75576854D01*
X91400000Y-75556372D01*
X91139751Y-75576854D01*
X91134944Y-75578008D01*
X91134938Y-75578009D01*
X90974931Y-75616424D01*
X90885911Y-75637796D01*
X90881340Y-75639689D01*
X90881338Y-75639690D01*
X90649303Y-75735802D01*
X90649299Y-75735804D01*
X90644729Y-75737697D01*
X90422144Y-75874097D01*
X90223637Y-76043637D01*
X90054097Y-76242144D01*
X89917697Y-76464729D01*
X89817796Y-76705911D01*
X89816641Y-76710723D01*
X89758009Y-76954938D01*
X89758008Y-76954944D01*
X89756854Y-76959751D01*
X89736372Y-77220000D01*
X21000000Y-77220000D01*
X21000000Y-74752817D01*
X28987514Y-74752817D01*
X28988095Y-74757837D01*
X28988095Y-74757841D01*
X29003923Y-74894631D01*
X29015415Y-74993956D01*
X29016791Y-74998820D01*
X29016792Y-74998823D01*
X29062476Y-75160266D01*
X29081510Y-75227532D01*
X29083644Y-75232108D01*
X29083646Y-75232114D01*
X29140446Y-75353922D01*
X29184099Y-75447536D01*
X29320544Y-75648307D01*
X29487332Y-75824681D01*
X29491358Y-75827759D01*
X29491359Y-75827760D01*
X29676154Y-75969047D01*
X29676158Y-75969050D01*
X29680174Y-75972120D01*
X29894109Y-76086831D01*
X30123631Y-76165862D01*
X30222978Y-76183022D01*
X30358926Y-76206504D01*
X30358932Y-76206505D01*
X30362836Y-76207179D01*
X30366797Y-76207359D01*
X30366798Y-76207359D01*
X30390506Y-76208436D01*
X30390525Y-76208436D01*
X30391925Y-76208500D01*
X31561001Y-76208500D01*
X31563509Y-76208298D01*
X31563514Y-76208298D01*
X31736924Y-76194346D01*
X31736929Y-76194345D01*
X31741965Y-76193940D01*
X31746873Y-76192734D01*
X31746876Y-76192734D01*
X31972792Y-76137244D01*
X31977706Y-76136037D01*
X31982358Y-76134062D01*
X31982362Y-76134061D01*
X32118171Y-76076413D01*
X32201156Y-76041188D01*
X32307037Y-75974511D01*
X32402288Y-75914528D01*
X32402291Y-75914526D01*
X32406567Y-75911833D01*
X32588655Y-75751302D01*
X32591869Y-75747390D01*
X32592272Y-75746972D01*
X32653982Y-75711865D01*
X32682908Y-75708500D01*
X36823201Y-75708500D01*
X36891322Y-75728502D01*
X36914749Y-75747927D01*
X36987332Y-75824681D01*
X36991358Y-75827759D01*
X36991359Y-75827760D01*
X37176154Y-75969047D01*
X37176158Y-75969050D01*
X37180174Y-75972120D01*
X37394109Y-76086831D01*
X37623631Y-76165862D01*
X37722978Y-76183022D01*
X37858926Y-76206504D01*
X37858932Y-76206505D01*
X37862836Y-76207179D01*
X37866797Y-76207359D01*
X37866798Y-76207359D01*
X37890506Y-76208436D01*
X37890525Y-76208436D01*
X37891925Y-76208500D01*
X39061001Y-76208500D01*
X39063509Y-76208298D01*
X39063514Y-76208298D01*
X39236924Y-76194346D01*
X39236929Y-76194345D01*
X39241965Y-76193940D01*
X39246873Y-76192734D01*
X39246876Y-76192734D01*
X39472792Y-76137244D01*
X39477706Y-76136037D01*
X39482358Y-76134062D01*
X39482362Y-76134061D01*
X39618171Y-76076413D01*
X39701156Y-76041188D01*
X39807037Y-75974511D01*
X39902288Y-75914528D01*
X39902291Y-75914526D01*
X39906567Y-75911833D01*
X40005422Y-75824681D01*
X40084858Y-75754650D01*
X40084861Y-75754647D01*
X40088655Y-75751302D01*
X40099830Y-75737697D01*
X40239526Y-75567628D01*
X40239528Y-75567625D01*
X40242734Y-75563722D01*
X40364841Y-75353922D01*
X40451833Y-75127298D01*
X40501474Y-74889680D01*
X40512486Y-74647183D01*
X40497235Y-74515373D01*
X40485167Y-74411071D01*
X40485166Y-74411067D01*
X40484585Y-74406044D01*
X40483206Y-74401172D01*
X40483205Y-74401165D01*
X40446399Y-74271094D01*
X40447097Y-74200101D01*
X40478543Y-74147692D01*
X45669379Y-68956855D01*
X45679522Y-68947753D01*
X45704218Y-68927897D01*
X45709025Y-68924032D01*
X45741292Y-68885578D01*
X45744472Y-68881931D01*
X45746115Y-68880119D01*
X45748309Y-68877925D01*
X45775642Y-68844651D01*
X45776348Y-68843800D01*
X45832195Y-68777244D01*
X45836154Y-68772526D01*
X45838722Y-68767856D01*
X45842103Y-68763739D01*
X45885977Y-68681914D01*
X45886606Y-68680755D01*
X45928462Y-68604619D01*
X45928465Y-68604611D01*
X45931433Y-68599213D01*
X45933045Y-68594131D01*
X45935562Y-68589437D01*
X45962762Y-68500469D01*
X45963108Y-68499358D01*
X45989373Y-68416563D01*
X45991235Y-68410694D01*
X45991829Y-68405398D01*
X45993387Y-68400302D01*
X46002790Y-68307743D01*
X46002911Y-68306607D01*
X46008500Y-68256773D01*
X46008500Y-68253246D01*
X46008555Y-68252261D01*
X46009002Y-68246581D01*
X46013374Y-68203538D01*
X46009059Y-68157891D01*
X46008500Y-68146033D01*
X46008500Y-65950231D01*
X46007814Y-65943227D01*
X45994681Y-65809301D01*
X45994080Y-65803167D01*
X45936916Y-65613831D01*
X45844066Y-65439204D01*
X45773709Y-65352938D01*
X45722960Y-65290713D01*
X45722957Y-65290710D01*
X45719065Y-65285938D01*
X45712724Y-65280692D01*
X45571425Y-65163799D01*
X45571421Y-65163797D01*
X45566675Y-65159870D01*
X45392701Y-65065802D01*
X45203768Y-65007318D01*
X45197643Y-65006674D01*
X45197642Y-65006674D01*
X45013204Y-64987289D01*
X45013202Y-64987289D01*
X45007075Y-64986645D01*
X44924576Y-64994153D01*
X44816251Y-65004011D01*
X44816248Y-65004012D01*
X44810112Y-65004570D01*
X44804206Y-65006308D01*
X44804202Y-65006309D01*
X44699076Y-65037249D01*
X44620381Y-65060410D01*
X44614923Y-65063263D01*
X44614919Y-65063265D01*
X44524147Y-65110720D01*
X44445110Y-65152040D01*
X44290975Y-65275968D01*
X44163846Y-65427474D01*
X44160879Y-65432872D01*
X44160875Y-65432877D01*
X44157397Y-65439204D01*
X44068567Y-65600787D01*
X44066706Y-65606654D01*
X44066705Y-65606656D01*
X44010627Y-65783436D01*
X44008765Y-65789306D01*
X43991500Y-65943227D01*
X43991500Y-67730075D01*
X43971498Y-67798196D01*
X43954595Y-67819170D01*
X38619171Y-73154595D01*
X38556859Y-73188621D01*
X38530076Y-73191500D01*
X37938999Y-73191500D01*
X37936491Y-73191702D01*
X37936486Y-73191702D01*
X37763076Y-73205654D01*
X37763071Y-73205655D01*
X37758035Y-73206060D01*
X37753127Y-73207266D01*
X37753124Y-73207266D01*
X37563300Y-73253891D01*
X37522294Y-73263963D01*
X37517642Y-73265938D01*
X37517638Y-73265939D01*
X37410252Y-73311522D01*
X37298844Y-73358812D01*
X37234689Y-73399213D01*
X37097712Y-73485472D01*
X37097709Y-73485474D01*
X37093433Y-73488167D01*
X36911345Y-73648698D01*
X36908131Y-73652610D01*
X36907728Y-73653028D01*
X36846018Y-73688135D01*
X36817092Y-73691500D01*
X32676799Y-73691500D01*
X32608678Y-73671498D01*
X32585251Y-73652073D01*
X32516150Y-73579001D01*
X32516149Y-73579000D01*
X32512668Y-73575319D01*
X32501948Y-73567123D01*
X32323846Y-73430953D01*
X32323842Y-73430950D01*
X32319826Y-73427880D01*
X32284858Y-73409130D01*
X32110352Y-73315561D01*
X32105891Y-73313169D01*
X31876369Y-73234138D01*
X31740640Y-73210694D01*
X31641074Y-73193496D01*
X31641068Y-73193495D01*
X31637164Y-73192821D01*
X31633203Y-73192641D01*
X31633202Y-73192641D01*
X31609494Y-73191564D01*
X31609475Y-73191564D01*
X31608075Y-73191500D01*
X30438999Y-73191500D01*
X30436491Y-73191702D01*
X30436486Y-73191702D01*
X30263076Y-73205654D01*
X30263071Y-73205655D01*
X30258035Y-73206060D01*
X30253127Y-73207266D01*
X30253124Y-73207266D01*
X30063300Y-73253891D01*
X30022294Y-73263963D01*
X30017642Y-73265938D01*
X30017638Y-73265939D01*
X29910252Y-73311522D01*
X29798844Y-73358812D01*
X29734689Y-73399213D01*
X29597712Y-73485472D01*
X29597709Y-73485474D01*
X29593433Y-73488167D01*
X29589639Y-73491512D01*
X29415142Y-73645350D01*
X29415139Y-73645353D01*
X29411345Y-73648698D01*
X29408135Y-73652606D01*
X29408134Y-73652607D01*
X29353346Y-73719308D01*
X29257266Y-73836278D01*
X29201980Y-73931268D01*
X29154530Y-74012796D01*
X29135159Y-74046078D01*
X29133346Y-74050801D01*
X29076036Y-74200101D01*
X29048167Y-74272702D01*
X29047133Y-74277652D01*
X29047132Y-74277655D01*
X29021330Y-74401165D01*
X28998526Y-74510320D01*
X28987514Y-74752817D01*
X21000000Y-74752817D01*
X21000000Y-69931114D01*
X29013275Y-69931114D01*
X29015325Y-69948830D01*
X29017285Y-69958727D01*
X29080604Y-70182494D01*
X29084116Y-70191938D01*
X29182399Y-70402705D01*
X29187378Y-70411471D01*
X29318087Y-70603802D01*
X29324419Y-70611677D01*
X29484186Y-70780626D01*
X29491695Y-70787387D01*
X29676426Y-70928625D01*
X29684905Y-70934089D01*
X29889847Y-71043978D01*
X29899099Y-71048020D01*
X30118971Y-71123727D01*
X30128743Y-71126236D01*
X30358971Y-71166004D01*
X30366843Y-71166859D01*
X30390551Y-71167936D01*
X30393384Y-71168000D01*
X30727885Y-71168000D01*
X30743124Y-71163525D01*
X30744329Y-71162135D01*
X30746000Y-71154452D01*
X30746000Y-71149885D01*
X31254000Y-71149885D01*
X31258475Y-71165124D01*
X31259865Y-71166329D01*
X31267548Y-71168000D01*
X31558456Y-71168000D01*
X31563488Y-71167798D01*
X31736843Y-71153850D01*
X31746796Y-71152238D01*
X31972633Y-71096767D01*
X31982203Y-71093584D01*
X32196265Y-71002720D01*
X32205207Y-70998045D01*
X32401987Y-70874126D01*
X32410060Y-70868086D01*
X32584500Y-70714297D01*
X32591504Y-70707044D01*
X32739110Y-70527346D01*
X32744866Y-70519064D01*
X32861841Y-70318081D01*
X32866203Y-70308976D01*
X32949537Y-70091885D01*
X32952388Y-70082196D01*
X32983821Y-69931736D01*
X32983771Y-69931114D01*
X36513275Y-69931114D01*
X36515325Y-69948830D01*
X36517285Y-69958727D01*
X36580604Y-70182494D01*
X36584116Y-70191938D01*
X36682399Y-70402705D01*
X36687378Y-70411471D01*
X36818087Y-70603802D01*
X36824419Y-70611677D01*
X36984186Y-70780626D01*
X36991695Y-70787387D01*
X37176426Y-70928625D01*
X37184905Y-70934089D01*
X37389847Y-71043978D01*
X37399099Y-71048020D01*
X37618971Y-71123727D01*
X37628743Y-71126236D01*
X37858971Y-71166004D01*
X37866843Y-71166859D01*
X37890551Y-71167936D01*
X37893384Y-71168000D01*
X38227885Y-71168000D01*
X38243124Y-71163525D01*
X38244329Y-71162135D01*
X38246000Y-71154452D01*
X38246000Y-71149885D01*
X38754000Y-71149885D01*
X38758475Y-71165124D01*
X38759865Y-71166329D01*
X38767548Y-71168000D01*
X39058456Y-71168000D01*
X39063488Y-71167798D01*
X39236843Y-71153850D01*
X39246796Y-71152238D01*
X39472633Y-71096767D01*
X39482203Y-71093584D01*
X39696265Y-71002720D01*
X39705207Y-70998045D01*
X39901987Y-70874126D01*
X39910060Y-70868086D01*
X40084500Y-70714297D01*
X40091504Y-70707044D01*
X40239110Y-70527346D01*
X40244866Y-70519064D01*
X40361841Y-70318081D01*
X40366203Y-70308976D01*
X40449537Y-70091885D01*
X40452388Y-70082196D01*
X40483821Y-69931736D01*
X40482698Y-69917675D01*
X40472590Y-69914000D01*
X38772115Y-69914000D01*
X38756876Y-69918475D01*
X38755671Y-69919865D01*
X38754000Y-69927548D01*
X38754000Y-71149885D01*
X38246000Y-71149885D01*
X38246000Y-69932115D01*
X38241525Y-69916876D01*
X38240135Y-69915671D01*
X38232452Y-69914000D01*
X36529410Y-69914000D01*
X36515324Y-69918136D01*
X36513275Y-69931114D01*
X32983771Y-69931114D01*
X32982698Y-69917675D01*
X32972590Y-69914000D01*
X31272115Y-69914000D01*
X31256876Y-69918475D01*
X31255671Y-69919865D01*
X31254000Y-69927548D01*
X31254000Y-71149885D01*
X30746000Y-71149885D01*
X30746000Y-69932115D01*
X30741525Y-69916876D01*
X30740135Y-69915671D01*
X30732452Y-69914000D01*
X29029410Y-69914000D01*
X29015324Y-69918136D01*
X29013275Y-69931114D01*
X21000000Y-69931114D01*
X21000000Y-69388264D01*
X29016179Y-69388264D01*
X29017302Y-69402325D01*
X29027410Y-69406000D01*
X30727885Y-69406000D01*
X30743124Y-69401525D01*
X30744329Y-69400135D01*
X30746000Y-69392452D01*
X30746000Y-69387885D01*
X31254000Y-69387885D01*
X31258475Y-69403124D01*
X31259865Y-69404329D01*
X31267548Y-69406000D01*
X32970590Y-69406000D01*
X32984676Y-69401864D01*
X32986725Y-69388886D01*
X32986653Y-69388264D01*
X36516179Y-69388264D01*
X36517302Y-69402325D01*
X36527410Y-69406000D01*
X38227885Y-69406000D01*
X38243124Y-69401525D01*
X38244329Y-69400135D01*
X38246000Y-69392452D01*
X38246000Y-69387885D01*
X38754000Y-69387885D01*
X38758475Y-69403124D01*
X38759865Y-69404329D01*
X38767548Y-69406000D01*
X40470590Y-69406000D01*
X40484676Y-69401864D01*
X40486725Y-69388886D01*
X40484675Y-69371170D01*
X40482715Y-69361273D01*
X40419396Y-69137506D01*
X40415884Y-69128062D01*
X40317601Y-68917295D01*
X40312622Y-68908529D01*
X40181913Y-68716198D01*
X40175581Y-68708323D01*
X40015814Y-68539374D01*
X40008305Y-68532613D01*
X39823574Y-68391375D01*
X39815095Y-68385911D01*
X39610153Y-68276022D01*
X39600901Y-68271980D01*
X39381029Y-68196273D01*
X39371257Y-68193764D01*
X39141029Y-68153996D01*
X39133157Y-68153141D01*
X39109449Y-68152064D01*
X39106616Y-68152000D01*
X38772115Y-68152000D01*
X38756876Y-68156475D01*
X38755671Y-68157865D01*
X38754000Y-68165548D01*
X38754000Y-69387885D01*
X38246000Y-69387885D01*
X38246000Y-68170115D01*
X38241525Y-68154876D01*
X38240135Y-68153671D01*
X38232452Y-68152000D01*
X37941544Y-68152000D01*
X37936512Y-68152202D01*
X37763157Y-68166150D01*
X37753204Y-68167762D01*
X37527367Y-68223233D01*
X37517797Y-68226416D01*
X37303735Y-68317280D01*
X37294793Y-68321955D01*
X37098013Y-68445874D01*
X37089940Y-68451914D01*
X36915500Y-68605703D01*
X36908496Y-68612956D01*
X36760890Y-68792654D01*
X36755134Y-68800936D01*
X36638159Y-69001919D01*
X36633797Y-69011024D01*
X36550463Y-69228115D01*
X36547612Y-69237804D01*
X36516179Y-69388264D01*
X32986653Y-69388264D01*
X32984675Y-69371170D01*
X32982715Y-69361273D01*
X32919396Y-69137506D01*
X32915884Y-69128062D01*
X32817601Y-68917295D01*
X32812622Y-68908529D01*
X32681913Y-68716198D01*
X32675581Y-68708323D01*
X32515814Y-68539374D01*
X32508305Y-68532613D01*
X32323574Y-68391375D01*
X32315095Y-68385911D01*
X32110153Y-68276022D01*
X32100901Y-68271980D01*
X31881029Y-68196273D01*
X31871257Y-68193764D01*
X31641029Y-68153996D01*
X31633157Y-68153141D01*
X31609449Y-68152064D01*
X31606616Y-68152000D01*
X31272115Y-68152000D01*
X31256876Y-68156475D01*
X31255671Y-68157865D01*
X31254000Y-68165548D01*
X31254000Y-69387885D01*
X30746000Y-69387885D01*
X30746000Y-68170115D01*
X30741525Y-68154876D01*
X30740135Y-68153671D01*
X30732452Y-68152000D01*
X30441544Y-68152000D01*
X30436512Y-68152202D01*
X30263157Y-68166150D01*
X30253204Y-68167762D01*
X30027367Y-68223233D01*
X30017797Y-68226416D01*
X29803735Y-68317280D01*
X29794793Y-68321955D01*
X29598013Y-68445874D01*
X29589940Y-68451914D01*
X29415500Y-68605703D01*
X29408496Y-68612956D01*
X29260890Y-68792654D01*
X29255134Y-68800936D01*
X29138159Y-69001919D01*
X29133797Y-69011024D01*
X29050463Y-69228115D01*
X29047612Y-69237804D01*
X29016179Y-69388264D01*
X21000000Y-69388264D01*
X21000000Y-59935774D01*
X32013102Y-59935774D01*
X32013302Y-59941103D01*
X32013302Y-59941105D01*
X32016144Y-60016796D01*
X32021751Y-60166158D01*
X32069093Y-60391791D01*
X32071051Y-60396750D01*
X32071052Y-60396752D01*
X32146442Y-60587649D01*
X32153776Y-60606221D01*
X32156543Y-60610780D01*
X32156544Y-60610783D01*
X32200049Y-60682476D01*
X32273377Y-60803317D01*
X32276874Y-60807347D01*
X32420930Y-60973357D01*
X32424477Y-60977445D01*
X32428608Y-60980832D01*
X32598627Y-61120240D01*
X32598633Y-61120244D01*
X32602755Y-61123624D01*
X32607391Y-61126263D01*
X32607394Y-61126265D01*
X32733232Y-61197896D01*
X32803114Y-61237675D01*
X33019825Y-61316337D01*
X33025074Y-61317286D01*
X33025077Y-61317287D01*
X33242608Y-61356623D01*
X33242615Y-61356624D01*
X33246692Y-61357361D01*
X33264414Y-61358197D01*
X33269356Y-61358430D01*
X33269363Y-61358430D01*
X33270844Y-61358500D01*
X33682890Y-61358500D01*
X33749809Y-61352822D01*
X33849409Y-61344371D01*
X33849413Y-61344370D01*
X33854720Y-61343920D01*
X33859875Y-61342582D01*
X33859881Y-61342581D01*
X34072703Y-61287343D01*
X34072707Y-61287342D01*
X34077872Y-61286001D01*
X34082738Y-61283809D01*
X34082741Y-61283808D01*
X34229629Y-61217640D01*
X34288075Y-61191312D01*
X34416991Y-61104521D01*
X34474889Y-61065542D01*
X34474893Y-61065539D01*
X34479319Y-61062559D01*
X34499475Y-61043331D01*
X34562571Y-61010783D01*
X34586447Y-61008500D01*
X36775101Y-61008500D01*
X36843222Y-61028502D01*
X36882245Y-61068197D01*
X36901522Y-61099348D01*
X37026697Y-61224305D01*
X37032927Y-61228145D01*
X37032928Y-61228146D01*
X37170090Y-61312694D01*
X37177262Y-61317115D01*
X37193564Y-61322522D01*
X37338611Y-61370632D01*
X37338613Y-61370632D01*
X37345139Y-61372797D01*
X37351975Y-61373497D01*
X37351978Y-61373498D01*
X37395031Y-61377909D01*
X37449600Y-61383500D01*
X38350400Y-61383500D01*
X38353646Y-61383163D01*
X38353650Y-61383163D01*
X38449308Y-61373238D01*
X38449312Y-61373237D01*
X38456166Y-61372526D01*
X38462702Y-61370345D01*
X38462704Y-61370345D01*
X38606046Y-61322522D01*
X38623946Y-61316550D01*
X38774348Y-61223478D01*
X38899305Y-61098303D01*
X38928213Y-61051406D01*
X38988275Y-60953968D01*
X38988276Y-60953966D01*
X38992115Y-60947738D01*
X39038012Y-60809362D01*
X39045632Y-60786389D01*
X39045632Y-60786387D01*
X39047797Y-60779861D01*
X39058500Y-60675400D01*
X39841500Y-60675400D01*
X39841837Y-60678646D01*
X39841837Y-60678650D01*
X39845657Y-60715462D01*
X39852474Y-60781166D01*
X39854655Y-60787702D01*
X39854655Y-60787704D01*
X39892424Y-60900909D01*
X39908450Y-60948946D01*
X40001522Y-61099348D01*
X40126697Y-61224305D01*
X40132927Y-61228145D01*
X40132928Y-61228146D01*
X40270090Y-61312694D01*
X40277262Y-61317115D01*
X40293564Y-61322522D01*
X40438611Y-61370632D01*
X40438613Y-61370632D01*
X40445139Y-61372797D01*
X40451975Y-61373497D01*
X40451978Y-61373498D01*
X40495031Y-61377909D01*
X40549600Y-61383500D01*
X41450400Y-61383500D01*
X41453646Y-61383163D01*
X41453650Y-61383163D01*
X41549308Y-61373238D01*
X41549312Y-61373237D01*
X41556166Y-61372526D01*
X41562702Y-61370345D01*
X41562704Y-61370345D01*
X41706046Y-61322522D01*
X41723946Y-61316550D01*
X41874348Y-61223478D01*
X41999305Y-61098303D01*
X42028213Y-61051406D01*
X42088275Y-60953968D01*
X42088276Y-60953966D01*
X42092115Y-60947738D01*
X42138012Y-60809362D01*
X42145632Y-60786389D01*
X42145632Y-60786387D01*
X42147797Y-60779861D01*
X42158500Y-60675400D01*
X42158500Y-60319925D01*
X42178502Y-60251804D01*
X42195405Y-60230830D01*
X43960829Y-58465405D01*
X44023141Y-58431380D01*
X44049924Y-58428500D01*
X44719260Y-58428500D01*
X44791531Y-58451287D01*
X44943251Y-58557523D01*
X44948233Y-58559846D01*
X44948238Y-58559849D01*
X44982457Y-58575805D01*
X45035742Y-58622722D01*
X45055203Y-58690999D01*
X45034661Y-58758959D01*
X44982457Y-58804195D01*
X44948238Y-58820151D01*
X44948233Y-58820154D01*
X44943251Y-58822477D01*
X44861443Y-58879760D01*
X44760211Y-58950643D01*
X44760208Y-58950645D01*
X44755700Y-58953802D01*
X44593802Y-59115700D01*
X44590645Y-59120208D01*
X44590643Y-59120211D01*
X44545953Y-59184035D01*
X44462477Y-59303251D01*
X44460154Y-59308233D01*
X44460151Y-59308238D01*
X44368039Y-59505775D01*
X44365716Y-59510757D01*
X44364294Y-59516065D01*
X44364293Y-59516067D01*
X44311654Y-59712516D01*
X44306457Y-59731913D01*
X44286502Y-59960000D01*
X44306457Y-60188087D01*
X44307881Y-60193400D01*
X44307881Y-60193402D01*
X44357888Y-60380027D01*
X44365716Y-60409243D01*
X44368039Y-60414224D01*
X44368039Y-60414225D01*
X44460151Y-60611762D01*
X44460154Y-60611767D01*
X44462477Y-60616749D01*
X44529605Y-60712617D01*
X44589921Y-60798757D01*
X44593802Y-60804300D01*
X44755700Y-60966198D01*
X44760208Y-60969355D01*
X44760211Y-60969357D01*
X44811692Y-61005404D01*
X44943251Y-61097523D01*
X44948233Y-61099846D01*
X44948238Y-61099849D01*
X44982457Y-61115805D01*
X45035742Y-61162722D01*
X45055203Y-61230999D01*
X45034661Y-61298959D01*
X44982457Y-61344195D01*
X44948238Y-61360151D01*
X44948233Y-61360154D01*
X44943251Y-61362477D01*
X44872525Y-61412000D01*
X44760211Y-61490643D01*
X44760208Y-61490645D01*
X44755700Y-61493802D01*
X44593802Y-61655700D01*
X44590645Y-61660208D01*
X44590643Y-61660211D01*
X44541976Y-61729715D01*
X44462477Y-61843251D01*
X44460154Y-61848233D01*
X44460151Y-61848238D01*
X44368039Y-62045775D01*
X44365716Y-62050757D01*
X44364294Y-62056065D01*
X44364293Y-62056067D01*
X44307881Y-62266598D01*
X44306457Y-62271913D01*
X44286502Y-62500000D01*
X44306457Y-62728087D01*
X44307881Y-62733400D01*
X44307881Y-62733402D01*
X44351887Y-62897631D01*
X44365716Y-62949243D01*
X44368039Y-62954224D01*
X44368039Y-62954225D01*
X44460151Y-63151762D01*
X44460154Y-63151767D01*
X44462477Y-63156749D01*
X44593802Y-63344300D01*
X44755700Y-63506198D01*
X44760208Y-63509355D01*
X44760211Y-63509357D01*
X44801195Y-63538054D01*
X44943251Y-63637523D01*
X44948233Y-63639846D01*
X44948238Y-63639849D01*
X45145775Y-63731961D01*
X45150757Y-63734284D01*
X45156065Y-63735706D01*
X45156067Y-63735707D01*
X45366598Y-63792119D01*
X45366600Y-63792119D01*
X45371913Y-63793543D01*
X45469778Y-63802105D01*
X45540149Y-63808262D01*
X45540156Y-63808262D01*
X45542873Y-63808500D01*
X46457127Y-63808500D01*
X46459844Y-63808262D01*
X46459851Y-63808262D01*
X46530222Y-63802105D01*
X46628087Y-63793543D01*
X46633400Y-63792119D01*
X46633402Y-63792119D01*
X46843933Y-63735707D01*
X46843935Y-63735706D01*
X46849243Y-63734284D01*
X46854225Y-63731961D01*
X47051762Y-63639849D01*
X47051767Y-63639846D01*
X47056749Y-63637523D01*
X47198805Y-63538054D01*
X47239789Y-63509357D01*
X47239792Y-63509355D01*
X47244300Y-63506198D01*
X47276405Y-63474093D01*
X47338717Y-63440067D01*
X47409532Y-63445132D01*
X47466368Y-63487679D01*
X47491179Y-63554199D01*
X47491500Y-63563188D01*
X47491500Y-69691374D01*
X47471498Y-69759495D01*
X47430206Y-69799490D01*
X47354725Y-69844664D01*
X47354721Y-69844667D01*
X47351043Y-69846868D01*
X47137318Y-70018094D01*
X46948808Y-70216742D01*
X46789002Y-70439136D01*
X46660857Y-70681161D01*
X46659385Y-70685184D01*
X46659383Y-70685188D01*
X46568214Y-70934317D01*
X46566743Y-70938337D01*
X46508404Y-71205907D01*
X46486917Y-71478918D01*
X46502682Y-71752320D01*
X46503507Y-71756525D01*
X46503508Y-71756533D01*
X46514127Y-71810657D01*
X46555405Y-72021053D01*
X46556792Y-72025103D01*
X46556793Y-72025108D01*
X46577605Y-72085895D01*
X46644112Y-72280144D01*
X46767160Y-72524799D01*
X46769586Y-72528328D01*
X46769589Y-72528334D01*
X46919843Y-72746953D01*
X46922274Y-72750490D01*
X47106582Y-72953043D01*
X47316675Y-73128707D01*
X47320316Y-73130991D01*
X47545024Y-73271951D01*
X47545028Y-73271953D01*
X47548664Y-73274234D01*
X47634895Y-73313169D01*
X47794345Y-73385164D01*
X47794349Y-73385166D01*
X47798257Y-73386930D01*
X47839724Y-73399213D01*
X48056723Y-73463491D01*
X48056727Y-73463492D01*
X48060836Y-73464709D01*
X48065070Y-73465357D01*
X48065075Y-73465358D01*
X48327298Y-73505483D01*
X48327300Y-73505483D01*
X48331540Y-73506132D01*
X48470912Y-73508322D01*
X48601071Y-73510367D01*
X48601077Y-73510367D01*
X48605362Y-73510434D01*
X48877235Y-73477534D01*
X49142127Y-73408041D01*
X49146087Y-73406401D01*
X49146092Y-73406399D01*
X49268632Y-73355641D01*
X49395136Y-73303241D01*
X49562136Y-73205654D01*
X49627879Y-73167237D01*
X49627880Y-73167236D01*
X49631582Y-73165073D01*
X49780720Y-73048134D01*
X53991500Y-73048134D01*
X53998255Y-73110316D01*
X54049385Y-73246705D01*
X54136739Y-73363261D01*
X54253295Y-73450615D01*
X54389684Y-73501745D01*
X54451866Y-73508500D01*
X57548134Y-73508500D01*
X57610316Y-73501745D01*
X57746705Y-73450615D01*
X57863261Y-73363261D01*
X57950615Y-73246705D01*
X58001745Y-73110316D01*
X58008500Y-73048134D01*
X58008500Y-69951866D01*
X58001745Y-69889684D01*
X57950615Y-69753295D01*
X57863261Y-69636739D01*
X57746705Y-69549385D01*
X57610316Y-69498255D01*
X57548134Y-69491500D01*
X54451866Y-69491500D01*
X54389684Y-69498255D01*
X54253295Y-69549385D01*
X54136739Y-69636739D01*
X54049385Y-69753295D01*
X53998255Y-69889684D01*
X53991500Y-69951866D01*
X53991500Y-73048134D01*
X49780720Y-73048134D01*
X49847089Y-72996094D01*
X49888809Y-72953043D01*
X50034686Y-72802509D01*
X50037669Y-72799431D01*
X50040202Y-72795983D01*
X50040206Y-72795978D01*
X50197257Y-72582178D01*
X50199795Y-72578723D01*
X50227154Y-72528334D01*
X50328418Y-72341830D01*
X50328419Y-72341828D01*
X50330468Y-72338054D01*
X50427269Y-72081877D01*
X50488407Y-71814933D01*
X50512751Y-71542161D01*
X50513193Y-71500000D01*
X50494567Y-71226778D01*
X50439032Y-70958612D01*
X50347617Y-70700465D01*
X50222013Y-70457112D01*
X50212040Y-70442921D01*
X50124301Y-70318081D01*
X50064545Y-70233057D01*
X49933360Y-70091885D01*
X49881046Y-70035588D01*
X49881043Y-70035585D01*
X49878125Y-70032445D01*
X49874810Y-70029731D01*
X49874806Y-70029728D01*
X49744069Y-69922721D01*
X49666205Y-69858990D01*
X49568665Y-69799218D01*
X49521034Y-69746570D01*
X49508500Y-69691785D01*
X49508500Y-63344669D01*
X51912001Y-63344669D01*
X51912371Y-63351490D01*
X51917895Y-63402352D01*
X51921521Y-63417604D01*
X51966676Y-63538054D01*
X51975214Y-63553649D01*
X52051715Y-63655724D01*
X52064276Y-63668285D01*
X52166351Y-63744786D01*
X52181946Y-63753324D01*
X52302394Y-63798478D01*
X52317649Y-63802105D01*
X52368514Y-63807631D01*
X52375328Y-63808000D01*
X53347885Y-63808000D01*
X53363124Y-63803525D01*
X53364329Y-63802135D01*
X53366000Y-63794452D01*
X53366000Y-63789884D01*
X53874000Y-63789884D01*
X53878475Y-63805123D01*
X53879865Y-63806328D01*
X53887548Y-63807999D01*
X54864669Y-63807999D01*
X54871490Y-63807629D01*
X54922352Y-63802105D01*
X54937604Y-63798479D01*
X55058054Y-63753324D01*
X55073649Y-63744786D01*
X55175724Y-63668285D01*
X55188285Y-63655724D01*
X55264786Y-63553649D01*
X55273324Y-63538054D01*
X55318478Y-63417606D01*
X55322105Y-63402351D01*
X55327631Y-63351486D01*
X55328000Y-63344672D01*
X55328000Y-62772115D01*
X55323525Y-62756876D01*
X55322135Y-62755671D01*
X55314452Y-62754000D01*
X53892115Y-62754000D01*
X53876876Y-62758475D01*
X53875671Y-62759865D01*
X53874000Y-62767548D01*
X53874000Y-63789884D01*
X53366000Y-63789884D01*
X53366000Y-62772115D01*
X53361525Y-62756876D01*
X53360135Y-62755671D01*
X53352452Y-62754000D01*
X51930116Y-62754000D01*
X51914877Y-62758475D01*
X51913672Y-62759865D01*
X51912001Y-62767548D01*
X51912001Y-63344669D01*
X49508500Y-63344669D01*
X49508500Y-62227885D01*
X51912000Y-62227885D01*
X51916475Y-62243124D01*
X51917865Y-62244329D01*
X51925548Y-62246000D01*
X53347885Y-62246000D01*
X53363124Y-62241525D01*
X53364329Y-62240135D01*
X53366000Y-62232452D01*
X53366000Y-62227885D01*
X53874000Y-62227885D01*
X53878475Y-62243124D01*
X53879865Y-62244329D01*
X53887548Y-62246000D01*
X55309884Y-62246000D01*
X55325123Y-62241525D01*
X55326328Y-62240135D01*
X55327999Y-62232452D01*
X55327999Y-61655331D01*
X55327629Y-61648510D01*
X55322105Y-61597648D01*
X55318479Y-61582396D01*
X55273324Y-61461946D01*
X55264786Y-61446351D01*
X55188285Y-61344276D01*
X55175724Y-61331715D01*
X55073649Y-61255214D01*
X55058054Y-61246676D01*
X54937606Y-61201522D01*
X54922357Y-61197896D01*
X54918149Y-61197439D01*
X54915090Y-61196168D01*
X54914669Y-61196068D01*
X54914685Y-61196000D01*
X54852586Y-61170199D01*
X54812157Y-61111837D01*
X54809699Y-61040883D01*
X54845992Y-60979864D01*
X54859400Y-60969028D01*
X54867875Y-60961916D01*
X55021916Y-60807875D01*
X55028972Y-60799467D01*
X55153931Y-60621007D01*
X55159414Y-60611511D01*
X55251490Y-60414053D01*
X55255236Y-60403761D01*
X55301394Y-60231497D01*
X55301058Y-60217401D01*
X55293116Y-60214000D01*
X53892115Y-60214000D01*
X53876876Y-60218475D01*
X53875671Y-60219865D01*
X53874000Y-60227548D01*
X53874000Y-62227885D01*
X53366000Y-62227885D01*
X53366000Y-60232115D01*
X53361525Y-60216876D01*
X53360135Y-60215671D01*
X53352452Y-60214000D01*
X51952033Y-60214000D01*
X51938502Y-60217973D01*
X51937273Y-60226522D01*
X51984764Y-60403761D01*
X51988510Y-60414053D01*
X52080586Y-60611511D01*
X52086069Y-60621007D01*
X52211028Y-60799467D01*
X52218084Y-60807875D01*
X52372125Y-60961916D01*
X52384746Y-60972507D01*
X52384032Y-60973357D01*
X52424848Y-61024422D01*
X52432156Y-61095041D01*
X52400123Y-61158401D01*
X52338921Y-61194385D01*
X52321855Y-61197438D01*
X52317647Y-61197895D01*
X52302396Y-61201521D01*
X52181946Y-61246676D01*
X52166351Y-61255214D01*
X52064276Y-61331715D01*
X52051715Y-61344276D01*
X51975214Y-61446351D01*
X51966676Y-61461946D01*
X51921522Y-61582394D01*
X51917895Y-61597649D01*
X51912369Y-61648514D01*
X51912000Y-61655328D01*
X51912000Y-62227885D01*
X49508500Y-62227885D01*
X49508500Y-58561850D01*
X49509237Y-58548242D01*
X49511294Y-58529305D01*
X49513325Y-58510612D01*
X49508947Y-58460570D01*
X49508621Y-58455788D01*
X49508500Y-58453310D01*
X49508500Y-58450231D01*
X49508201Y-58447177D01*
X49508200Y-58447166D01*
X49504313Y-58407529D01*
X49504191Y-58406215D01*
X49500199Y-58360590D01*
X49496087Y-58313587D01*
X49494600Y-58308468D01*
X49494080Y-58303167D01*
X49467209Y-58214166D01*
X49466874Y-58213033D01*
X49442630Y-58129586D01*
X49442628Y-58129582D01*
X49440909Y-58123664D01*
X49438456Y-58118932D01*
X49436916Y-58113831D01*
X49393269Y-58031740D01*
X49392657Y-58030574D01*
X49352729Y-57953547D01*
X49349892Y-57948074D01*
X49346569Y-57943911D01*
X49344066Y-57939204D01*
X49327728Y-57919171D01*
X49285261Y-57867102D01*
X49284433Y-57866075D01*
X49255469Y-57829792D01*
X49255464Y-57829787D01*
X49253262Y-57827028D01*
X49250761Y-57824527D01*
X49250119Y-57823809D01*
X49246406Y-57819461D01*
X49228797Y-57797871D01*
X49219065Y-57785938D01*
X49214323Y-57782015D01*
X49214321Y-57782013D01*
X49183727Y-57756703D01*
X49174947Y-57748713D01*
X48846234Y-57420000D01*
X51906502Y-57420000D01*
X51926457Y-57648087D01*
X51927881Y-57653400D01*
X51927881Y-57653402D01*
X51973410Y-57823315D01*
X51985716Y-57869243D01*
X51988039Y-57874224D01*
X51988039Y-57874225D01*
X52080151Y-58071762D01*
X52080154Y-58071767D01*
X52082477Y-58076749D01*
X52131255Y-58146411D01*
X52184547Y-58222519D01*
X52213802Y-58264300D01*
X52375700Y-58426198D01*
X52380208Y-58429355D01*
X52380211Y-58429357D01*
X52431693Y-58465405D01*
X52563251Y-58557523D01*
X52568233Y-58559846D01*
X52568238Y-58559849D01*
X52603049Y-58576081D01*
X52656334Y-58622998D01*
X52675795Y-58691275D01*
X52655253Y-58759235D01*
X52603049Y-58804471D01*
X52568489Y-58820586D01*
X52558993Y-58826069D01*
X52380533Y-58951028D01*
X52372125Y-58958084D01*
X52218084Y-59112125D01*
X52211028Y-59120533D01*
X52086069Y-59298993D01*
X52080586Y-59308489D01*
X51988510Y-59505947D01*
X51984764Y-59516239D01*
X51938606Y-59688503D01*
X51938942Y-59702599D01*
X51946884Y-59706000D01*
X55287967Y-59706000D01*
X55301498Y-59702027D01*
X55302727Y-59693478D01*
X55255236Y-59516239D01*
X55251490Y-59505947D01*
X55159414Y-59308489D01*
X55153931Y-59298993D01*
X55028972Y-59120533D01*
X55021916Y-59112125D01*
X54867875Y-58958084D01*
X54859467Y-58951028D01*
X54681007Y-58826069D01*
X54671511Y-58820586D01*
X54636951Y-58804471D01*
X54583666Y-58757554D01*
X54564205Y-58689277D01*
X54584747Y-58621317D01*
X54636951Y-58576081D01*
X54671762Y-58559849D01*
X54671767Y-58559846D01*
X54676749Y-58557523D01*
X54808307Y-58465405D01*
X54859789Y-58429357D01*
X54859792Y-58429355D01*
X54864300Y-58426198D01*
X55026198Y-58264300D01*
X55055454Y-58222519D01*
X55108745Y-58146411D01*
X55157523Y-58076749D01*
X55159846Y-58071767D01*
X55159849Y-58071762D01*
X55251961Y-57874225D01*
X55251961Y-57874224D01*
X55254284Y-57869243D01*
X55266591Y-57823315D01*
X55312119Y-57653402D01*
X55312119Y-57653400D01*
X55313543Y-57648087D01*
X55333498Y-57420000D01*
X55313543Y-57191913D01*
X55303728Y-57155283D01*
X55255707Y-56976067D01*
X55255706Y-56976065D01*
X55254284Y-56970757D01*
X55250062Y-56961703D01*
X55159849Y-56768238D01*
X55159846Y-56768233D01*
X55157523Y-56763251D01*
X55034674Y-56587805D01*
X55029357Y-56580211D01*
X55029355Y-56580208D01*
X55026198Y-56575700D01*
X54864300Y-56413802D01*
X54859792Y-56410645D01*
X54859789Y-56410643D01*
X54729507Y-56319419D01*
X54676749Y-56282477D01*
X54671767Y-56280154D01*
X54671762Y-56280151D01*
X54637543Y-56264195D01*
X54584258Y-56217278D01*
X54564797Y-56149001D01*
X54585339Y-56081041D01*
X54637543Y-56035805D01*
X54671762Y-56019849D01*
X54671767Y-56019846D01*
X54676749Y-56017523D01*
X54786333Y-55940791D01*
X54859789Y-55889357D01*
X54859792Y-55889355D01*
X54864300Y-55886198D01*
X55026198Y-55724300D01*
X55157523Y-55536749D01*
X55159846Y-55531767D01*
X55159849Y-55531762D01*
X55251961Y-55334225D01*
X55251961Y-55334224D01*
X55254284Y-55329243D01*
X55296585Y-55171377D01*
X55312119Y-55113402D01*
X55312119Y-55113400D01*
X55313543Y-55108087D01*
X55333498Y-54880000D01*
X55313543Y-54651913D01*
X55254284Y-54430757D01*
X55251961Y-54425775D01*
X55159849Y-54228238D01*
X55159846Y-54228233D01*
X55157523Y-54223251D01*
X55084098Y-54118389D01*
X55029357Y-54040211D01*
X55029355Y-54040208D01*
X55026198Y-54035700D01*
X54864300Y-53873802D01*
X54859792Y-53870645D01*
X54859789Y-53870643D01*
X54743305Y-53789080D01*
X54676749Y-53742477D01*
X54671767Y-53740154D01*
X54671762Y-53740151D01*
X54637543Y-53724195D01*
X54584258Y-53677278D01*
X54564797Y-53609001D01*
X54585339Y-53541041D01*
X54637543Y-53495805D01*
X54671762Y-53479849D01*
X54671767Y-53479846D01*
X54676749Y-53477523D01*
X54808307Y-53385405D01*
X54859789Y-53349357D01*
X54859792Y-53349355D01*
X54864300Y-53346198D01*
X55026198Y-53184300D01*
X55047660Y-53153650D01*
X55154366Y-53001257D01*
X55157523Y-52996749D01*
X55159846Y-52991767D01*
X55159849Y-52991762D01*
X55251961Y-52794225D01*
X55251961Y-52794224D01*
X55254284Y-52789243D01*
X55313543Y-52568087D01*
X55333498Y-52340000D01*
X55313543Y-52111913D01*
X55254284Y-51890757D01*
X55236615Y-51852866D01*
X55159849Y-51688238D01*
X55159846Y-51688233D01*
X55157523Y-51683251D01*
X55026198Y-51495700D01*
X54864300Y-51333802D01*
X54859792Y-51330645D01*
X54859789Y-51330643D01*
X54684472Y-51207885D01*
X54676749Y-51202477D01*
X54671767Y-51200154D01*
X54671762Y-51200151D01*
X54637543Y-51184195D01*
X54584258Y-51137278D01*
X54564797Y-51069001D01*
X54585339Y-51001041D01*
X54637543Y-50955805D01*
X54671762Y-50939849D01*
X54671767Y-50939846D01*
X54676749Y-50937523D01*
X54781611Y-50864098D01*
X54859789Y-50809357D01*
X54859792Y-50809355D01*
X54864300Y-50806198D01*
X55026198Y-50644300D01*
X55157523Y-50456749D01*
X55159846Y-50451767D01*
X55159849Y-50451762D01*
X55251961Y-50254225D01*
X55251961Y-50254224D01*
X55254284Y-50249243D01*
X55313543Y-50028087D01*
X55333498Y-49800000D01*
X55313543Y-49571913D01*
X55254284Y-49350757D01*
X55251961Y-49345775D01*
X55159849Y-49148238D01*
X55159846Y-49148233D01*
X55157523Y-49143251D01*
X55026198Y-48955700D01*
X54864300Y-48793802D01*
X54859792Y-48790645D01*
X54859789Y-48790643D01*
X54781611Y-48735902D01*
X54676749Y-48662477D01*
X54671767Y-48660154D01*
X54671762Y-48660151D01*
X54637543Y-48644195D01*
X54584258Y-48597278D01*
X54564797Y-48529001D01*
X54585339Y-48461041D01*
X54637543Y-48415805D01*
X54671762Y-48399849D01*
X54671767Y-48399846D01*
X54676749Y-48397523D01*
X54781611Y-48324098D01*
X54859789Y-48269357D01*
X54859792Y-48269355D01*
X54864300Y-48266198D01*
X55026198Y-48104300D01*
X55157523Y-47916749D01*
X55159846Y-47911767D01*
X55159849Y-47911762D01*
X55251961Y-47714225D01*
X55251961Y-47714224D01*
X55254284Y-47709243D01*
X55313543Y-47488087D01*
X55333498Y-47260000D01*
X55313543Y-47031913D01*
X55254284Y-46810757D01*
X55251961Y-46805775D01*
X55159849Y-46608238D01*
X55159846Y-46608233D01*
X55157523Y-46603251D01*
X55026198Y-46415700D01*
X54864300Y-46253802D01*
X54859792Y-46250645D01*
X54859789Y-46250643D01*
X54700937Y-46139414D01*
X54676749Y-46122477D01*
X54671767Y-46120154D01*
X54671762Y-46120151D01*
X54636951Y-46103919D01*
X54583666Y-46057002D01*
X54564205Y-45988725D01*
X54584747Y-45920765D01*
X54636951Y-45875529D01*
X54671511Y-45859414D01*
X54681007Y-45853931D01*
X54859467Y-45728972D01*
X54867875Y-45721916D01*
X55021916Y-45567875D01*
X55028972Y-45559467D01*
X55153931Y-45381007D01*
X55159414Y-45371511D01*
X55251490Y-45174053D01*
X55255236Y-45163761D01*
X55301394Y-44991497D01*
X55301058Y-44977401D01*
X55293116Y-44974000D01*
X51952033Y-44974000D01*
X51938502Y-44977973D01*
X51937273Y-44986522D01*
X51984764Y-45163761D01*
X51988510Y-45174053D01*
X52080586Y-45371511D01*
X52086069Y-45381007D01*
X52211028Y-45559467D01*
X52218084Y-45567875D01*
X52372125Y-45721916D01*
X52380533Y-45728972D01*
X52558993Y-45853931D01*
X52568489Y-45859414D01*
X52603049Y-45875529D01*
X52656334Y-45922446D01*
X52675795Y-45990723D01*
X52655253Y-46058683D01*
X52603049Y-46103919D01*
X52568238Y-46120151D01*
X52568233Y-46120154D01*
X52563251Y-46122477D01*
X52539063Y-46139414D01*
X52380211Y-46250643D01*
X52380208Y-46250645D01*
X52375700Y-46253802D01*
X52213802Y-46415700D01*
X52082477Y-46603251D01*
X52080154Y-46608233D01*
X52080151Y-46608238D01*
X51988039Y-46805775D01*
X51985716Y-46810757D01*
X51926457Y-47031913D01*
X51906502Y-47260000D01*
X51926457Y-47488087D01*
X51985716Y-47709243D01*
X51988039Y-47714224D01*
X51988039Y-47714225D01*
X52080151Y-47911762D01*
X52080154Y-47911767D01*
X52082477Y-47916749D01*
X52213802Y-48104300D01*
X52375700Y-48266198D01*
X52380208Y-48269355D01*
X52380211Y-48269357D01*
X52458389Y-48324098D01*
X52563251Y-48397523D01*
X52568233Y-48399846D01*
X52568238Y-48399849D01*
X52602457Y-48415805D01*
X52655742Y-48462722D01*
X52675203Y-48530999D01*
X52654661Y-48598959D01*
X52602457Y-48644195D01*
X52568238Y-48660151D01*
X52568233Y-48660154D01*
X52563251Y-48662477D01*
X52458389Y-48735902D01*
X52380211Y-48790643D01*
X52380208Y-48790645D01*
X52375700Y-48793802D01*
X52213802Y-48955700D01*
X52082477Y-49143251D01*
X52080154Y-49148233D01*
X52080151Y-49148238D01*
X51988039Y-49345775D01*
X51985716Y-49350757D01*
X51926457Y-49571913D01*
X51906502Y-49800000D01*
X51926457Y-50028087D01*
X51985716Y-50249243D01*
X51988039Y-50254224D01*
X51988039Y-50254225D01*
X52080151Y-50451762D01*
X52080154Y-50451767D01*
X52082477Y-50456749D01*
X52213802Y-50644300D01*
X52375700Y-50806198D01*
X52380208Y-50809355D01*
X52380211Y-50809357D01*
X52458389Y-50864098D01*
X52563251Y-50937523D01*
X52568233Y-50939846D01*
X52568238Y-50939849D01*
X52602457Y-50955805D01*
X52655742Y-51002722D01*
X52675203Y-51070999D01*
X52654661Y-51138959D01*
X52602457Y-51184195D01*
X52568238Y-51200151D01*
X52568233Y-51200154D01*
X52563251Y-51202477D01*
X52555528Y-51207885D01*
X52380211Y-51330643D01*
X52380208Y-51330645D01*
X52375700Y-51333802D01*
X52213802Y-51495700D01*
X52082477Y-51683251D01*
X52080154Y-51688233D01*
X52080151Y-51688238D01*
X52003385Y-51852866D01*
X51985716Y-51890757D01*
X51926457Y-52111913D01*
X51906502Y-52340000D01*
X51926457Y-52568087D01*
X51985716Y-52789243D01*
X51988039Y-52794224D01*
X51988039Y-52794225D01*
X52080151Y-52991762D01*
X52080154Y-52991767D01*
X52082477Y-52996749D01*
X52085634Y-53001257D01*
X52192341Y-53153650D01*
X52213802Y-53184300D01*
X52375700Y-53346198D01*
X52380208Y-53349355D01*
X52380211Y-53349357D01*
X52431693Y-53385405D01*
X52563251Y-53477523D01*
X52568233Y-53479846D01*
X52568238Y-53479849D01*
X52602457Y-53495805D01*
X52655742Y-53542722D01*
X52675203Y-53610999D01*
X52654661Y-53678959D01*
X52602457Y-53724195D01*
X52568238Y-53740151D01*
X52568233Y-53740154D01*
X52563251Y-53742477D01*
X52496695Y-53789080D01*
X52380211Y-53870643D01*
X52380208Y-53870645D01*
X52375700Y-53873802D01*
X52213802Y-54035700D01*
X52210645Y-54040208D01*
X52210643Y-54040211D01*
X52155902Y-54118389D01*
X52082477Y-54223251D01*
X52080154Y-54228233D01*
X52080151Y-54228238D01*
X51988039Y-54425775D01*
X51985716Y-54430757D01*
X51926457Y-54651913D01*
X51906502Y-54880000D01*
X51926457Y-55108087D01*
X51927881Y-55113400D01*
X51927881Y-55113402D01*
X51943416Y-55171377D01*
X51985716Y-55329243D01*
X51988039Y-55334224D01*
X51988039Y-55334225D01*
X52080151Y-55531762D01*
X52080154Y-55531767D01*
X52082477Y-55536749D01*
X52213802Y-55724300D01*
X52375700Y-55886198D01*
X52380208Y-55889355D01*
X52380211Y-55889357D01*
X52453667Y-55940791D01*
X52563251Y-56017523D01*
X52568233Y-56019846D01*
X52568238Y-56019849D01*
X52602457Y-56035805D01*
X52655742Y-56082722D01*
X52675203Y-56150999D01*
X52654661Y-56218959D01*
X52602457Y-56264195D01*
X52568238Y-56280151D01*
X52568233Y-56280154D01*
X52563251Y-56282477D01*
X52510493Y-56319419D01*
X52380211Y-56410643D01*
X52380208Y-56410645D01*
X52375700Y-56413802D01*
X52213802Y-56575700D01*
X52210645Y-56580208D01*
X52210643Y-56580211D01*
X52205326Y-56587805D01*
X52082477Y-56763251D01*
X52080154Y-56768233D01*
X52080151Y-56768238D01*
X51989938Y-56961703D01*
X51985716Y-56970757D01*
X51984294Y-56976065D01*
X51984293Y-56976067D01*
X51936272Y-57155283D01*
X51926457Y-57191913D01*
X51906502Y-57420000D01*
X48846234Y-57420000D01*
X48176855Y-56750621D01*
X48167753Y-56740478D01*
X48147897Y-56715782D01*
X48144032Y-56710975D01*
X48105578Y-56678708D01*
X48101931Y-56675528D01*
X48100119Y-56673885D01*
X48097925Y-56671691D01*
X48064651Y-56644358D01*
X48063853Y-56643696D01*
X47992526Y-56583846D01*
X47987856Y-56581278D01*
X47983739Y-56577897D01*
X47901914Y-56534023D01*
X47900755Y-56533394D01*
X47824619Y-56491538D01*
X47824611Y-56491535D01*
X47819213Y-56488567D01*
X47814131Y-56486955D01*
X47809437Y-56484438D01*
X47720469Y-56457238D01*
X47719441Y-56456918D01*
X47630694Y-56428765D01*
X47625398Y-56428171D01*
X47620302Y-56426613D01*
X47527743Y-56417210D01*
X47526607Y-56417089D01*
X47492992Y-56413319D01*
X47480270Y-56411892D01*
X47480266Y-56411892D01*
X47476773Y-56411500D01*
X47473246Y-56411500D01*
X47472261Y-56411445D01*
X47466581Y-56410998D01*
X47437175Y-56408011D01*
X47429663Y-56407248D01*
X47429661Y-56407248D01*
X47423538Y-56406626D01*
X47381259Y-56410623D01*
X47377891Y-56410941D01*
X47366033Y-56411500D01*
X47280740Y-56411500D01*
X47208469Y-56388713D01*
X47190850Y-56376376D01*
X47056749Y-56282477D01*
X47051767Y-56280154D01*
X47051762Y-56280151D01*
X47017543Y-56264195D01*
X46964258Y-56217278D01*
X46944797Y-56149001D01*
X46965339Y-56081041D01*
X47017543Y-56035805D01*
X47051762Y-56019849D01*
X47051767Y-56019846D01*
X47056749Y-56017523D01*
X47166333Y-55940791D01*
X47239789Y-55889357D01*
X47239792Y-55889355D01*
X47244300Y-55886198D01*
X47406198Y-55724300D01*
X47537523Y-55536749D01*
X47539846Y-55531767D01*
X47539849Y-55531762D01*
X47631961Y-55334225D01*
X47631961Y-55334224D01*
X47634284Y-55329243D01*
X47676585Y-55171377D01*
X47692119Y-55113402D01*
X47692119Y-55113400D01*
X47693543Y-55108087D01*
X47713498Y-54880000D01*
X47693543Y-54651913D01*
X47634284Y-54430757D01*
X47631961Y-54425775D01*
X47539849Y-54228238D01*
X47539846Y-54228233D01*
X47537523Y-54223251D01*
X47464098Y-54118389D01*
X47409357Y-54040211D01*
X47409355Y-54040208D01*
X47406198Y-54035700D01*
X47244300Y-53873802D01*
X47239792Y-53870645D01*
X47239789Y-53870643D01*
X47123305Y-53789080D01*
X47056749Y-53742477D01*
X47051767Y-53740154D01*
X47051762Y-53740151D01*
X47017543Y-53724195D01*
X46964258Y-53677278D01*
X46944797Y-53609001D01*
X46965339Y-53541041D01*
X47017543Y-53495805D01*
X47051762Y-53479849D01*
X47051767Y-53479846D01*
X47056749Y-53477523D01*
X47188307Y-53385405D01*
X47239789Y-53349357D01*
X47239792Y-53349355D01*
X47244300Y-53346198D01*
X47406198Y-53184300D01*
X47427660Y-53153650D01*
X47534366Y-53001257D01*
X47537523Y-52996749D01*
X47539846Y-52991767D01*
X47539849Y-52991762D01*
X47631961Y-52794225D01*
X47631961Y-52794224D01*
X47634284Y-52789243D01*
X47693543Y-52568087D01*
X47713498Y-52340000D01*
X47693543Y-52111913D01*
X47634284Y-51890757D01*
X47616615Y-51852866D01*
X47539849Y-51688238D01*
X47539846Y-51688233D01*
X47537523Y-51683251D01*
X47406198Y-51495700D01*
X47244300Y-51333802D01*
X47239792Y-51330645D01*
X47239789Y-51330643D01*
X47064472Y-51207885D01*
X47056749Y-51202477D01*
X47051767Y-51200154D01*
X47051762Y-51200151D01*
X47017543Y-51184195D01*
X46964258Y-51137278D01*
X46944797Y-51069001D01*
X46965339Y-51001041D01*
X47017543Y-50955805D01*
X47051762Y-50939849D01*
X47051767Y-50939846D01*
X47056749Y-50937523D01*
X47161611Y-50864098D01*
X47239789Y-50809357D01*
X47239792Y-50809355D01*
X47244300Y-50806198D01*
X47406198Y-50644300D01*
X47537523Y-50456749D01*
X47539846Y-50451767D01*
X47539849Y-50451762D01*
X47631961Y-50254225D01*
X47631961Y-50254224D01*
X47634284Y-50249243D01*
X47693543Y-50028087D01*
X47713498Y-49800000D01*
X47693543Y-49571913D01*
X47634284Y-49350757D01*
X47631961Y-49345775D01*
X47539849Y-49148238D01*
X47539846Y-49148233D01*
X47537523Y-49143251D01*
X47406198Y-48955700D01*
X47244300Y-48793802D01*
X47239792Y-48790645D01*
X47239789Y-48790643D01*
X47161611Y-48735902D01*
X47056749Y-48662477D01*
X47051767Y-48660154D01*
X47051762Y-48660151D01*
X47017543Y-48644195D01*
X46964258Y-48597278D01*
X46944797Y-48529001D01*
X46965339Y-48461041D01*
X47017543Y-48415805D01*
X47051762Y-48399849D01*
X47051767Y-48399846D01*
X47056749Y-48397523D01*
X47161611Y-48324098D01*
X47239789Y-48269357D01*
X47239792Y-48269355D01*
X47244300Y-48266198D01*
X47406198Y-48104300D01*
X47537523Y-47916749D01*
X47539846Y-47911767D01*
X47539849Y-47911762D01*
X47631961Y-47714225D01*
X47631961Y-47714224D01*
X47634284Y-47709243D01*
X47693543Y-47488087D01*
X47713498Y-47260000D01*
X47693543Y-47031913D01*
X47634284Y-46810757D01*
X47631961Y-46805775D01*
X47539849Y-46608238D01*
X47539846Y-46608233D01*
X47537523Y-46603251D01*
X47406198Y-46415700D01*
X47244300Y-46253802D01*
X47239792Y-46250645D01*
X47239789Y-46250643D01*
X47080937Y-46139414D01*
X47056749Y-46122477D01*
X47051767Y-46120154D01*
X47051762Y-46120151D01*
X47017543Y-46104195D01*
X46964258Y-46057278D01*
X46944797Y-45989001D01*
X46965339Y-45921041D01*
X47017543Y-45875805D01*
X47051762Y-45859849D01*
X47051767Y-45859846D01*
X47056749Y-45857523D01*
X47161611Y-45784098D01*
X47239789Y-45729357D01*
X47239792Y-45729355D01*
X47244300Y-45726198D01*
X47406198Y-45564300D01*
X47442155Y-45512949D01*
X47483394Y-45454053D01*
X47537523Y-45376749D01*
X47539846Y-45371767D01*
X47539849Y-45371762D01*
X47631961Y-45174225D01*
X47631961Y-45174224D01*
X47634284Y-45169243D01*
X47662424Y-45064226D01*
X47692119Y-44953402D01*
X47692119Y-44953400D01*
X47693543Y-44948087D01*
X47713498Y-44720000D01*
X47693543Y-44491913D01*
X47683244Y-44453478D01*
X47681911Y-44448503D01*
X51938606Y-44448503D01*
X51938942Y-44462599D01*
X51946884Y-44466000D01*
X53347885Y-44466000D01*
X53363124Y-44461525D01*
X53364329Y-44460135D01*
X53366000Y-44452452D01*
X53366000Y-44447885D01*
X53874000Y-44447885D01*
X53878475Y-44463124D01*
X53879865Y-44464329D01*
X53887548Y-44466000D01*
X55287967Y-44466000D01*
X55301498Y-44462027D01*
X55302727Y-44453478D01*
X55255236Y-44276239D01*
X55251490Y-44265947D01*
X55159414Y-44068489D01*
X55153931Y-44058993D01*
X55028972Y-43880533D01*
X55021916Y-43872125D01*
X54867875Y-43718084D01*
X54859467Y-43711028D01*
X54681007Y-43586069D01*
X54671511Y-43580586D01*
X54474053Y-43488510D01*
X54463761Y-43484764D01*
X54253312Y-43428375D01*
X54242519Y-43426472D01*
X54079830Y-43412238D01*
X54074365Y-43412000D01*
X53892115Y-43412000D01*
X53876876Y-43416475D01*
X53875671Y-43417865D01*
X53874000Y-43425548D01*
X53874000Y-44447885D01*
X53366000Y-44447885D01*
X53366000Y-43430115D01*
X53361525Y-43414876D01*
X53360135Y-43413671D01*
X53352452Y-43412000D01*
X53165635Y-43412000D01*
X53160170Y-43412238D01*
X52997481Y-43426472D01*
X52986688Y-43428375D01*
X52776239Y-43484764D01*
X52765947Y-43488510D01*
X52568489Y-43580586D01*
X52558993Y-43586069D01*
X52380533Y-43711028D01*
X52372125Y-43718084D01*
X52218084Y-43872125D01*
X52211028Y-43880533D01*
X52086069Y-44058993D01*
X52080586Y-44068489D01*
X51988510Y-44265947D01*
X51984764Y-44276239D01*
X51938606Y-44448503D01*
X47681911Y-44448503D01*
X47635707Y-44276067D01*
X47635706Y-44276065D01*
X47634284Y-44270757D01*
X47631961Y-44265775D01*
X47539849Y-44068238D01*
X47539846Y-44068233D01*
X47537523Y-44063251D01*
X47447343Y-43934461D01*
X47409357Y-43880211D01*
X47409355Y-43880208D01*
X47406198Y-43875700D01*
X47244300Y-43713802D01*
X47239792Y-43710645D01*
X47239789Y-43710643D01*
X47161611Y-43655902D01*
X47056749Y-43582477D01*
X47051767Y-43580154D01*
X47051762Y-43580151D01*
X46854225Y-43488039D01*
X46854224Y-43488039D01*
X46849243Y-43485716D01*
X46843935Y-43484294D01*
X46843933Y-43484293D01*
X46633402Y-43427881D01*
X46633400Y-43427881D01*
X46628087Y-43426457D01*
X46528520Y-43417746D01*
X46459851Y-43411738D01*
X46459844Y-43411738D01*
X46457127Y-43411500D01*
X45542873Y-43411500D01*
X45540156Y-43411738D01*
X45540149Y-43411738D01*
X45471480Y-43417746D01*
X45371913Y-43426457D01*
X45366600Y-43427881D01*
X45366598Y-43427881D01*
X45156067Y-43484293D01*
X45156065Y-43484294D01*
X45150757Y-43485716D01*
X45145776Y-43488039D01*
X45145775Y-43488039D01*
X44948238Y-43580151D01*
X44948233Y-43580154D01*
X44943251Y-43582477D01*
X44838389Y-43655902D01*
X44760211Y-43710643D01*
X44760208Y-43710645D01*
X44755700Y-43713802D01*
X44593802Y-43875700D01*
X44590645Y-43880208D01*
X44590643Y-43880211D01*
X44552657Y-43934461D01*
X44462477Y-44063251D01*
X44460154Y-44068233D01*
X44460151Y-44068238D01*
X44368039Y-44265775D01*
X44365716Y-44270757D01*
X44364294Y-44276065D01*
X44364293Y-44276067D01*
X44316756Y-44453478D01*
X44306457Y-44491913D01*
X44286502Y-44720000D01*
X44306457Y-44948087D01*
X44307881Y-44953400D01*
X44307881Y-44953402D01*
X44337577Y-45064226D01*
X44365716Y-45169243D01*
X44368039Y-45174224D01*
X44368039Y-45174225D01*
X44460151Y-45371762D01*
X44460154Y-45371767D01*
X44462477Y-45376749D01*
X44516606Y-45454053D01*
X44557846Y-45512949D01*
X44593802Y-45564300D01*
X44755700Y-45726198D01*
X44760208Y-45729355D01*
X44760211Y-45729357D01*
X44838389Y-45784098D01*
X44943251Y-45857523D01*
X44948233Y-45859846D01*
X44948238Y-45859849D01*
X44982457Y-45875805D01*
X45035742Y-45922722D01*
X45055203Y-45990999D01*
X45034661Y-46058959D01*
X44982457Y-46104195D01*
X44948238Y-46120151D01*
X44948233Y-46120154D01*
X44943251Y-46122477D01*
X44919063Y-46139414D01*
X44760211Y-46250643D01*
X44760208Y-46250645D01*
X44755700Y-46253802D01*
X44593802Y-46415700D01*
X44462477Y-46603251D01*
X44460154Y-46608233D01*
X44460151Y-46608238D01*
X44368039Y-46805775D01*
X44365716Y-46810757D01*
X44306457Y-47031913D01*
X44286502Y-47260000D01*
X44306457Y-47488087D01*
X44365716Y-47709243D01*
X44368039Y-47714224D01*
X44368039Y-47714225D01*
X44460151Y-47911762D01*
X44460154Y-47911767D01*
X44462477Y-47916749D01*
X44593802Y-48104300D01*
X44755700Y-48266198D01*
X44760208Y-48269355D01*
X44760211Y-48269357D01*
X44838389Y-48324098D01*
X44943251Y-48397523D01*
X44948233Y-48399846D01*
X44948238Y-48399849D01*
X44982457Y-48415805D01*
X45035742Y-48462722D01*
X45055203Y-48530999D01*
X45034661Y-48598959D01*
X44982457Y-48644195D01*
X44948238Y-48660151D01*
X44948233Y-48660154D01*
X44943251Y-48662477D01*
X44838389Y-48735902D01*
X44760211Y-48790643D01*
X44760208Y-48790645D01*
X44755700Y-48793802D01*
X44593802Y-48955700D01*
X44462477Y-49143251D01*
X44460154Y-49148233D01*
X44460151Y-49148238D01*
X44368039Y-49345775D01*
X44365716Y-49350757D01*
X44306457Y-49571913D01*
X44286502Y-49800000D01*
X44306457Y-50028087D01*
X44365716Y-50249243D01*
X44368039Y-50254224D01*
X44368039Y-50254225D01*
X44460151Y-50451762D01*
X44460154Y-50451767D01*
X44462477Y-50456749D01*
X44593802Y-50644300D01*
X44755700Y-50806198D01*
X44760208Y-50809355D01*
X44760211Y-50809357D01*
X44838389Y-50864098D01*
X44943251Y-50937523D01*
X44948233Y-50939846D01*
X44948238Y-50939849D01*
X44982457Y-50955805D01*
X45035742Y-51002722D01*
X45055203Y-51070999D01*
X45034661Y-51138959D01*
X44982457Y-51184195D01*
X44948238Y-51200151D01*
X44948233Y-51200154D01*
X44943251Y-51202477D01*
X44935528Y-51207885D01*
X44791531Y-51308713D01*
X44719260Y-51331500D01*
X43721842Y-51331500D01*
X43708235Y-51330763D01*
X43676737Y-51327341D01*
X43676732Y-51327341D01*
X43670611Y-51326676D01*
X43652611Y-51328251D01*
X43620609Y-51331050D01*
X43615784Y-51331379D01*
X43613313Y-51331500D01*
X43610231Y-51331500D01*
X43587763Y-51333703D01*
X43567489Y-51335691D01*
X43566174Y-51335813D01*
X43533913Y-51338636D01*
X43473587Y-51343913D01*
X43468468Y-51345400D01*
X43463167Y-51345920D01*
X43374166Y-51372791D01*
X43373033Y-51373126D01*
X43289586Y-51397370D01*
X43289582Y-51397372D01*
X43283664Y-51399091D01*
X43278932Y-51401544D01*
X43273831Y-51403084D01*
X43268388Y-51405978D01*
X43191740Y-51446731D01*
X43190574Y-51447343D01*
X43113547Y-51487271D01*
X43108074Y-51490108D01*
X43103911Y-51493431D01*
X43099204Y-51495934D01*
X43027082Y-51554755D01*
X43026226Y-51555446D01*
X42987027Y-51586738D01*
X42984523Y-51589242D01*
X42983805Y-51589884D01*
X42979472Y-51593585D01*
X42945938Y-51620935D01*
X42942011Y-51625682D01*
X42942009Y-51625684D01*
X42916713Y-51656262D01*
X42908723Y-51665042D01*
X40994171Y-53579595D01*
X40931859Y-53613620D01*
X40905076Y-53616500D01*
X40549600Y-53616500D01*
X40546354Y-53616837D01*
X40546350Y-53616837D01*
X40450692Y-53626762D01*
X40450688Y-53626763D01*
X40443834Y-53627474D01*
X40437298Y-53629655D01*
X40437296Y-53629655D01*
X40389156Y-53645716D01*
X40276054Y-53683450D01*
X40125652Y-53776522D01*
X40000695Y-53901697D01*
X39907885Y-54052262D01*
X39852203Y-54220139D01*
X39841500Y-54324600D01*
X39841500Y-55675400D01*
X39841837Y-55678646D01*
X39841837Y-55678650D01*
X39846574Y-55724300D01*
X39852474Y-55781166D01*
X39854655Y-55787702D01*
X39854655Y-55787704D01*
X39888569Y-55889357D01*
X39908450Y-55948946D01*
X40001522Y-56099348D01*
X40126697Y-56224305D01*
X40132927Y-56228145D01*
X40132928Y-56228146D01*
X40270090Y-56312694D01*
X40277262Y-56317115D01*
X40357005Y-56343564D01*
X40438611Y-56370632D01*
X40438613Y-56370632D01*
X40445139Y-56372797D01*
X40451975Y-56373497D01*
X40451978Y-56373498D01*
X40495031Y-56377909D01*
X40549600Y-56383500D01*
X41450400Y-56383500D01*
X41453646Y-56383163D01*
X41453650Y-56383163D01*
X41549308Y-56373238D01*
X41549312Y-56373237D01*
X41556166Y-56372526D01*
X41562702Y-56370345D01*
X41562704Y-56370345D01*
X41694806Y-56326272D01*
X41723946Y-56316550D01*
X41874348Y-56223478D01*
X41999305Y-56098303D01*
X42008909Y-56082722D01*
X42088275Y-55953968D01*
X42088276Y-55953966D01*
X42092115Y-55947738D01*
X42118564Y-55867995D01*
X42145632Y-55786389D01*
X42145632Y-55786387D01*
X42147797Y-55779861D01*
X42158500Y-55675400D01*
X42158500Y-55319925D01*
X42178502Y-55251804D01*
X42195405Y-55230830D01*
X44040829Y-53385405D01*
X44103141Y-53351380D01*
X44129924Y-53348500D01*
X44719260Y-53348500D01*
X44791531Y-53371287D01*
X44943251Y-53477523D01*
X44948233Y-53479846D01*
X44948238Y-53479849D01*
X44982457Y-53495805D01*
X45035742Y-53542722D01*
X45055203Y-53610999D01*
X45034661Y-53678959D01*
X44982457Y-53724195D01*
X44948238Y-53740151D01*
X44948233Y-53740154D01*
X44943251Y-53742477D01*
X44876695Y-53789080D01*
X44760211Y-53870643D01*
X44760208Y-53870645D01*
X44755700Y-53873802D01*
X44593802Y-54035700D01*
X44590645Y-54040208D01*
X44590643Y-54040211D01*
X44535902Y-54118389D01*
X44462477Y-54223251D01*
X44460154Y-54228233D01*
X44460151Y-54228238D01*
X44368039Y-54425775D01*
X44365716Y-54430757D01*
X44306457Y-54651913D01*
X44286502Y-54880000D01*
X44306457Y-55108087D01*
X44307881Y-55113400D01*
X44307881Y-55113402D01*
X44323416Y-55171377D01*
X44365716Y-55329243D01*
X44368039Y-55334224D01*
X44368039Y-55334225D01*
X44460151Y-55531762D01*
X44460154Y-55531767D01*
X44462477Y-55536749D01*
X44593802Y-55724300D01*
X44755700Y-55886198D01*
X44760208Y-55889355D01*
X44760211Y-55889357D01*
X44833667Y-55940791D01*
X44943251Y-56017523D01*
X44948233Y-56019846D01*
X44948238Y-56019849D01*
X44982457Y-56035805D01*
X45035742Y-56082722D01*
X45055203Y-56150999D01*
X45034661Y-56218959D01*
X44982457Y-56264195D01*
X44948238Y-56280151D01*
X44948233Y-56280154D01*
X44943251Y-56282477D01*
X44809150Y-56376376D01*
X44791531Y-56388713D01*
X44719260Y-56411500D01*
X43641843Y-56411500D01*
X43628236Y-56410763D01*
X43596738Y-56407341D01*
X43596733Y-56407341D01*
X43590612Y-56406676D01*
X43564362Y-56408973D01*
X43540612Y-56411050D01*
X43535786Y-56411379D01*
X43533314Y-56411500D01*
X43530231Y-56411500D01*
X43518262Y-56412674D01*
X43487494Y-56415690D01*
X43486181Y-56415812D01*
X43441916Y-56419685D01*
X43393587Y-56423913D01*
X43388468Y-56425400D01*
X43383167Y-56425920D01*
X43294166Y-56452791D01*
X43293033Y-56453126D01*
X43209586Y-56477370D01*
X43209582Y-56477372D01*
X43203664Y-56479091D01*
X43198932Y-56481544D01*
X43193831Y-56483084D01*
X43188388Y-56485978D01*
X43111740Y-56526731D01*
X43110574Y-56527343D01*
X43033547Y-56567271D01*
X43028074Y-56570108D01*
X43023911Y-56573431D01*
X43019204Y-56575934D01*
X42947082Y-56634755D01*
X42946226Y-56635446D01*
X42907027Y-56666738D01*
X42904523Y-56669242D01*
X42903805Y-56669884D01*
X42899472Y-56673585D01*
X42865938Y-56700935D01*
X42862011Y-56705682D01*
X42862009Y-56705684D01*
X42836713Y-56736262D01*
X42828723Y-56745042D01*
X41898204Y-57675562D01*
X40994171Y-58579595D01*
X40931859Y-58613620D01*
X40905076Y-58616500D01*
X40549600Y-58616500D01*
X40546354Y-58616837D01*
X40546350Y-58616837D01*
X40450692Y-58626762D01*
X40450688Y-58626763D01*
X40443834Y-58627474D01*
X40437298Y-58629655D01*
X40437296Y-58629655D01*
X40338516Y-58662611D01*
X40276054Y-58683450D01*
X40125652Y-58776522D01*
X40000695Y-58901697D01*
X39996855Y-58907927D01*
X39996854Y-58907928D01*
X39923485Y-59026955D01*
X39907885Y-59052262D01*
X39852203Y-59220139D01*
X39851503Y-59226975D01*
X39851502Y-59226978D01*
X39848843Y-59252929D01*
X39841500Y-59324600D01*
X39841500Y-60675400D01*
X39058500Y-60675400D01*
X39058500Y-59324600D01*
X39057966Y-59319450D01*
X39048238Y-59225692D01*
X39048237Y-59225688D01*
X39047526Y-59218834D01*
X38991550Y-59051054D01*
X38898478Y-58900652D01*
X38773303Y-58775695D01*
X38746600Y-58759235D01*
X38628968Y-58686725D01*
X38628966Y-58686724D01*
X38622738Y-58682885D01*
X38462254Y-58629655D01*
X38461389Y-58629368D01*
X38461387Y-58629368D01*
X38454861Y-58627203D01*
X38448025Y-58626503D01*
X38448022Y-58626502D01*
X38404969Y-58622091D01*
X38350400Y-58616500D01*
X37449600Y-58616500D01*
X37446354Y-58616837D01*
X37446350Y-58616837D01*
X37350692Y-58626762D01*
X37350688Y-58626763D01*
X37343834Y-58627474D01*
X37337298Y-58629655D01*
X37337296Y-58629655D01*
X37238516Y-58662611D01*
X37176054Y-58683450D01*
X37025652Y-58776522D01*
X36900695Y-58901697D01*
X36896855Y-58907927D01*
X36882251Y-58931618D01*
X36829478Y-58979110D01*
X36774992Y-58991500D01*
X34582701Y-58991500D01*
X34514580Y-58971498D01*
X34502810Y-58962934D01*
X34489344Y-58951892D01*
X34437232Y-58909163D01*
X34401373Y-58879760D01*
X34401367Y-58879756D01*
X34397245Y-58876376D01*
X34365750Y-58858448D01*
X34316445Y-58807368D01*
X34302583Y-58737738D01*
X34328566Y-58671667D01*
X34357716Y-58644427D01*
X34388616Y-58623624D01*
X34479319Y-58562559D01*
X34487908Y-58554366D01*
X34586180Y-58460618D01*
X34646135Y-58403424D01*
X34678005Y-58360590D01*
X34780568Y-58222740D01*
X34783754Y-58218458D01*
X34786513Y-58213033D01*
X34885822Y-58017704D01*
X34888240Y-58012949D01*
X34891314Y-58003051D01*
X34955024Y-57797871D01*
X34956607Y-57792773D01*
X34961625Y-57754912D01*
X34986198Y-57569511D01*
X34986198Y-57569506D01*
X34986898Y-57564226D01*
X34978249Y-57333842D01*
X34930907Y-57108209D01*
X34881181Y-56982296D01*
X34848185Y-56898744D01*
X34848184Y-56898742D01*
X34846224Y-56893779D01*
X34726623Y-56696683D01*
X34639755Y-56596576D01*
X34579023Y-56526588D01*
X34579021Y-56526586D01*
X34575523Y-56522555D01*
X34495921Y-56457285D01*
X34401373Y-56379760D01*
X34401367Y-56379756D01*
X34397245Y-56376376D01*
X34365750Y-56358448D01*
X34316445Y-56307368D01*
X34302583Y-56237738D01*
X34328566Y-56171667D01*
X34357716Y-56144427D01*
X34474889Y-56065542D01*
X34474893Y-56065539D01*
X34479319Y-56062559D01*
X34499475Y-56043331D01*
X34562571Y-56010783D01*
X34586447Y-56008500D01*
X36775101Y-56008500D01*
X36843222Y-56028502D01*
X36882245Y-56068197D01*
X36901522Y-56099348D01*
X37026697Y-56224305D01*
X37032927Y-56228145D01*
X37032928Y-56228146D01*
X37170090Y-56312694D01*
X37177262Y-56317115D01*
X37257005Y-56343564D01*
X37338611Y-56370632D01*
X37338613Y-56370632D01*
X37345139Y-56372797D01*
X37351975Y-56373497D01*
X37351978Y-56373498D01*
X37395031Y-56377909D01*
X37449600Y-56383500D01*
X38350400Y-56383500D01*
X38353646Y-56383163D01*
X38353650Y-56383163D01*
X38449308Y-56373238D01*
X38449312Y-56373237D01*
X38456166Y-56372526D01*
X38462702Y-56370345D01*
X38462704Y-56370345D01*
X38594806Y-56326272D01*
X38623946Y-56316550D01*
X38774348Y-56223478D01*
X38899305Y-56098303D01*
X38908909Y-56082722D01*
X38988275Y-55953968D01*
X38988276Y-55953966D01*
X38992115Y-55947738D01*
X39018564Y-55867995D01*
X39045632Y-55786389D01*
X39045632Y-55786387D01*
X39047797Y-55779861D01*
X39058500Y-55675400D01*
X39058500Y-54324600D01*
X39054526Y-54286297D01*
X39048238Y-54225692D01*
X39048237Y-54225688D01*
X39047526Y-54218834D01*
X38991550Y-54051054D01*
X38898478Y-53900652D01*
X38773303Y-53775695D01*
X38745174Y-53758356D01*
X38628968Y-53686725D01*
X38628966Y-53686724D01*
X38622738Y-53682885D01*
X38542995Y-53656436D01*
X38461389Y-53629368D01*
X38461387Y-53629368D01*
X38454861Y-53627203D01*
X38448025Y-53626503D01*
X38448022Y-53626502D01*
X38404969Y-53622091D01*
X38350400Y-53616500D01*
X37449600Y-53616500D01*
X37446354Y-53616837D01*
X37446350Y-53616837D01*
X37350692Y-53626762D01*
X37350688Y-53626763D01*
X37343834Y-53627474D01*
X37337298Y-53629655D01*
X37337296Y-53629655D01*
X37289156Y-53645716D01*
X37176054Y-53683450D01*
X37025652Y-53776522D01*
X36900695Y-53901697D01*
X36896855Y-53907927D01*
X36882251Y-53931618D01*
X36829478Y-53979110D01*
X36774992Y-53991500D01*
X34668890Y-53991500D01*
X34600769Y-53971498D01*
X34554276Y-53917842D01*
X34544172Y-53847568D01*
X34573666Y-53782988D01*
X34602587Y-53758356D01*
X34693120Y-53702332D01*
X34699348Y-53698478D01*
X34824305Y-53573303D01*
X34828146Y-53567072D01*
X34913275Y-53428968D01*
X34913276Y-53428966D01*
X34917115Y-53422738D01*
X34972797Y-53254861D01*
X34983500Y-53150400D01*
X34983500Y-51849600D01*
X34972526Y-51743834D01*
X34916550Y-51576054D01*
X34823478Y-51425652D01*
X34799646Y-51401861D01*
X34703483Y-51305866D01*
X34698303Y-51300695D01*
X34692072Y-51296854D01*
X34553968Y-51211725D01*
X34553966Y-51211724D01*
X34547738Y-51207885D01*
X34387254Y-51154655D01*
X34386389Y-51154368D01*
X34386387Y-51154368D01*
X34379861Y-51152203D01*
X34373025Y-51151503D01*
X34373022Y-51151502D01*
X34329969Y-51147091D01*
X34275400Y-51141500D01*
X32724600Y-51141500D01*
X32721354Y-51141837D01*
X32721350Y-51141837D01*
X32625692Y-51151762D01*
X32625688Y-51151763D01*
X32618834Y-51152474D01*
X32612298Y-51154655D01*
X32612296Y-51154655D01*
X32523755Y-51184195D01*
X32451054Y-51208450D01*
X32300652Y-51301522D01*
X32295479Y-51306704D01*
X32266479Y-51335755D01*
X32175695Y-51426697D01*
X32171855Y-51432927D01*
X32171854Y-51432928D01*
X32096547Y-51555099D01*
X32082885Y-51577262D01*
X32027203Y-51745139D01*
X32016500Y-51849600D01*
X32016500Y-53150400D01*
X32016837Y-53153646D01*
X32016837Y-53153650D01*
X32020422Y-53188197D01*
X32027474Y-53256166D01*
X32029655Y-53262702D01*
X32029655Y-53262704D01*
X32070592Y-53385405D01*
X32083450Y-53423946D01*
X32176522Y-53574348D01*
X32301697Y-53699305D01*
X32447340Y-53789081D01*
X32494832Y-53841852D01*
X32506256Y-53911924D01*
X32477982Y-53977048D01*
X32468195Y-53987510D01*
X32421764Y-54031803D01*
X32353865Y-54096576D01*
X32216246Y-54281542D01*
X32213830Y-54286293D01*
X32213828Y-54286297D01*
X32164003Y-54384296D01*
X32111760Y-54487051D01*
X32043393Y-54707227D01*
X32042692Y-54712516D01*
X32021220Y-54874525D01*
X32013102Y-54935774D01*
X32021751Y-55166158D01*
X32069093Y-55391791D01*
X32071051Y-55396750D01*
X32071052Y-55396752D01*
X32124371Y-55531762D01*
X32153776Y-55606221D01*
X32156543Y-55610780D01*
X32156544Y-55610783D01*
X32197727Y-55678650D01*
X32273377Y-55803317D01*
X32276874Y-55807347D01*
X32404105Y-55953968D01*
X32424477Y-55977445D01*
X32428608Y-55980832D01*
X32598627Y-56120240D01*
X32598633Y-56120244D01*
X32602755Y-56123624D01*
X32634250Y-56141552D01*
X32683555Y-56192632D01*
X32697417Y-56262262D01*
X32671434Y-56328333D01*
X32642284Y-56355573D01*
X32520681Y-56437441D01*
X32516824Y-56441120D01*
X32516822Y-56441122D01*
X32471292Y-56484556D01*
X32353865Y-56596576D01*
X32216246Y-56781542D01*
X32111760Y-56987051D01*
X32110178Y-56992145D01*
X32110177Y-56992148D01*
X32061638Y-57148469D01*
X32043393Y-57207227D01*
X32042692Y-57212516D01*
X32015193Y-57420000D01*
X32013102Y-57435774D01*
X32021751Y-57666158D01*
X32069093Y-57891791D01*
X32071051Y-57896750D01*
X32071052Y-57896752D01*
X32105656Y-57984373D01*
X32153776Y-58106221D01*
X32156543Y-58110780D01*
X32156544Y-58110783D01*
X32194066Y-58172617D01*
X32273377Y-58303317D01*
X32276874Y-58307347D01*
X32404179Y-58454053D01*
X32424477Y-58477445D01*
X32428608Y-58480832D01*
X32598627Y-58620240D01*
X32598633Y-58620244D01*
X32602755Y-58623624D01*
X32634250Y-58641552D01*
X32683555Y-58692632D01*
X32697417Y-58762262D01*
X32671434Y-58828333D01*
X32642284Y-58855573D01*
X32520681Y-58937441D01*
X32516824Y-58941120D01*
X32516822Y-58941122D01*
X32490101Y-58966613D01*
X32353865Y-59096576D01*
X32216246Y-59281542D01*
X32213830Y-59286293D01*
X32213828Y-59286297D01*
X32183776Y-59345405D01*
X32111760Y-59487051D01*
X32110178Y-59492145D01*
X32110177Y-59492148D01*
X32070782Y-59619020D01*
X32043393Y-59707227D01*
X32042692Y-59712516D01*
X32020032Y-59883489D01*
X32013102Y-59935774D01*
X21000000Y-59935774D01*
X21000000Y-44935774D01*
X32013102Y-44935774D01*
X32013302Y-44941103D01*
X32013302Y-44941105D01*
X32015194Y-44991497D01*
X32021751Y-45166158D01*
X32022846Y-45171377D01*
X32023444Y-45174225D01*
X32069093Y-45391791D01*
X32071051Y-45396750D01*
X32071052Y-45396752D01*
X32138760Y-45568197D01*
X32153776Y-45606221D01*
X32156543Y-45610780D01*
X32156544Y-45610783D01*
X32221883Y-45718458D01*
X32273377Y-45803317D01*
X32276874Y-45807347D01*
X32366226Y-45910316D01*
X32424477Y-45977445D01*
X32428608Y-45980832D01*
X32598627Y-46120240D01*
X32598633Y-46120244D01*
X32602755Y-46123624D01*
X32607391Y-46126263D01*
X32607394Y-46126265D01*
X32672387Y-46163261D01*
X32803114Y-46237675D01*
X33019825Y-46316337D01*
X33025074Y-46317286D01*
X33025077Y-46317287D01*
X33242608Y-46356623D01*
X33242615Y-46356624D01*
X33246692Y-46357361D01*
X33264414Y-46358197D01*
X33269356Y-46358430D01*
X33269363Y-46358430D01*
X33270844Y-46358500D01*
X33682890Y-46358500D01*
X33749809Y-46352822D01*
X33849409Y-46344371D01*
X33849413Y-46344370D01*
X33854720Y-46343920D01*
X33859875Y-46342582D01*
X33859881Y-46342581D01*
X34072703Y-46287343D01*
X34072707Y-46287342D01*
X34077872Y-46286001D01*
X34082738Y-46283809D01*
X34082741Y-46283808D01*
X34283202Y-46193507D01*
X34288075Y-46191312D01*
X34479319Y-46062559D01*
X34485145Y-46057002D01*
X34572769Y-45973412D01*
X34646135Y-45903424D01*
X34783754Y-45718458D01*
X34786931Y-45712211D01*
X34843342Y-45601256D01*
X34888240Y-45512949D01*
X34924321Y-45396752D01*
X34955024Y-45297871D01*
X34956607Y-45292773D01*
X34972342Y-45174053D01*
X34986198Y-45069511D01*
X34986198Y-45069506D01*
X34986898Y-45064226D01*
X34984847Y-45009580D01*
X34978449Y-44839173D01*
X34978249Y-44833842D01*
X34930907Y-44608209D01*
X34910383Y-44556239D01*
X34848185Y-44398744D01*
X34848184Y-44398742D01*
X34846224Y-44393779D01*
X34818742Y-44348489D01*
X34729390Y-44201243D01*
X34726623Y-44196683D01*
X34643467Y-44100854D01*
X34579023Y-44026588D01*
X34579021Y-44026586D01*
X34575523Y-44022555D01*
X34501309Y-43961703D01*
X34401373Y-43879760D01*
X34401367Y-43879756D01*
X34397245Y-43876376D01*
X34365750Y-43858448D01*
X34316445Y-43807368D01*
X34302583Y-43737738D01*
X34328566Y-43671667D01*
X34357716Y-43644427D01*
X34474889Y-43565542D01*
X34474893Y-43565539D01*
X34479319Y-43562559D01*
X34499475Y-43543331D01*
X34562571Y-43510783D01*
X34586447Y-43508500D01*
X36775101Y-43508500D01*
X36843222Y-43528502D01*
X36882245Y-43568197D01*
X36901522Y-43599348D01*
X37026697Y-43724305D01*
X37032927Y-43728145D01*
X37032928Y-43728146D01*
X37170288Y-43812816D01*
X37177262Y-43817115D01*
X37220204Y-43831358D01*
X37338611Y-43870632D01*
X37338613Y-43870632D01*
X37345139Y-43872797D01*
X37351975Y-43873497D01*
X37351978Y-43873498D01*
X37395031Y-43877909D01*
X37449600Y-43883500D01*
X38350400Y-43883500D01*
X38353646Y-43883163D01*
X38353650Y-43883163D01*
X38449308Y-43873238D01*
X38449312Y-43873237D01*
X38456166Y-43872526D01*
X38462702Y-43870345D01*
X38462704Y-43870345D01*
X38594806Y-43826272D01*
X38623946Y-43816550D01*
X38774348Y-43723478D01*
X38899305Y-43598303D01*
X38923611Y-43558872D01*
X38988275Y-43453968D01*
X38988276Y-43453966D01*
X38992115Y-43447738D01*
X39036352Y-43314366D01*
X39045632Y-43286389D01*
X39045632Y-43286387D01*
X39047797Y-43279861D01*
X39058500Y-43175400D01*
X39058500Y-43172095D01*
X39842001Y-43172095D01*
X39842338Y-43178614D01*
X39852257Y-43274206D01*
X39855149Y-43287600D01*
X39906588Y-43441784D01*
X39912761Y-43454962D01*
X39998063Y-43592807D01*
X40007099Y-43604208D01*
X40121829Y-43718739D01*
X40133240Y-43727751D01*
X40271243Y-43812816D01*
X40284424Y-43818963D01*
X40438710Y-43870138D01*
X40452086Y-43873005D01*
X40546438Y-43882672D01*
X40552854Y-43883000D01*
X40727885Y-43883000D01*
X40743124Y-43878525D01*
X40744329Y-43877135D01*
X40746000Y-43869452D01*
X40746000Y-43864884D01*
X41254000Y-43864884D01*
X41258475Y-43880123D01*
X41259865Y-43881328D01*
X41267548Y-43882999D01*
X41447095Y-43882999D01*
X41453614Y-43882662D01*
X41549206Y-43872743D01*
X41562600Y-43869851D01*
X41716784Y-43818412D01*
X41729962Y-43812239D01*
X41867807Y-43726937D01*
X41879208Y-43717901D01*
X41993739Y-43603171D01*
X42002751Y-43591760D01*
X42087816Y-43453757D01*
X42093963Y-43440576D01*
X42145138Y-43286290D01*
X42148005Y-43272914D01*
X42157672Y-43178562D01*
X42158000Y-43172146D01*
X42158000Y-42772115D01*
X42153525Y-42756876D01*
X42152135Y-42755671D01*
X42144452Y-42754000D01*
X41272115Y-42754000D01*
X41256876Y-42758475D01*
X41255671Y-42759865D01*
X41254000Y-42767548D01*
X41254000Y-43864884D01*
X40746000Y-43864884D01*
X40746000Y-42772115D01*
X40741525Y-42756876D01*
X40740135Y-42755671D01*
X40732452Y-42754000D01*
X39860116Y-42754000D01*
X39844877Y-42758475D01*
X39843672Y-42759865D01*
X39842001Y-42767548D01*
X39842001Y-43172095D01*
X39058500Y-43172095D01*
X39058500Y-42227885D01*
X39842000Y-42227885D01*
X39846475Y-42243124D01*
X39847865Y-42244329D01*
X39855548Y-42246000D01*
X40727885Y-42246000D01*
X40743124Y-42241525D01*
X40744329Y-42240135D01*
X40746000Y-42232452D01*
X40746000Y-42227885D01*
X41254000Y-42227885D01*
X41258475Y-42243124D01*
X41259865Y-42244329D01*
X41267548Y-42246000D01*
X42139884Y-42246000D01*
X42155123Y-42241525D01*
X42156328Y-42240135D01*
X42157999Y-42232452D01*
X42157999Y-41827905D01*
X42157662Y-41821386D01*
X42147743Y-41725794D01*
X42144851Y-41712400D01*
X42093412Y-41558216D01*
X42087239Y-41545038D01*
X42001937Y-41407193D01*
X41992901Y-41395792D01*
X41878171Y-41281261D01*
X41866760Y-41272249D01*
X41728757Y-41187184D01*
X41715576Y-41181037D01*
X41561290Y-41129862D01*
X41547914Y-41126995D01*
X41453562Y-41117328D01*
X41447145Y-41117000D01*
X41272115Y-41117000D01*
X41256876Y-41121475D01*
X41255671Y-41122865D01*
X41254000Y-41130548D01*
X41254000Y-42227885D01*
X40746000Y-42227885D01*
X40746000Y-41135116D01*
X40741525Y-41119877D01*
X40740135Y-41118672D01*
X40732452Y-41117001D01*
X40552905Y-41117001D01*
X40546386Y-41117338D01*
X40450794Y-41127257D01*
X40437400Y-41130149D01*
X40283216Y-41181588D01*
X40270038Y-41187761D01*
X40132193Y-41273063D01*
X40120792Y-41282099D01*
X40006261Y-41396829D01*
X39997249Y-41408240D01*
X39912184Y-41546243D01*
X39906037Y-41559424D01*
X39854862Y-41713710D01*
X39851995Y-41727086D01*
X39842328Y-41821438D01*
X39842000Y-41827855D01*
X39842000Y-42227885D01*
X39058500Y-42227885D01*
X39058500Y-41824600D01*
X39054526Y-41786297D01*
X39048238Y-41725692D01*
X39048237Y-41725688D01*
X39047526Y-41718834D01*
X38991550Y-41551054D01*
X38898478Y-41400652D01*
X38773303Y-41275695D01*
X38745174Y-41258356D01*
X38628968Y-41186725D01*
X38628966Y-41186724D01*
X38622738Y-41182885D01*
X38542995Y-41156436D01*
X38461389Y-41129368D01*
X38461387Y-41129368D01*
X38454861Y-41127203D01*
X38448025Y-41126503D01*
X38448022Y-41126502D01*
X38404969Y-41122091D01*
X38350400Y-41116500D01*
X37449600Y-41116500D01*
X37446354Y-41116837D01*
X37446350Y-41116837D01*
X37350692Y-41126762D01*
X37350688Y-41126763D01*
X37343834Y-41127474D01*
X37337298Y-41129655D01*
X37337296Y-41129655D01*
X37320928Y-41135116D01*
X37176054Y-41183450D01*
X37025652Y-41276522D01*
X36900695Y-41401697D01*
X36896855Y-41407927D01*
X36882251Y-41431618D01*
X36829478Y-41479110D01*
X36774992Y-41491500D01*
X34668890Y-41491500D01*
X34600769Y-41471498D01*
X34554276Y-41417842D01*
X34544172Y-41347568D01*
X34573666Y-41282988D01*
X34602587Y-41258356D01*
X34693120Y-41202332D01*
X34699348Y-41198478D01*
X34824305Y-41073303D01*
X34828146Y-41067072D01*
X34913275Y-40928968D01*
X34913276Y-40928966D01*
X34917115Y-40922738D01*
X34964509Y-40779849D01*
X34970632Y-40761389D01*
X34970632Y-40761387D01*
X34972797Y-40754861D01*
X34983500Y-40650400D01*
X34983500Y-39349600D01*
X34972526Y-39243834D01*
X34916550Y-39076054D01*
X34823478Y-38925652D01*
X34698303Y-38800695D01*
X34683878Y-38791803D01*
X34553968Y-38711725D01*
X34553966Y-38711724D01*
X34547738Y-38707885D01*
X34387254Y-38654655D01*
X34386389Y-38654368D01*
X34386387Y-38654368D01*
X34379861Y-38652203D01*
X34373025Y-38651503D01*
X34373022Y-38651502D01*
X34329969Y-38647091D01*
X34275400Y-38641500D01*
X32724600Y-38641500D01*
X32721354Y-38641837D01*
X32721350Y-38641837D01*
X32625692Y-38651762D01*
X32625688Y-38651763D01*
X32618834Y-38652474D01*
X32612298Y-38654655D01*
X32612296Y-38654655D01*
X32480194Y-38698728D01*
X32451054Y-38708450D01*
X32300652Y-38801522D01*
X32175695Y-38926697D01*
X32082885Y-39077262D01*
X32027203Y-39245139D01*
X32016500Y-39349600D01*
X32016500Y-40650400D01*
X32027474Y-40756166D01*
X32029655Y-40762702D01*
X32029655Y-40762704D01*
X32055791Y-40841041D01*
X32083450Y-40923946D01*
X32176522Y-41074348D01*
X32301697Y-41199305D01*
X32447340Y-41289081D01*
X32494832Y-41341852D01*
X32506256Y-41411924D01*
X32477982Y-41477048D01*
X32468195Y-41487510D01*
X32435455Y-41518743D01*
X32353865Y-41596576D01*
X32216246Y-41781542D01*
X32213830Y-41786293D01*
X32213828Y-41786297D01*
X32192674Y-41827905D01*
X32111760Y-41987051D01*
X32043393Y-42207227D01*
X32042692Y-42212516D01*
X32016772Y-42408087D01*
X32013102Y-42435774D01*
X32021751Y-42666158D01*
X32069093Y-42891791D01*
X32071051Y-42896750D01*
X32071052Y-42896752D01*
X32122963Y-43028197D01*
X32153776Y-43106221D01*
X32156543Y-43110780D01*
X32156544Y-43110783D01*
X32202307Y-43186198D01*
X32273377Y-43303317D01*
X32276874Y-43307347D01*
X32404105Y-43453968D01*
X32424477Y-43477445D01*
X32437972Y-43488510D01*
X32598627Y-43620240D01*
X32598633Y-43620244D01*
X32602755Y-43623624D01*
X32634250Y-43641552D01*
X32683555Y-43692632D01*
X32697417Y-43762262D01*
X32671434Y-43828333D01*
X32642284Y-43855573D01*
X32520681Y-43937441D01*
X32516824Y-43941120D01*
X32516822Y-43941122D01*
X32504062Y-43953295D01*
X32353865Y-44096576D01*
X32216246Y-44281542D01*
X32213830Y-44286293D01*
X32213828Y-44286297D01*
X32187036Y-44338994D01*
X32111760Y-44487051D01*
X32110178Y-44492145D01*
X32110177Y-44492148D01*
X32068001Y-44627978D01*
X32043393Y-44707227D01*
X32042692Y-44712516D01*
X32027304Y-44828623D01*
X32013102Y-44935774D01*
X21000000Y-44935774D01*
X21000000Y-37496462D01*
X56486626Y-37496462D01*
X56487206Y-37502593D01*
X56490941Y-37542109D01*
X56491500Y-37553967D01*
X56491500Y-66049769D01*
X56491800Y-66052825D01*
X56491800Y-66052832D01*
X56492530Y-66060273D01*
X56505920Y-66196833D01*
X56563084Y-66386169D01*
X56655934Y-66560796D01*
X56726291Y-66647062D01*
X56777040Y-66709287D01*
X56777043Y-66709290D01*
X56780935Y-66714062D01*
X56785682Y-66717989D01*
X56785684Y-66717991D01*
X56928575Y-66836201D01*
X56928579Y-66836203D01*
X56933325Y-66840130D01*
X57107299Y-66934198D01*
X57296232Y-66992682D01*
X57302357Y-66993326D01*
X57302358Y-66993326D01*
X57486796Y-67012711D01*
X57486798Y-67012711D01*
X57492925Y-67013355D01*
X57575424Y-67005847D01*
X57683749Y-66995989D01*
X57683752Y-66995988D01*
X57689888Y-66995430D01*
X57695794Y-66993692D01*
X57695798Y-66993691D01*
X57800924Y-66962751D01*
X57879619Y-66939590D01*
X57885077Y-66936737D01*
X57885081Y-66936735D01*
X57975853Y-66889280D01*
X58054890Y-66847960D01*
X58209025Y-66724032D01*
X58336154Y-66572526D01*
X58339121Y-66567128D01*
X58339125Y-66567123D01*
X58428467Y-66404608D01*
X58431433Y-66399213D01*
X58433846Y-66391608D01*
X58489373Y-66216564D01*
X58489373Y-66216563D01*
X58491235Y-66210694D01*
X58508500Y-66056773D01*
X58508500Y-38234500D01*
X58528502Y-38166379D01*
X58582158Y-38119886D01*
X58634500Y-38108500D01*
X60009260Y-38108500D01*
X60081531Y-38131287D01*
X60233251Y-38237523D01*
X60238233Y-38239846D01*
X60238238Y-38239849D01*
X60272457Y-38255805D01*
X60325742Y-38302722D01*
X60345203Y-38370999D01*
X60324661Y-38438959D01*
X60272457Y-38484195D01*
X60238238Y-38500151D01*
X60238233Y-38500154D01*
X60233251Y-38502477D01*
X60128389Y-38575902D01*
X60050211Y-38630643D01*
X60050208Y-38630645D01*
X60045700Y-38633802D01*
X59883802Y-38795700D01*
X59880645Y-38800208D01*
X59880643Y-38800211D01*
X59876097Y-38806704D01*
X59752477Y-38983251D01*
X59750154Y-38988233D01*
X59750151Y-38988238D01*
X59658039Y-39185775D01*
X59655716Y-39190757D01*
X59596457Y-39411913D01*
X59576502Y-39640000D01*
X59596457Y-39868087D01*
X59655716Y-40089243D01*
X59658039Y-40094224D01*
X59658039Y-40094225D01*
X59750151Y-40291762D01*
X59750154Y-40291767D01*
X59752477Y-40296749D01*
X59883802Y-40484300D01*
X60045700Y-40646198D01*
X60050208Y-40649355D01*
X60050211Y-40649357D01*
X60128389Y-40704098D01*
X60233251Y-40777523D01*
X60238233Y-40779846D01*
X60238238Y-40779849D01*
X60272457Y-40795805D01*
X60325742Y-40842722D01*
X60345203Y-40910999D01*
X60324661Y-40978959D01*
X60272457Y-41024195D01*
X60238238Y-41040151D01*
X60238233Y-41040154D01*
X60233251Y-41042477D01*
X60180347Y-41079521D01*
X60050211Y-41170643D01*
X60050208Y-41170645D01*
X60045700Y-41173802D01*
X59883802Y-41335700D01*
X59880645Y-41340208D01*
X59880643Y-41340211D01*
X59855320Y-41376376D01*
X59752477Y-41523251D01*
X59750154Y-41528233D01*
X59750151Y-41528238D01*
X59718285Y-41596576D01*
X59655716Y-41730757D01*
X59654294Y-41736065D01*
X59654293Y-41736067D01*
X59629685Y-41827905D01*
X59596457Y-41951913D01*
X59576502Y-42180000D01*
X59596457Y-42408087D01*
X59597881Y-42413400D01*
X59597881Y-42413402D01*
X59602460Y-42430489D01*
X59655716Y-42629243D01*
X59658039Y-42634224D01*
X59658039Y-42634225D01*
X59750151Y-42831762D01*
X59750154Y-42831767D01*
X59752477Y-42836749D01*
X59883802Y-43024300D01*
X60045700Y-43186198D01*
X60050208Y-43189355D01*
X60050211Y-43189357D01*
X60128389Y-43244098D01*
X60233251Y-43317523D01*
X60238233Y-43319846D01*
X60238238Y-43319849D01*
X60272457Y-43335805D01*
X60325742Y-43382722D01*
X60345203Y-43450999D01*
X60324661Y-43518959D01*
X60272457Y-43564195D01*
X60238238Y-43580151D01*
X60238233Y-43580154D01*
X60233251Y-43582477D01*
X60128389Y-43655902D01*
X60050211Y-43710643D01*
X60050208Y-43710645D01*
X60045700Y-43713802D01*
X59883802Y-43875700D01*
X59880645Y-43880208D01*
X59880643Y-43880211D01*
X59842657Y-43934461D01*
X59752477Y-44063251D01*
X59750154Y-44068233D01*
X59750151Y-44068238D01*
X59658039Y-44265775D01*
X59655716Y-44270757D01*
X59654294Y-44276065D01*
X59654293Y-44276067D01*
X59606756Y-44453478D01*
X59596457Y-44491913D01*
X59576502Y-44720000D01*
X59596457Y-44948087D01*
X59597881Y-44953400D01*
X59597881Y-44953402D01*
X59627577Y-45064226D01*
X59655716Y-45169243D01*
X59658039Y-45174224D01*
X59658039Y-45174225D01*
X59750151Y-45371762D01*
X59750154Y-45371767D01*
X59752477Y-45376749D01*
X59806606Y-45454053D01*
X59847846Y-45512949D01*
X59883802Y-45564300D01*
X60045700Y-45726198D01*
X60050208Y-45729355D01*
X60050211Y-45729357D01*
X60128389Y-45784098D01*
X60233251Y-45857523D01*
X60238233Y-45859846D01*
X60238238Y-45859849D01*
X60272457Y-45875805D01*
X60325742Y-45922722D01*
X60345203Y-45990999D01*
X60324661Y-46058959D01*
X60272457Y-46104195D01*
X60238238Y-46120151D01*
X60238233Y-46120154D01*
X60233251Y-46122477D01*
X60209063Y-46139414D01*
X60050211Y-46250643D01*
X60050208Y-46250645D01*
X60045700Y-46253802D01*
X59883802Y-46415700D01*
X59752477Y-46603251D01*
X59750154Y-46608233D01*
X59750151Y-46608238D01*
X59658039Y-46805775D01*
X59655716Y-46810757D01*
X59596457Y-47031913D01*
X59576502Y-47260000D01*
X59596457Y-47488087D01*
X59655716Y-47709243D01*
X59658039Y-47714224D01*
X59658039Y-47714225D01*
X59750151Y-47911762D01*
X59750154Y-47911767D01*
X59752477Y-47916749D01*
X59883802Y-48104300D01*
X60045700Y-48266198D01*
X60050208Y-48269355D01*
X60050211Y-48269357D01*
X60128389Y-48324098D01*
X60233251Y-48397523D01*
X60238233Y-48399846D01*
X60238238Y-48399849D01*
X60272457Y-48415805D01*
X60325742Y-48462722D01*
X60345203Y-48530999D01*
X60324661Y-48598959D01*
X60272457Y-48644195D01*
X60238238Y-48660151D01*
X60238233Y-48660154D01*
X60233251Y-48662477D01*
X60128389Y-48735902D01*
X60050211Y-48790643D01*
X60050208Y-48790645D01*
X60045700Y-48793802D01*
X59883802Y-48955700D01*
X59752477Y-49143251D01*
X59750154Y-49148233D01*
X59750151Y-49148238D01*
X59658039Y-49345775D01*
X59655716Y-49350757D01*
X59596457Y-49571913D01*
X59576502Y-49800000D01*
X59596457Y-50028087D01*
X59655716Y-50249243D01*
X59658039Y-50254224D01*
X59658039Y-50254225D01*
X59750151Y-50451762D01*
X59750154Y-50451767D01*
X59752477Y-50456749D01*
X59883802Y-50644300D01*
X60045700Y-50806198D01*
X60050208Y-50809355D01*
X60050211Y-50809357D01*
X60128389Y-50864098D01*
X60233251Y-50937523D01*
X60238233Y-50939846D01*
X60238238Y-50939849D01*
X60272457Y-50955805D01*
X60325742Y-51002722D01*
X60345203Y-51070999D01*
X60324661Y-51138959D01*
X60272457Y-51184195D01*
X60238238Y-51200151D01*
X60238233Y-51200154D01*
X60233251Y-51202477D01*
X60225528Y-51207885D01*
X60050211Y-51330643D01*
X60050208Y-51330645D01*
X60045700Y-51333802D01*
X59883802Y-51495700D01*
X59752477Y-51683251D01*
X59750154Y-51688233D01*
X59750151Y-51688238D01*
X59673385Y-51852866D01*
X59655716Y-51890757D01*
X59596457Y-52111913D01*
X59576502Y-52340000D01*
X59596457Y-52568087D01*
X59655716Y-52789243D01*
X59658039Y-52794224D01*
X59658039Y-52794225D01*
X59750151Y-52991762D01*
X59750154Y-52991767D01*
X59752477Y-52996749D01*
X59755634Y-53001257D01*
X59862341Y-53153650D01*
X59883802Y-53184300D01*
X60045700Y-53346198D01*
X60050208Y-53349355D01*
X60050211Y-53349357D01*
X60101693Y-53385405D01*
X60233251Y-53477523D01*
X60238233Y-53479846D01*
X60238238Y-53479849D01*
X60272457Y-53495805D01*
X60325742Y-53542722D01*
X60345203Y-53610999D01*
X60324661Y-53678959D01*
X60272457Y-53724195D01*
X60238238Y-53740151D01*
X60238233Y-53740154D01*
X60233251Y-53742477D01*
X60166695Y-53789080D01*
X60050211Y-53870643D01*
X60050208Y-53870645D01*
X60045700Y-53873802D01*
X59883802Y-54035700D01*
X59880645Y-54040208D01*
X59880643Y-54040211D01*
X59825902Y-54118389D01*
X59752477Y-54223251D01*
X59750154Y-54228233D01*
X59750151Y-54228238D01*
X59658039Y-54425775D01*
X59655716Y-54430757D01*
X59596457Y-54651913D01*
X59576502Y-54880000D01*
X59596457Y-55108087D01*
X59597881Y-55113400D01*
X59597881Y-55113402D01*
X59613416Y-55171377D01*
X59655716Y-55329243D01*
X59658039Y-55334224D01*
X59658039Y-55334225D01*
X59750151Y-55531762D01*
X59750154Y-55531767D01*
X59752477Y-55536749D01*
X59883802Y-55724300D01*
X60045700Y-55886198D01*
X60050208Y-55889355D01*
X60050211Y-55889357D01*
X60123667Y-55940791D01*
X60233251Y-56017523D01*
X60238233Y-56019846D01*
X60238238Y-56019849D01*
X60272457Y-56035805D01*
X60325742Y-56082722D01*
X60345203Y-56150999D01*
X60324661Y-56218959D01*
X60272457Y-56264195D01*
X60238238Y-56280151D01*
X60238233Y-56280154D01*
X60233251Y-56282477D01*
X60180493Y-56319419D01*
X60050211Y-56410643D01*
X60050208Y-56410645D01*
X60045700Y-56413802D01*
X59883802Y-56575700D01*
X59880645Y-56580208D01*
X59880643Y-56580211D01*
X59875326Y-56587805D01*
X59752477Y-56763251D01*
X59750154Y-56768233D01*
X59750151Y-56768238D01*
X59659938Y-56961703D01*
X59655716Y-56970757D01*
X59654294Y-56976065D01*
X59654293Y-56976067D01*
X59606272Y-57155283D01*
X59596457Y-57191913D01*
X59576502Y-57420000D01*
X59596457Y-57648087D01*
X59597881Y-57653400D01*
X59597881Y-57653402D01*
X59643410Y-57823315D01*
X59655716Y-57869243D01*
X59658039Y-57874224D01*
X59658039Y-57874225D01*
X59750151Y-58071762D01*
X59750154Y-58071767D01*
X59752477Y-58076749D01*
X59801255Y-58146411D01*
X59854547Y-58222519D01*
X59883802Y-58264300D01*
X60045700Y-58426198D01*
X60050208Y-58429355D01*
X60050211Y-58429357D01*
X60101693Y-58465405D01*
X60233251Y-58557523D01*
X60238233Y-58559846D01*
X60238238Y-58559849D01*
X60272457Y-58575805D01*
X60325742Y-58622722D01*
X60345203Y-58690999D01*
X60324661Y-58758959D01*
X60272457Y-58804195D01*
X60238238Y-58820151D01*
X60238233Y-58820154D01*
X60233251Y-58822477D01*
X60151443Y-58879760D01*
X60050211Y-58950643D01*
X60050208Y-58950645D01*
X60045700Y-58953802D01*
X59883802Y-59115700D01*
X59880645Y-59120208D01*
X59880643Y-59120211D01*
X59835953Y-59184035D01*
X59752477Y-59303251D01*
X59750154Y-59308233D01*
X59750151Y-59308238D01*
X59658039Y-59505775D01*
X59655716Y-59510757D01*
X59654294Y-59516065D01*
X59654293Y-59516067D01*
X59601654Y-59712516D01*
X59596457Y-59731913D01*
X59576502Y-59960000D01*
X59596457Y-60188087D01*
X59597881Y-60193400D01*
X59597881Y-60193402D01*
X59647888Y-60380027D01*
X59655716Y-60409243D01*
X59658039Y-60414224D01*
X59658039Y-60414225D01*
X59750151Y-60611762D01*
X59750154Y-60611767D01*
X59752477Y-60616749D01*
X59819605Y-60712617D01*
X59879921Y-60798757D01*
X59883802Y-60804300D01*
X60045700Y-60966198D01*
X60050208Y-60969355D01*
X60050211Y-60969357D01*
X60101692Y-61005404D01*
X60233251Y-61097523D01*
X60238233Y-61099846D01*
X60238238Y-61099849D01*
X60272457Y-61115805D01*
X60325742Y-61162722D01*
X60345203Y-61230999D01*
X60324661Y-61298959D01*
X60272457Y-61344195D01*
X60238238Y-61360151D01*
X60238233Y-61360154D01*
X60233251Y-61362477D01*
X60162525Y-61412000D01*
X60050211Y-61490643D01*
X60050208Y-61490645D01*
X60045700Y-61493802D01*
X59883802Y-61655700D01*
X59880645Y-61660208D01*
X59880643Y-61660211D01*
X59831976Y-61729715D01*
X59752477Y-61843251D01*
X59750154Y-61848233D01*
X59750151Y-61848238D01*
X59658039Y-62045775D01*
X59655716Y-62050757D01*
X59654294Y-62056065D01*
X59654293Y-62056067D01*
X59597881Y-62266598D01*
X59596457Y-62271913D01*
X59576502Y-62500000D01*
X59596457Y-62728087D01*
X59597881Y-62733400D01*
X59597881Y-62733402D01*
X59641887Y-62897631D01*
X59655716Y-62949243D01*
X59658039Y-62954224D01*
X59658039Y-62954225D01*
X59750151Y-63151762D01*
X59750154Y-63151767D01*
X59752477Y-63156749D01*
X59883802Y-63344300D01*
X60045700Y-63506198D01*
X60050208Y-63509355D01*
X60050211Y-63509357D01*
X60091195Y-63538054D01*
X60233251Y-63637523D01*
X60238233Y-63639846D01*
X60238238Y-63639849D01*
X60435775Y-63731961D01*
X60440757Y-63734284D01*
X60446065Y-63735706D01*
X60446067Y-63735707D01*
X60656598Y-63792119D01*
X60656600Y-63792119D01*
X60661913Y-63793543D01*
X60890000Y-63813498D01*
X61118087Y-63793543D01*
X61123400Y-63792119D01*
X61123402Y-63792119D01*
X61333933Y-63735707D01*
X61333935Y-63735706D01*
X61339243Y-63734284D01*
X61344225Y-63731961D01*
X61541762Y-63639849D01*
X61541767Y-63639846D01*
X61546749Y-63637523D01*
X61688805Y-63538054D01*
X61729789Y-63509357D01*
X61729792Y-63509355D01*
X61734300Y-63506198D01*
X61896198Y-63344300D01*
X62027523Y-63156749D01*
X62029846Y-63151767D01*
X62029849Y-63151762D01*
X62121961Y-62954225D01*
X62121961Y-62954224D01*
X62124284Y-62949243D01*
X62138114Y-62897631D01*
X62182119Y-62733402D01*
X62182119Y-62733400D01*
X62183543Y-62728087D01*
X62203498Y-62500000D01*
X62183543Y-62271913D01*
X62182119Y-62266598D01*
X62125707Y-62056067D01*
X62125706Y-62056065D01*
X62124284Y-62050757D01*
X62121961Y-62045775D01*
X62029849Y-61848238D01*
X62029846Y-61848233D01*
X62027523Y-61843251D01*
X61948024Y-61729715D01*
X61899357Y-61660211D01*
X61899355Y-61660208D01*
X61896198Y-61655700D01*
X61734300Y-61493802D01*
X61729792Y-61490645D01*
X61729789Y-61490643D01*
X61617475Y-61412000D01*
X61546749Y-61362477D01*
X61541767Y-61360154D01*
X61541762Y-61360151D01*
X61507543Y-61344195D01*
X61454258Y-61297278D01*
X61434797Y-61229001D01*
X61455339Y-61161041D01*
X61507543Y-61115805D01*
X61541762Y-61099849D01*
X61541767Y-61099846D01*
X61546749Y-61097523D01*
X61698469Y-60991287D01*
X61770740Y-60968500D01*
X62490074Y-60968500D01*
X62558195Y-60988502D01*
X62579169Y-61005404D01*
X62954595Y-61380829D01*
X62988620Y-61443142D01*
X62991500Y-61469925D01*
X62991500Y-69049769D01*
X63005920Y-69196833D01*
X63007702Y-69202734D01*
X63007702Y-69202736D01*
X63018290Y-69237804D01*
X63063084Y-69386169D01*
X63155934Y-69560796D01*
X63198719Y-69613255D01*
X63277040Y-69709287D01*
X63277043Y-69709290D01*
X63280935Y-69714062D01*
X63285682Y-69717989D01*
X63285684Y-69717991D01*
X63428575Y-69836201D01*
X63428579Y-69836203D01*
X63433325Y-69840130D01*
X63607299Y-69934198D01*
X63796232Y-69992682D01*
X63802357Y-69993326D01*
X63802358Y-69993326D01*
X63986796Y-70012711D01*
X63986798Y-70012711D01*
X63992925Y-70013355D01*
X64075424Y-70005847D01*
X64183749Y-69995989D01*
X64183752Y-69995988D01*
X64189888Y-69995430D01*
X64195794Y-69993692D01*
X64195798Y-69993691D01*
X64337908Y-69951866D01*
X64379619Y-69939590D01*
X64385077Y-69936737D01*
X64385081Y-69936735D01*
X64528596Y-69861706D01*
X64554890Y-69847960D01*
X64709025Y-69724032D01*
X64768981Y-69652580D01*
X64828088Y-69613255D01*
X64899076Y-69612129D01*
X64959404Y-69649560D01*
X64989917Y-69713665D01*
X64991500Y-69733573D01*
X64991500Y-73049769D01*
X64991800Y-73052825D01*
X64991800Y-73052832D01*
X64992530Y-73060273D01*
X65005920Y-73196833D01*
X65063084Y-73386169D01*
X65155934Y-73560796D01*
X65170782Y-73579001D01*
X65277040Y-73709287D01*
X65277043Y-73709290D01*
X65280935Y-73714062D01*
X65285682Y-73717989D01*
X65285684Y-73717991D01*
X65428575Y-73836201D01*
X65428579Y-73836203D01*
X65433325Y-73840130D01*
X65607299Y-73934198D01*
X65796232Y-73992682D01*
X65802357Y-73993326D01*
X65802358Y-73993326D01*
X65986796Y-74012711D01*
X65986798Y-74012711D01*
X65992925Y-74013355D01*
X66075424Y-74005847D01*
X66183749Y-73995989D01*
X66183752Y-73995988D01*
X66189888Y-73995430D01*
X66195794Y-73993692D01*
X66195798Y-73993691D01*
X66300924Y-73962751D01*
X66379619Y-73939590D01*
X66385077Y-73936737D01*
X66385081Y-73936735D01*
X66475853Y-73889280D01*
X66554890Y-73847960D01*
X66709025Y-73724032D01*
X66836154Y-73572526D01*
X66839121Y-73567128D01*
X66839125Y-73567123D01*
X66928467Y-73404608D01*
X66931433Y-73399213D01*
X66933846Y-73391608D01*
X66989373Y-73216564D01*
X66989373Y-73216563D01*
X66991235Y-73210694D01*
X67008500Y-73056773D01*
X67008500Y-62996462D01*
X72986626Y-62996462D01*
X72987206Y-63002593D01*
X72990941Y-63042109D01*
X72991500Y-63053967D01*
X72991500Y-67049769D01*
X72991800Y-67052825D01*
X72991800Y-67052832D01*
X72992530Y-67060273D01*
X73005920Y-67196833D01*
X73063084Y-67386169D01*
X73155934Y-67560796D01*
X73226291Y-67647062D01*
X73277040Y-67709287D01*
X73277043Y-67709290D01*
X73280935Y-67714062D01*
X73285682Y-67717989D01*
X73285684Y-67717991D01*
X73428575Y-67836201D01*
X73428579Y-67836203D01*
X73433325Y-67840130D01*
X73607299Y-67934198D01*
X73796232Y-67992682D01*
X73802357Y-67993326D01*
X73802358Y-67993326D01*
X73986796Y-68012711D01*
X73986798Y-68012711D01*
X73992925Y-68013355D01*
X74075424Y-68005847D01*
X74183749Y-67995989D01*
X74183752Y-67995988D01*
X74189888Y-67995430D01*
X74195794Y-67993692D01*
X74195798Y-67993691D01*
X74300924Y-67962751D01*
X74379619Y-67939590D01*
X74385077Y-67936737D01*
X74385081Y-67936735D01*
X74475853Y-67889280D01*
X74554890Y-67847960D01*
X74709025Y-67724032D01*
X74836154Y-67572526D01*
X74839121Y-67567128D01*
X74839125Y-67567123D01*
X74928467Y-67404608D01*
X74931433Y-67399213D01*
X74933846Y-67391608D01*
X74989373Y-67216564D01*
X74989373Y-67216563D01*
X74991235Y-67210694D01*
X75008500Y-67056773D01*
X75008500Y-63634500D01*
X75028502Y-63566379D01*
X75082158Y-63519886D01*
X75134500Y-63508500D01*
X75249260Y-63508500D01*
X75321531Y-63531287D01*
X75473251Y-63637523D01*
X75478233Y-63639846D01*
X75478238Y-63639849D01*
X75675775Y-63731961D01*
X75680757Y-63734284D01*
X75686065Y-63735706D01*
X75686067Y-63735707D01*
X75896598Y-63792119D01*
X75896600Y-63792119D01*
X75901913Y-63793543D01*
X76130000Y-63813498D01*
X76358087Y-63793543D01*
X76363400Y-63792119D01*
X76363402Y-63792119D01*
X76573933Y-63735707D01*
X76573935Y-63735706D01*
X76579243Y-63734284D01*
X76584225Y-63731961D01*
X76781762Y-63639849D01*
X76781767Y-63639846D01*
X76786749Y-63637523D01*
X76928805Y-63538054D01*
X76969789Y-63509357D01*
X76969792Y-63509355D01*
X76974300Y-63506198D01*
X77136198Y-63344300D01*
X77267523Y-63156749D01*
X77269846Y-63151767D01*
X77269849Y-63151762D01*
X77361961Y-62954225D01*
X77361961Y-62954224D01*
X77364284Y-62949243D01*
X77378114Y-62897631D01*
X77422119Y-62733402D01*
X77422119Y-62733400D01*
X77423543Y-62728087D01*
X77443498Y-62500000D01*
X77437782Y-62434669D01*
X91642001Y-62434669D01*
X91642371Y-62441490D01*
X91647895Y-62492352D01*
X91651521Y-62507604D01*
X91696676Y-62628054D01*
X91705214Y-62643649D01*
X91781715Y-62745724D01*
X91794276Y-62758285D01*
X91896351Y-62834786D01*
X91911946Y-62843324D01*
X92032394Y-62888478D01*
X92047649Y-62892105D01*
X92098514Y-62897631D01*
X92105328Y-62898000D01*
X92727885Y-62898000D01*
X92743124Y-62893525D01*
X92744329Y-62892135D01*
X92746000Y-62884452D01*
X92746000Y-61812115D01*
X92741525Y-61796876D01*
X92740135Y-61795671D01*
X92732452Y-61794000D01*
X91660116Y-61794000D01*
X91644877Y-61798475D01*
X91643672Y-61799865D01*
X91642001Y-61807548D01*
X91642001Y-62434669D01*
X77437782Y-62434669D01*
X77423543Y-62271913D01*
X77422119Y-62266598D01*
X77365707Y-62056067D01*
X77365706Y-62056065D01*
X77364284Y-62050757D01*
X77361961Y-62045775D01*
X77269849Y-61848238D01*
X77269846Y-61848233D01*
X77267523Y-61843251D01*
X77188024Y-61729715D01*
X77139357Y-61660211D01*
X77139355Y-61660208D01*
X77136198Y-61655700D01*
X76974300Y-61493802D01*
X76969792Y-61490645D01*
X76969789Y-61490643D01*
X76857475Y-61412000D01*
X76786749Y-61362477D01*
X76781767Y-61360154D01*
X76781762Y-61360151D01*
X76747543Y-61344195D01*
X76694258Y-61297278D01*
X76674797Y-61229001D01*
X76695339Y-61161041D01*
X76747543Y-61115805D01*
X76781762Y-61099849D01*
X76781767Y-61099846D01*
X76786749Y-61097523D01*
X76938469Y-60991287D01*
X77010740Y-60968500D01*
X83630808Y-60968500D01*
X83644415Y-60969237D01*
X83675913Y-60972659D01*
X83675918Y-60972659D01*
X83682039Y-60973324D01*
X83708289Y-60971027D01*
X83732039Y-60968950D01*
X83736865Y-60968621D01*
X83739337Y-60968500D01*
X83742420Y-60968500D01*
X83754389Y-60967326D01*
X83785157Y-60964310D01*
X83786470Y-60964188D01*
X83830735Y-60960315D01*
X83879064Y-60956087D01*
X83884183Y-60954600D01*
X83889484Y-60954080D01*
X83978485Y-60927209D01*
X83979618Y-60926874D01*
X84063065Y-60902630D01*
X84063069Y-60902628D01*
X84068987Y-60900909D01*
X84073719Y-60898456D01*
X84078820Y-60896916D01*
X84101944Y-60884621D01*
X84160911Y-60853269D01*
X84162077Y-60852657D01*
X84239104Y-60812729D01*
X84244577Y-60809892D01*
X84248740Y-60806569D01*
X84253447Y-60804066D01*
X84325569Y-60745245D01*
X84326425Y-60744554D01*
X84365624Y-60713262D01*
X84368128Y-60710758D01*
X84368846Y-60710116D01*
X84373179Y-60706415D01*
X84406713Y-60679065D01*
X84412407Y-60672183D01*
X84435938Y-60643738D01*
X84443928Y-60634958D01*
X85074409Y-60004477D01*
X85733480Y-59345405D01*
X85795792Y-59311380D01*
X85822575Y-59308500D01*
X86500785Y-59308500D01*
X86562967Y-59301745D01*
X86699356Y-59250615D01*
X86815912Y-59163261D01*
X86903266Y-59046705D01*
X86933260Y-58966695D01*
X91637251Y-58966695D01*
X91637548Y-58971848D01*
X91637548Y-58971851D01*
X91646121Y-59120533D01*
X91650110Y-59189715D01*
X91651247Y-59194761D01*
X91651248Y-59194767D01*
X91664356Y-59252929D01*
X91699222Y-59407639D01*
X91783266Y-59614616D01*
X91828544Y-59688503D01*
X91897291Y-59800688D01*
X91899987Y-59805088D01*
X92046250Y-59973938D01*
X92050225Y-59977238D01*
X92050231Y-59977244D01*
X92055425Y-59981556D01*
X92095059Y-60040460D01*
X92096555Y-60111441D01*
X92059439Y-60171962D01*
X92019168Y-60196480D01*
X91911946Y-60236676D01*
X91896351Y-60245214D01*
X91794276Y-60321715D01*
X91781715Y-60334276D01*
X91705214Y-60436351D01*
X91696676Y-60451946D01*
X91651522Y-60572394D01*
X91647895Y-60587649D01*
X91642369Y-60638514D01*
X91642000Y-60645328D01*
X91642000Y-61267885D01*
X91646475Y-61283124D01*
X91647865Y-61284329D01*
X91655548Y-61286000D01*
X93128000Y-61286000D01*
X93196121Y-61306002D01*
X93242614Y-61359658D01*
X93254000Y-61412000D01*
X93254000Y-62879884D01*
X93258475Y-62895123D01*
X93259865Y-62896328D01*
X93267548Y-62897999D01*
X93894669Y-62897999D01*
X93901490Y-62897629D01*
X93952352Y-62892105D01*
X93967604Y-62888479D01*
X94088054Y-62843324D01*
X94103649Y-62834786D01*
X94205724Y-62758285D01*
X94218285Y-62745724D01*
X94294786Y-62643649D01*
X94303324Y-62628054D01*
X94344225Y-62518952D01*
X94386867Y-62462188D01*
X94453428Y-62437488D01*
X94522777Y-62452696D01*
X94557444Y-62480684D01*
X94582865Y-62510031D01*
X94582869Y-62510035D01*
X94586250Y-62513938D01*
X94758126Y-62656632D01*
X94951000Y-62769338D01*
X94955825Y-62771180D01*
X94955826Y-62771181D01*
X95003291Y-62789306D01*
X95159692Y-62849030D01*
X95164760Y-62850061D01*
X95164763Y-62850062D01*
X95272017Y-62871883D01*
X95378597Y-62893567D01*
X95383772Y-62893757D01*
X95383774Y-62893757D01*
X95596673Y-62901564D01*
X95596677Y-62901564D01*
X95601837Y-62901753D01*
X95606957Y-62901097D01*
X95606959Y-62901097D01*
X95818288Y-62874025D01*
X95818289Y-62874025D01*
X95823416Y-62873368D01*
X95828366Y-62871883D01*
X96032429Y-62810661D01*
X96032434Y-62810659D01*
X96037384Y-62809174D01*
X96237994Y-62710896D01*
X96419860Y-62581173D01*
X96578096Y-62423489D01*
X96627177Y-62355186D01*
X96708453Y-62242077D01*
X96709776Y-62243028D01*
X96756645Y-62199857D01*
X96826580Y-62187625D01*
X96892026Y-62215144D01*
X96919875Y-62246994D01*
X96979987Y-62345088D01*
X97126250Y-62513938D01*
X97298126Y-62656632D01*
X97491000Y-62769338D01*
X97495825Y-62771180D01*
X97495826Y-62771181D01*
X97543291Y-62789306D01*
X97699692Y-62849030D01*
X97704760Y-62850061D01*
X97704763Y-62850062D01*
X97812017Y-62871883D01*
X97918597Y-62893567D01*
X97923772Y-62893757D01*
X97923774Y-62893757D01*
X98136673Y-62901564D01*
X98136677Y-62901564D01*
X98141837Y-62901753D01*
X98146957Y-62901097D01*
X98146959Y-62901097D01*
X98358288Y-62874025D01*
X98358289Y-62874025D01*
X98363416Y-62873368D01*
X98368366Y-62871883D01*
X98572429Y-62810661D01*
X98572434Y-62810659D01*
X98577384Y-62809174D01*
X98777994Y-62710896D01*
X98959860Y-62581173D01*
X99118096Y-62423489D01*
X99167177Y-62355186D01*
X99248453Y-62242077D01*
X99249776Y-62243028D01*
X99296645Y-62199857D01*
X99366580Y-62187625D01*
X99432026Y-62215144D01*
X99459875Y-62246994D01*
X99519987Y-62345088D01*
X99666250Y-62513938D01*
X99838126Y-62656632D01*
X100031000Y-62769338D01*
X100035825Y-62771180D01*
X100035826Y-62771181D01*
X100083291Y-62789306D01*
X100239692Y-62849030D01*
X100244760Y-62850061D01*
X100244763Y-62850062D01*
X100352017Y-62871883D01*
X100458597Y-62893567D01*
X100463772Y-62893757D01*
X100463774Y-62893757D01*
X100676673Y-62901564D01*
X100676677Y-62901564D01*
X100681837Y-62901753D01*
X100686957Y-62901097D01*
X100686959Y-62901097D01*
X100898288Y-62874025D01*
X100898289Y-62874025D01*
X100903416Y-62873368D01*
X100908366Y-62871883D01*
X101112429Y-62810661D01*
X101112434Y-62810659D01*
X101117384Y-62809174D01*
X101317994Y-62710896D01*
X101499860Y-62581173D01*
X101658096Y-62423489D01*
X101707177Y-62355186D01*
X101785435Y-62246277D01*
X101788453Y-62242077D01*
X101809320Y-62199857D01*
X101885136Y-62046453D01*
X101885137Y-62046451D01*
X101887430Y-62041811D01*
X101952370Y-61828069D01*
X101981529Y-61606590D01*
X101981611Y-61603240D01*
X101983074Y-61543365D01*
X101983074Y-61543361D01*
X101983156Y-61540000D01*
X101964852Y-61317361D01*
X101910431Y-61100702D01*
X101821354Y-60895840D01*
X101759216Y-60799789D01*
X101702822Y-60712617D01*
X101702820Y-60712614D01*
X101700014Y-60708277D01*
X101549670Y-60543051D01*
X101545619Y-60539852D01*
X101545615Y-60539848D01*
X101378414Y-60407800D01*
X101378410Y-60407798D01*
X101374359Y-60404598D01*
X101333053Y-60381796D01*
X101283084Y-60331364D01*
X101268312Y-60261921D01*
X101293428Y-60195516D01*
X101320780Y-60168909D01*
X101364603Y-60137650D01*
X101499860Y-60041173D01*
X101524323Y-60016796D01*
X101634666Y-59906837D01*
X101658096Y-59883489D01*
X101708336Y-59813573D01*
X101785435Y-59706277D01*
X101788453Y-59702077D01*
X101809320Y-59659857D01*
X101885136Y-59506453D01*
X101885137Y-59506451D01*
X101887430Y-59501811D01*
X101919900Y-59394940D01*
X101950865Y-59293023D01*
X101950865Y-59293021D01*
X101952370Y-59288069D01*
X101981529Y-59066590D01*
X101982458Y-59028567D01*
X101983074Y-59003365D01*
X101983074Y-59003361D01*
X101983156Y-59000000D01*
X101964852Y-58777361D01*
X101910431Y-58560702D01*
X101821354Y-58355840D01*
X101729785Y-58214296D01*
X101702822Y-58172617D01*
X101702820Y-58172614D01*
X101700014Y-58168277D01*
X101549670Y-58003051D01*
X101545619Y-57999852D01*
X101545615Y-57999848D01*
X101378414Y-57867800D01*
X101378410Y-57867798D01*
X101374359Y-57864598D01*
X101178789Y-57756638D01*
X101173920Y-57754914D01*
X101173916Y-57754912D01*
X100973087Y-57683795D01*
X100973083Y-57683794D01*
X100968212Y-57682069D01*
X100963119Y-57681162D01*
X100963116Y-57681161D01*
X100753373Y-57643800D01*
X100753367Y-57643799D01*
X100748284Y-57642894D01*
X100674452Y-57641992D01*
X100530081Y-57640228D01*
X100530079Y-57640228D01*
X100524911Y-57640165D01*
X100304091Y-57673955D01*
X100091756Y-57743357D01*
X100066119Y-57756703D01*
X99925171Y-57830076D01*
X99893607Y-57846507D01*
X99889474Y-57849610D01*
X99889471Y-57849612D01*
X99719100Y-57977530D01*
X99714965Y-57980635D01*
X99711393Y-57984373D01*
X99588462Y-58113013D01*
X99560629Y-58142138D01*
X99453201Y-58299621D01*
X99398293Y-58344621D01*
X99327768Y-58352792D01*
X99264021Y-58321538D01*
X99243324Y-58297054D01*
X99162822Y-58172617D01*
X99162820Y-58172614D01*
X99160014Y-58168277D01*
X99009670Y-58003051D01*
X99005619Y-57999852D01*
X99005615Y-57999848D01*
X98838414Y-57867800D01*
X98838410Y-57867798D01*
X98834359Y-57864598D01*
X98638789Y-57756638D01*
X98633920Y-57754914D01*
X98633916Y-57754912D01*
X98433087Y-57683795D01*
X98433083Y-57683794D01*
X98428212Y-57682069D01*
X98423119Y-57681162D01*
X98423116Y-57681161D01*
X98213373Y-57643800D01*
X98213367Y-57643799D01*
X98208284Y-57642894D01*
X98134452Y-57641992D01*
X97990081Y-57640228D01*
X97990079Y-57640228D01*
X97984911Y-57640165D01*
X97764091Y-57673955D01*
X97551756Y-57743357D01*
X97526119Y-57756703D01*
X97385171Y-57830076D01*
X97353607Y-57846507D01*
X97349474Y-57849610D01*
X97349471Y-57849612D01*
X97179100Y-57977530D01*
X97174965Y-57980635D01*
X97171393Y-57984373D01*
X97048462Y-58113013D01*
X97020629Y-58142138D01*
X96913201Y-58299621D01*
X96858293Y-58344621D01*
X96787768Y-58352792D01*
X96724021Y-58321538D01*
X96703324Y-58297054D01*
X96622822Y-58172617D01*
X96622820Y-58172614D01*
X96620014Y-58168277D01*
X96469670Y-58003051D01*
X96465619Y-57999852D01*
X96465615Y-57999848D01*
X96298414Y-57867800D01*
X96298410Y-57867798D01*
X96294359Y-57864598D01*
X96098789Y-57756638D01*
X96093920Y-57754914D01*
X96093916Y-57754912D01*
X95893087Y-57683795D01*
X95893083Y-57683794D01*
X95888212Y-57682069D01*
X95883119Y-57681162D01*
X95883116Y-57681161D01*
X95673373Y-57643800D01*
X95673367Y-57643799D01*
X95668284Y-57642894D01*
X95594452Y-57641992D01*
X95450081Y-57640228D01*
X95450079Y-57640228D01*
X95444911Y-57640165D01*
X95224091Y-57673955D01*
X95011756Y-57743357D01*
X94986119Y-57756703D01*
X94845171Y-57830076D01*
X94813607Y-57846507D01*
X94809474Y-57849610D01*
X94809471Y-57849612D01*
X94639100Y-57977530D01*
X94634965Y-57980635D01*
X94631393Y-57984373D01*
X94508462Y-58113013D01*
X94480629Y-58142138D01*
X94373201Y-58299621D01*
X94318293Y-58344621D01*
X94247768Y-58352792D01*
X94184021Y-58321538D01*
X94163324Y-58297054D01*
X94082822Y-58172617D01*
X94082820Y-58172614D01*
X94080014Y-58168277D01*
X93929670Y-58003051D01*
X93925619Y-57999852D01*
X93925615Y-57999848D01*
X93758414Y-57867800D01*
X93758410Y-57867798D01*
X93754359Y-57864598D01*
X93558789Y-57756638D01*
X93553920Y-57754914D01*
X93553916Y-57754912D01*
X93353087Y-57683795D01*
X93353083Y-57683794D01*
X93348212Y-57682069D01*
X93343119Y-57681162D01*
X93343116Y-57681161D01*
X93133373Y-57643800D01*
X93133367Y-57643799D01*
X93128284Y-57642894D01*
X93054452Y-57641992D01*
X92910081Y-57640228D01*
X92910079Y-57640228D01*
X92904911Y-57640165D01*
X92684091Y-57673955D01*
X92471756Y-57743357D01*
X92446119Y-57756703D01*
X92305171Y-57830076D01*
X92273607Y-57846507D01*
X92269474Y-57849610D01*
X92269471Y-57849612D01*
X92099100Y-57977530D01*
X92094965Y-57980635D01*
X92091393Y-57984373D01*
X91968462Y-58113013D01*
X91940629Y-58142138D01*
X91814743Y-58326680D01*
X91799003Y-58360590D01*
X91744761Y-58477445D01*
X91720688Y-58529305D01*
X91660989Y-58744570D01*
X91637251Y-58966695D01*
X86933260Y-58966695D01*
X86954396Y-58910316D01*
X86961151Y-58848134D01*
X86961151Y-57151866D01*
X86954396Y-57089684D01*
X86903266Y-56953295D01*
X86815912Y-56836739D01*
X86699356Y-56749385D01*
X86562967Y-56698255D01*
X86500785Y-56691500D01*
X84804517Y-56691500D01*
X84742335Y-56698255D01*
X84605946Y-56749385D01*
X84489390Y-56836739D01*
X84402036Y-56953295D01*
X84350906Y-57089684D01*
X84344151Y-57151866D01*
X84344151Y-57830076D01*
X84324149Y-57898197D01*
X84307246Y-57919171D01*
X83550220Y-58676197D01*
X83487908Y-58710223D01*
X83417093Y-58705158D01*
X83360257Y-58662611D01*
X83335446Y-58596091D01*
X83346930Y-58533852D01*
X83384141Y-58454053D01*
X83387887Y-58443761D01*
X83444276Y-58233312D01*
X83446179Y-58222519D01*
X83465168Y-58005475D01*
X83465168Y-57994525D01*
X83446179Y-57777481D01*
X83444276Y-57766688D01*
X83387887Y-57556239D01*
X83384141Y-57545947D01*
X83292065Y-57348489D01*
X83286582Y-57338994D01*
X83250142Y-57286952D01*
X83239663Y-57278576D01*
X83226217Y-57285644D01*
X82241746Y-58270115D01*
X82179434Y-58304141D01*
X82108619Y-58299076D01*
X82063556Y-58270115D01*
X81078364Y-57284923D01*
X81066589Y-57278493D01*
X81054574Y-57287789D01*
X81018720Y-57338994D01*
X81013237Y-57348489D01*
X80921161Y-57545947D01*
X80917415Y-57556239D01*
X80861026Y-57766688D01*
X80859123Y-57777481D01*
X80840134Y-57994525D01*
X80840134Y-58005475D01*
X80859123Y-58222519D01*
X80861026Y-58233312D01*
X80917415Y-58443761D01*
X80921161Y-58454053D01*
X81013237Y-58651511D01*
X81018720Y-58661006D01*
X81083295Y-58753229D01*
X81105983Y-58820503D01*
X81088698Y-58889364D01*
X81036928Y-58937948D01*
X80980082Y-58951500D01*
X77010740Y-58951500D01*
X76938469Y-58928713D01*
X76898394Y-58900652D01*
X76786749Y-58822477D01*
X76781767Y-58820154D01*
X76781762Y-58820151D01*
X76747543Y-58804195D01*
X76694258Y-58757278D01*
X76674797Y-58689001D01*
X76695339Y-58621041D01*
X76747543Y-58575805D01*
X76781762Y-58559849D01*
X76781767Y-58559846D01*
X76786749Y-58557523D01*
X76918307Y-58465405D01*
X76969789Y-58429357D01*
X76969792Y-58429355D01*
X76974300Y-58426198D01*
X77136198Y-58264300D01*
X77165454Y-58222519D01*
X77218745Y-58146411D01*
X77267523Y-58076749D01*
X77269846Y-58071767D01*
X77269849Y-58071762D01*
X77361961Y-57874225D01*
X77361961Y-57874224D01*
X77364284Y-57869243D01*
X77376591Y-57823315D01*
X77422119Y-57653402D01*
X77422119Y-57653400D01*
X77423543Y-57648087D01*
X77443498Y-57420000D01*
X77423543Y-57191913D01*
X77413728Y-57155283D01*
X77365707Y-56976067D01*
X77365706Y-56976065D01*
X77364284Y-56970757D01*
X77360062Y-56961703D01*
X77337346Y-56912988D01*
X81431227Y-56912988D01*
X81438295Y-56926434D01*
X82139839Y-57627978D01*
X82153783Y-57635592D01*
X82155616Y-57635461D01*
X82162231Y-57631210D01*
X82867728Y-56925713D01*
X82874158Y-56913938D01*
X82864862Y-56901923D01*
X82813657Y-56866069D01*
X82804162Y-56860586D01*
X82606704Y-56768510D01*
X82596412Y-56764764D01*
X82385963Y-56708375D01*
X82375170Y-56706472D01*
X82158126Y-56687483D01*
X82147176Y-56687483D01*
X81930132Y-56706472D01*
X81919339Y-56708375D01*
X81708890Y-56764764D01*
X81698598Y-56768510D01*
X81501140Y-56860586D01*
X81491645Y-56866069D01*
X81439603Y-56902509D01*
X81431227Y-56912988D01*
X77337346Y-56912988D01*
X77269849Y-56768238D01*
X77269846Y-56768233D01*
X77267523Y-56763251D01*
X77144674Y-56587805D01*
X77139357Y-56580211D01*
X77139355Y-56580208D01*
X77136198Y-56575700D01*
X76974300Y-56413802D01*
X76969792Y-56410645D01*
X76969789Y-56410643D01*
X76839507Y-56319419D01*
X76786749Y-56282477D01*
X76781767Y-56280154D01*
X76781762Y-56280151D01*
X76747543Y-56264195D01*
X76694258Y-56217278D01*
X76674797Y-56149001D01*
X76695339Y-56081041D01*
X76747543Y-56035805D01*
X76781762Y-56019849D01*
X76781767Y-56019846D01*
X76786749Y-56017523D01*
X76896333Y-55940791D01*
X76969789Y-55889357D01*
X76969792Y-55889355D01*
X76974300Y-55886198D01*
X77136198Y-55724300D01*
X77267523Y-55536749D01*
X77269846Y-55531767D01*
X77269849Y-55531762D01*
X77361961Y-55334225D01*
X77361961Y-55334224D01*
X77364284Y-55329243D01*
X77406585Y-55171377D01*
X77422119Y-55113402D01*
X77422119Y-55113400D01*
X77423543Y-55108087D01*
X77443498Y-54880000D01*
X77423543Y-54651913D01*
X77364284Y-54430757D01*
X77361961Y-54425775D01*
X77269849Y-54228238D01*
X77269846Y-54228233D01*
X77267523Y-54223251D01*
X77194098Y-54118389D01*
X77139357Y-54040211D01*
X77139355Y-54040208D01*
X77136198Y-54035700D01*
X76974300Y-53873802D01*
X76969792Y-53870645D01*
X76969789Y-53870643D01*
X76853305Y-53789080D01*
X76786749Y-53742477D01*
X76781767Y-53740154D01*
X76781762Y-53740151D01*
X76747543Y-53724195D01*
X76694258Y-53677278D01*
X76674797Y-53609001D01*
X76695339Y-53541041D01*
X76747543Y-53495805D01*
X76781762Y-53479849D01*
X76781767Y-53479846D01*
X76786749Y-53477523D01*
X76918307Y-53385405D01*
X76969789Y-53349357D01*
X76969792Y-53349355D01*
X76974300Y-53346198D01*
X77136198Y-53184300D01*
X77157660Y-53153650D01*
X77264366Y-53001257D01*
X77267523Y-52996749D01*
X77269846Y-52991767D01*
X77269849Y-52991762D01*
X77361961Y-52794225D01*
X77361961Y-52794224D01*
X77364284Y-52789243D01*
X77423543Y-52568087D01*
X77443498Y-52340000D01*
X77423543Y-52111913D01*
X77364284Y-51890757D01*
X77346615Y-51852866D01*
X77269849Y-51688238D01*
X77269846Y-51688233D01*
X77267523Y-51683251D01*
X77136198Y-51495700D01*
X76974300Y-51333802D01*
X76969792Y-51330645D01*
X76969789Y-51330643D01*
X76794472Y-51207885D01*
X76786749Y-51202477D01*
X76781767Y-51200154D01*
X76781762Y-51200151D01*
X76747543Y-51184195D01*
X76694258Y-51137278D01*
X76674797Y-51069001D01*
X76695339Y-51001041D01*
X76747543Y-50955805D01*
X76781762Y-50939849D01*
X76781767Y-50939846D01*
X76786749Y-50937523D01*
X76891611Y-50864098D01*
X76969789Y-50809357D01*
X76969792Y-50809355D01*
X76974300Y-50806198D01*
X77136198Y-50644300D01*
X77267523Y-50456749D01*
X77269846Y-50451767D01*
X77269849Y-50451762D01*
X77361961Y-50254225D01*
X77361961Y-50254224D01*
X77364284Y-50249243D01*
X77423543Y-50028087D01*
X77443498Y-49800000D01*
X77423543Y-49571913D01*
X77364284Y-49350757D01*
X77361961Y-49345775D01*
X77269849Y-49148238D01*
X77269846Y-49148233D01*
X77267523Y-49143251D01*
X77136198Y-48955700D01*
X76974300Y-48793802D01*
X76969792Y-48790645D01*
X76969789Y-48790643D01*
X76891611Y-48735902D01*
X76786749Y-48662477D01*
X76781767Y-48660154D01*
X76781762Y-48660151D01*
X76747543Y-48644195D01*
X76694258Y-48597278D01*
X76674797Y-48529001D01*
X76695339Y-48461041D01*
X76747543Y-48415805D01*
X76781762Y-48399849D01*
X76781767Y-48399846D01*
X76786749Y-48397523D01*
X76891611Y-48324098D01*
X76969789Y-48269357D01*
X76969792Y-48269355D01*
X76974300Y-48266198D01*
X77136198Y-48104300D01*
X77267523Y-47916749D01*
X77269846Y-47911767D01*
X77269849Y-47911762D01*
X77361961Y-47714225D01*
X77361961Y-47714224D01*
X77364284Y-47709243D01*
X77423543Y-47488087D01*
X77443498Y-47260000D01*
X77423543Y-47031913D01*
X77364284Y-46810757D01*
X77361961Y-46805775D01*
X77269849Y-46608238D01*
X77269846Y-46608233D01*
X77267523Y-46603251D01*
X77136198Y-46415700D01*
X76974300Y-46253802D01*
X76969792Y-46250645D01*
X76969789Y-46250643D01*
X76810937Y-46139414D01*
X76786749Y-46122477D01*
X76781767Y-46120154D01*
X76781762Y-46120151D01*
X76747543Y-46104195D01*
X76694258Y-46057278D01*
X76674797Y-45989001D01*
X76695339Y-45921041D01*
X76747543Y-45875805D01*
X76781762Y-45859849D01*
X76781767Y-45859846D01*
X76786749Y-45857523D01*
X76800158Y-45848134D01*
X80691500Y-45848134D01*
X80698255Y-45910316D01*
X80749385Y-46046705D01*
X80836739Y-46163261D01*
X80953295Y-46250615D01*
X81089684Y-46301745D01*
X81151866Y-46308500D01*
X82848134Y-46308500D01*
X82910316Y-46301745D01*
X83046705Y-46250615D01*
X83163261Y-46163261D01*
X83221119Y-46086062D01*
X84778493Y-46086062D01*
X84787789Y-46098077D01*
X84838994Y-46133931D01*
X84848489Y-46139414D01*
X85045947Y-46231490D01*
X85056239Y-46235236D01*
X85266688Y-46291625D01*
X85277481Y-46293528D01*
X85494525Y-46312517D01*
X85505475Y-46312517D01*
X85722519Y-46293528D01*
X85733312Y-46291625D01*
X85943761Y-46235236D01*
X85954053Y-46231490D01*
X86151511Y-46139414D01*
X86161006Y-46133931D01*
X86213048Y-46097491D01*
X86221424Y-46087012D01*
X86214356Y-46073566D01*
X85512812Y-45372022D01*
X85498868Y-45364408D01*
X85497035Y-45364539D01*
X85490420Y-45368790D01*
X84784923Y-46074287D01*
X84778493Y-46086062D01*
X83221119Y-46086062D01*
X83250615Y-46046705D01*
X83301745Y-45910316D01*
X83308500Y-45848134D01*
X83308500Y-45005475D01*
X84187483Y-45005475D01*
X84206472Y-45222519D01*
X84208375Y-45233312D01*
X84264764Y-45443761D01*
X84268510Y-45454053D01*
X84360586Y-45651511D01*
X84366069Y-45661006D01*
X84402509Y-45713048D01*
X84412988Y-45721424D01*
X84426434Y-45714356D01*
X85127978Y-45012812D01*
X85134356Y-45001132D01*
X85864408Y-45001132D01*
X85864539Y-45002965D01*
X85868790Y-45009580D01*
X86574287Y-45715077D01*
X86586062Y-45721507D01*
X86598077Y-45712211D01*
X86633931Y-45661006D01*
X86639414Y-45651511D01*
X86731490Y-45454053D01*
X86735236Y-45443761D01*
X86791625Y-45233312D01*
X86793528Y-45222519D01*
X86812517Y-45005475D01*
X86812517Y-44994525D01*
X86793528Y-44777481D01*
X86791625Y-44766688D01*
X86735236Y-44556239D01*
X86731490Y-44545947D01*
X86639414Y-44348489D01*
X86633931Y-44338994D01*
X86597491Y-44286952D01*
X86587012Y-44278576D01*
X86573566Y-44285644D01*
X85872022Y-44987188D01*
X85864408Y-45001132D01*
X85134356Y-45001132D01*
X85135592Y-44998868D01*
X85135461Y-44997035D01*
X85131210Y-44990420D01*
X84425713Y-44284923D01*
X84413938Y-44278493D01*
X84401923Y-44287789D01*
X84366069Y-44338994D01*
X84360586Y-44348489D01*
X84268510Y-44545947D01*
X84264764Y-44556239D01*
X84208375Y-44766688D01*
X84206472Y-44777481D01*
X84187483Y-44994525D01*
X84187483Y-45005475D01*
X83308500Y-45005475D01*
X83308500Y-44151866D01*
X83301745Y-44089684D01*
X83250615Y-43953295D01*
X83220407Y-43912988D01*
X84778576Y-43912988D01*
X84785644Y-43926434D01*
X85487188Y-44627978D01*
X85501132Y-44635592D01*
X85502965Y-44635461D01*
X85509580Y-44631210D01*
X86215077Y-43925713D01*
X86221507Y-43913938D01*
X86212211Y-43901923D01*
X86161006Y-43866069D01*
X86151511Y-43860586D01*
X85954053Y-43768510D01*
X85943761Y-43764764D01*
X85733312Y-43708375D01*
X85722519Y-43706472D01*
X85505475Y-43687483D01*
X85494525Y-43687483D01*
X85277481Y-43706472D01*
X85266688Y-43708375D01*
X85056239Y-43764764D01*
X85045947Y-43768510D01*
X84848489Y-43860586D01*
X84838994Y-43866069D01*
X84786952Y-43902509D01*
X84778576Y-43912988D01*
X83220407Y-43912988D01*
X83163261Y-43836739D01*
X83046705Y-43749385D01*
X82910316Y-43698255D01*
X82848134Y-43691500D01*
X81151866Y-43691500D01*
X81089684Y-43698255D01*
X80953295Y-43749385D01*
X80836739Y-43836739D01*
X80749385Y-43953295D01*
X80698255Y-44089684D01*
X80691500Y-44151866D01*
X80691500Y-45848134D01*
X76800158Y-45848134D01*
X76891611Y-45784098D01*
X76969789Y-45729357D01*
X76969792Y-45729355D01*
X76974300Y-45726198D01*
X77136198Y-45564300D01*
X77172155Y-45512949D01*
X77213394Y-45454053D01*
X77267523Y-45376749D01*
X77269846Y-45371767D01*
X77269849Y-45371762D01*
X77361961Y-45174225D01*
X77361961Y-45174224D01*
X77364284Y-45169243D01*
X77392424Y-45064226D01*
X77422119Y-44953402D01*
X77422119Y-44953400D01*
X77423543Y-44948087D01*
X77443498Y-44720000D01*
X77423543Y-44491913D01*
X77413244Y-44453478D01*
X77365707Y-44276067D01*
X77365706Y-44276065D01*
X77364284Y-44270757D01*
X77361961Y-44265775D01*
X77269849Y-44068238D01*
X77269846Y-44068233D01*
X77267523Y-44063251D01*
X77177343Y-43934461D01*
X77139357Y-43880211D01*
X77139355Y-43880208D01*
X77136198Y-43875700D01*
X76974300Y-43713802D01*
X76969792Y-43710645D01*
X76969789Y-43710643D01*
X76891611Y-43655902D01*
X76786749Y-43582477D01*
X76781767Y-43580154D01*
X76781762Y-43580151D01*
X76747543Y-43564195D01*
X76694258Y-43517278D01*
X76674797Y-43449001D01*
X76695339Y-43381041D01*
X76747543Y-43335805D01*
X76781762Y-43319849D01*
X76781767Y-43319846D01*
X76786749Y-43317523D01*
X76891611Y-43244098D01*
X76969789Y-43189357D01*
X76969792Y-43189355D01*
X76974300Y-43186198D01*
X77136198Y-43024300D01*
X77267523Y-42836749D01*
X77269846Y-42831767D01*
X77269849Y-42831762D01*
X77361961Y-42634225D01*
X77361961Y-42634224D01*
X77364284Y-42629243D01*
X77417541Y-42430489D01*
X77422119Y-42413402D01*
X77422119Y-42413400D01*
X77423543Y-42408087D01*
X77443498Y-42180000D01*
X77423543Y-41951913D01*
X77390315Y-41827905D01*
X77365707Y-41736067D01*
X77365706Y-41736065D01*
X77364284Y-41730757D01*
X77301715Y-41596576D01*
X77269849Y-41528238D01*
X77269846Y-41528233D01*
X77267523Y-41523251D01*
X77164680Y-41376376D01*
X77139357Y-41340211D01*
X77139355Y-41340208D01*
X77136198Y-41335700D01*
X76974300Y-41173802D01*
X76969792Y-41170645D01*
X76969789Y-41170643D01*
X76839653Y-41079521D01*
X76786749Y-41042477D01*
X76781767Y-41040154D01*
X76781762Y-41040151D01*
X76747543Y-41024195D01*
X76694258Y-40977278D01*
X76674797Y-40909001D01*
X76695339Y-40841041D01*
X76747543Y-40795805D01*
X76781762Y-40779849D01*
X76781767Y-40779846D01*
X76786749Y-40777523D01*
X76891611Y-40704098D01*
X76969789Y-40649357D01*
X76969792Y-40649355D01*
X76974300Y-40646198D01*
X77136198Y-40484300D01*
X77267523Y-40296749D01*
X77269846Y-40291767D01*
X77269849Y-40291762D01*
X77361961Y-40094225D01*
X77361961Y-40094224D01*
X77364284Y-40089243D01*
X77423543Y-39868087D01*
X77443498Y-39640000D01*
X77423543Y-39411913D01*
X77364284Y-39190757D01*
X77361961Y-39185775D01*
X77269849Y-38988238D01*
X77269846Y-38988233D01*
X77267523Y-38983251D01*
X77143903Y-38806704D01*
X77139357Y-38800211D01*
X77139355Y-38800208D01*
X77136198Y-38795700D01*
X76974300Y-38633802D01*
X76969792Y-38630645D01*
X76969789Y-38630643D01*
X76891611Y-38575902D01*
X76786749Y-38502477D01*
X76781767Y-38500154D01*
X76781762Y-38500151D01*
X76747543Y-38484195D01*
X76694258Y-38437278D01*
X76674797Y-38369001D01*
X76695339Y-38301041D01*
X76747543Y-38255805D01*
X76781762Y-38239849D01*
X76781767Y-38239846D01*
X76786749Y-38237523D01*
X76891611Y-38164098D01*
X76969789Y-38109357D01*
X76969792Y-38109355D01*
X76974300Y-38106198D01*
X77136198Y-37944300D01*
X77267523Y-37756749D01*
X77269846Y-37751767D01*
X77269849Y-37751762D01*
X77361961Y-37554225D01*
X77361961Y-37554224D01*
X77364284Y-37549243D01*
X77423543Y-37328087D01*
X77443498Y-37100000D01*
X77423543Y-36871913D01*
X77419061Y-36855186D01*
X77365707Y-36656067D01*
X77365706Y-36656065D01*
X77364284Y-36650757D01*
X77361961Y-36645775D01*
X77269849Y-36448238D01*
X77269846Y-36448233D01*
X77267523Y-36443251D01*
X77136198Y-36255700D01*
X76974300Y-36093802D01*
X76969792Y-36090645D01*
X76969789Y-36090643D01*
X76891611Y-36035902D01*
X76786749Y-35962477D01*
X76781767Y-35960154D01*
X76781762Y-35960151D01*
X76747543Y-35944195D01*
X76694258Y-35897278D01*
X76674797Y-35829001D01*
X76695339Y-35761041D01*
X76747543Y-35715805D01*
X76781762Y-35699849D01*
X76781767Y-35699846D01*
X76786749Y-35697523D01*
X76891611Y-35624098D01*
X76969789Y-35569357D01*
X76969792Y-35569355D01*
X76974300Y-35566198D01*
X77136198Y-35404300D01*
X77267523Y-35216749D01*
X77269846Y-35211767D01*
X77269849Y-35211762D01*
X77361961Y-35014225D01*
X77361961Y-35014224D01*
X77364284Y-35009243D01*
X77423543Y-34788087D01*
X77443498Y-34560000D01*
X77423543Y-34331913D01*
X77411911Y-34288503D01*
X77365707Y-34116067D01*
X77365706Y-34116065D01*
X77364284Y-34110757D01*
X77269966Y-33908489D01*
X77269849Y-33908238D01*
X77269846Y-33908233D01*
X77267523Y-33903251D01*
X77151585Y-33737675D01*
X77139357Y-33720211D01*
X77139355Y-33720208D01*
X77136198Y-33715700D01*
X76974300Y-33553802D01*
X76969792Y-33550645D01*
X76969789Y-33550643D01*
X76865251Y-33477445D01*
X76786749Y-33422477D01*
X76781767Y-33420154D01*
X76781762Y-33420151D01*
X76747543Y-33404195D01*
X76694258Y-33357278D01*
X76674797Y-33289001D01*
X76695339Y-33221041D01*
X76747543Y-33175805D01*
X76781762Y-33159849D01*
X76781767Y-33159846D01*
X76786749Y-33157523D01*
X76891611Y-33084098D01*
X76969789Y-33029357D01*
X76969792Y-33029355D01*
X76974300Y-33026198D01*
X77136198Y-32864300D01*
X77267523Y-32676749D01*
X77269846Y-32671767D01*
X77269849Y-32671762D01*
X77361961Y-32474225D01*
X77361961Y-32474224D01*
X77364284Y-32469243D01*
X77399137Y-32339173D01*
X77422119Y-32253402D01*
X77422119Y-32253400D01*
X77423543Y-32248087D01*
X77443498Y-32020000D01*
X77423543Y-31791913D01*
X77371202Y-31596576D01*
X77365707Y-31576067D01*
X77365706Y-31576065D01*
X77364284Y-31570757D01*
X77303835Y-31441122D01*
X77269849Y-31368238D01*
X77269846Y-31368233D01*
X77267523Y-31363251D01*
X77179442Y-31237458D01*
X77139357Y-31180211D01*
X77139355Y-31180208D01*
X77136198Y-31175700D01*
X76974300Y-31013802D01*
X76969792Y-31010645D01*
X76969789Y-31010643D01*
X76891611Y-30955902D01*
X76786749Y-30882477D01*
X76781767Y-30880154D01*
X76781762Y-30880151D01*
X76746951Y-30863919D01*
X76693666Y-30817002D01*
X76674205Y-30748725D01*
X76694747Y-30680765D01*
X76746951Y-30635529D01*
X76781511Y-30619414D01*
X76791007Y-30613931D01*
X76969467Y-30488972D01*
X76977875Y-30481916D01*
X77131916Y-30327875D01*
X77138972Y-30319467D01*
X77263931Y-30141007D01*
X77269414Y-30131511D01*
X77361490Y-29934053D01*
X77365236Y-29923761D01*
X77411394Y-29751497D01*
X77411058Y-29737401D01*
X77403116Y-29734000D01*
X74862033Y-29734000D01*
X74848502Y-29737973D01*
X74847273Y-29746522D01*
X74894764Y-29923761D01*
X74898510Y-29934053D01*
X74990586Y-30131511D01*
X74996069Y-30141007D01*
X75121028Y-30319467D01*
X75128084Y-30327875D01*
X75282125Y-30481916D01*
X75290533Y-30488972D01*
X75468993Y-30613931D01*
X75478489Y-30619414D01*
X75513049Y-30635529D01*
X75566334Y-30682446D01*
X75585795Y-30750723D01*
X75565253Y-30818683D01*
X75513049Y-30863919D01*
X75478238Y-30880151D01*
X75478233Y-30880154D01*
X75473251Y-30882477D01*
X75368389Y-30955902D01*
X75290211Y-31010643D01*
X75290208Y-31010645D01*
X75285700Y-31013802D01*
X75123802Y-31175700D01*
X75120645Y-31180208D01*
X75120643Y-31180211D01*
X75080558Y-31237458D01*
X74992477Y-31363251D01*
X74990154Y-31368233D01*
X74990151Y-31368238D01*
X74956165Y-31441122D01*
X74895716Y-31570757D01*
X74894294Y-31576065D01*
X74894293Y-31576067D01*
X74888798Y-31596576D01*
X74836457Y-31791913D01*
X74816502Y-32020000D01*
X74836457Y-32248087D01*
X74837881Y-32253400D01*
X74837881Y-32253402D01*
X74860864Y-32339173D01*
X74895716Y-32469243D01*
X74898039Y-32474224D01*
X74898039Y-32474225D01*
X74990151Y-32671762D01*
X74990154Y-32671767D01*
X74992477Y-32676749D01*
X75123802Y-32864300D01*
X75285700Y-33026198D01*
X75290208Y-33029355D01*
X75290211Y-33029357D01*
X75368389Y-33084098D01*
X75473251Y-33157523D01*
X75478233Y-33159846D01*
X75478238Y-33159849D01*
X75512457Y-33175805D01*
X75565742Y-33222722D01*
X75585203Y-33290999D01*
X75564661Y-33358959D01*
X75512457Y-33404195D01*
X75478238Y-33420151D01*
X75478233Y-33420154D01*
X75473251Y-33422477D01*
X75394749Y-33477445D01*
X75290211Y-33550643D01*
X75290208Y-33550645D01*
X75285700Y-33553802D01*
X75123802Y-33715700D01*
X75120645Y-33720208D01*
X75120643Y-33720211D01*
X75108415Y-33737675D01*
X74992477Y-33903251D01*
X74990154Y-33908233D01*
X74990151Y-33908238D01*
X74990034Y-33908489D01*
X74895716Y-34110757D01*
X74894294Y-34116065D01*
X74894293Y-34116067D01*
X74848089Y-34288503D01*
X74836457Y-34331913D01*
X74816502Y-34560000D01*
X74836457Y-34788087D01*
X74895716Y-35009243D01*
X74898039Y-35014224D01*
X74898039Y-35014225D01*
X74990151Y-35211762D01*
X74990154Y-35211767D01*
X74992477Y-35216749D01*
X75123802Y-35404300D01*
X75285700Y-35566198D01*
X75290208Y-35569355D01*
X75290211Y-35569357D01*
X75368389Y-35624098D01*
X75473251Y-35697523D01*
X75478233Y-35699846D01*
X75478238Y-35699849D01*
X75512457Y-35715805D01*
X75565742Y-35762722D01*
X75585203Y-35830999D01*
X75564661Y-35898959D01*
X75512457Y-35944195D01*
X75478238Y-35960151D01*
X75478233Y-35960154D01*
X75473251Y-35962477D01*
X75368389Y-36035902D01*
X75290211Y-36090643D01*
X75290208Y-36090645D01*
X75285700Y-36093802D01*
X75123802Y-36255700D01*
X74992477Y-36443251D01*
X74990154Y-36448233D01*
X74990151Y-36448238D01*
X74898039Y-36645775D01*
X74895716Y-36650757D01*
X74894294Y-36656065D01*
X74894293Y-36656067D01*
X74840939Y-36855186D01*
X74836457Y-36871913D01*
X74816502Y-37100000D01*
X74836457Y-37328087D01*
X74895716Y-37549243D01*
X74898039Y-37554224D01*
X74898039Y-37554225D01*
X74990151Y-37751762D01*
X74990154Y-37751767D01*
X74992477Y-37756749D01*
X75123802Y-37944300D01*
X75285700Y-38106198D01*
X75290208Y-38109355D01*
X75290211Y-38109357D01*
X75368389Y-38164098D01*
X75473251Y-38237523D01*
X75478233Y-38239846D01*
X75478238Y-38239849D01*
X75512457Y-38255805D01*
X75565742Y-38302722D01*
X75585203Y-38370999D01*
X75564661Y-38438959D01*
X75512457Y-38484195D01*
X75478238Y-38500151D01*
X75478233Y-38500154D01*
X75473251Y-38502477D01*
X75368389Y-38575902D01*
X75290211Y-38630643D01*
X75290208Y-38630645D01*
X75285700Y-38633802D01*
X75123802Y-38795700D01*
X75120645Y-38800208D01*
X75120643Y-38800211D01*
X75116097Y-38806704D01*
X74992477Y-38983251D01*
X74990154Y-38988233D01*
X74990151Y-38988238D01*
X74898039Y-39185775D01*
X74895716Y-39190757D01*
X74836457Y-39411913D01*
X74816502Y-39640000D01*
X74836457Y-39868087D01*
X74895716Y-40089243D01*
X74898039Y-40094224D01*
X74898039Y-40094225D01*
X74990151Y-40291762D01*
X74990154Y-40291767D01*
X74992477Y-40296749D01*
X75123802Y-40484300D01*
X75285700Y-40646198D01*
X75290208Y-40649355D01*
X75290211Y-40649357D01*
X75368389Y-40704098D01*
X75473251Y-40777523D01*
X75478233Y-40779846D01*
X75478238Y-40779849D01*
X75512457Y-40795805D01*
X75565742Y-40842722D01*
X75585203Y-40910999D01*
X75564661Y-40978959D01*
X75512457Y-41024195D01*
X75478238Y-41040151D01*
X75478233Y-41040154D01*
X75473251Y-41042477D01*
X75420347Y-41079521D01*
X75290211Y-41170643D01*
X75290208Y-41170645D01*
X75285700Y-41173802D01*
X75123802Y-41335700D01*
X75120645Y-41340208D01*
X75120643Y-41340211D01*
X75095320Y-41376376D01*
X74992477Y-41523251D01*
X74990154Y-41528233D01*
X74990151Y-41528238D01*
X74958285Y-41596576D01*
X74895716Y-41730757D01*
X74894294Y-41736065D01*
X74894293Y-41736067D01*
X74869685Y-41827905D01*
X74836457Y-41951913D01*
X74816502Y-42180000D01*
X74836457Y-42408087D01*
X74837881Y-42413400D01*
X74837881Y-42413402D01*
X74842460Y-42430489D01*
X74895716Y-42629243D01*
X74898039Y-42634224D01*
X74898039Y-42634225D01*
X74990151Y-42831762D01*
X74990154Y-42831767D01*
X74992477Y-42836749D01*
X75123802Y-43024300D01*
X75285700Y-43186198D01*
X75290208Y-43189355D01*
X75290211Y-43189357D01*
X75368389Y-43244098D01*
X75473251Y-43317523D01*
X75478233Y-43319846D01*
X75478238Y-43319849D01*
X75512457Y-43335805D01*
X75565742Y-43382722D01*
X75585203Y-43450999D01*
X75564661Y-43518959D01*
X75512457Y-43564195D01*
X75478238Y-43580151D01*
X75478233Y-43580154D01*
X75473251Y-43582477D01*
X75368389Y-43655902D01*
X75290211Y-43710643D01*
X75290208Y-43710645D01*
X75285700Y-43713802D01*
X75123802Y-43875700D01*
X75120645Y-43880208D01*
X75120643Y-43880211D01*
X75082657Y-43934461D01*
X74992477Y-44063251D01*
X74990154Y-44068233D01*
X74990151Y-44068238D01*
X74898039Y-44265775D01*
X74895716Y-44270757D01*
X74894294Y-44276065D01*
X74894293Y-44276067D01*
X74846756Y-44453478D01*
X74836457Y-44491913D01*
X74816502Y-44720000D01*
X74836457Y-44948087D01*
X74837881Y-44953400D01*
X74837881Y-44953402D01*
X74867577Y-45064226D01*
X74895716Y-45169243D01*
X74898039Y-45174224D01*
X74898039Y-45174225D01*
X74990151Y-45371762D01*
X74990154Y-45371767D01*
X74992477Y-45376749D01*
X75046606Y-45454053D01*
X75087846Y-45512949D01*
X75123802Y-45564300D01*
X75285700Y-45726198D01*
X75290208Y-45729355D01*
X75290211Y-45729357D01*
X75368389Y-45784098D01*
X75473251Y-45857523D01*
X75478233Y-45859846D01*
X75478238Y-45859849D01*
X75512457Y-45875805D01*
X75565742Y-45922722D01*
X75585203Y-45990999D01*
X75564661Y-46058959D01*
X75512457Y-46104195D01*
X75478238Y-46120151D01*
X75478233Y-46120154D01*
X75473251Y-46122477D01*
X75449063Y-46139414D01*
X75290211Y-46250643D01*
X75290208Y-46250645D01*
X75285700Y-46253802D01*
X75123802Y-46415700D01*
X74992477Y-46603251D01*
X74990154Y-46608233D01*
X74990151Y-46608238D01*
X74898039Y-46805775D01*
X74895716Y-46810757D01*
X74836457Y-47031913D01*
X74816502Y-47260000D01*
X74836457Y-47488087D01*
X74895716Y-47709243D01*
X74898039Y-47714224D01*
X74898039Y-47714225D01*
X74990151Y-47911762D01*
X74990154Y-47911767D01*
X74992477Y-47916749D01*
X75123802Y-48104300D01*
X75285700Y-48266198D01*
X75290208Y-48269355D01*
X75290211Y-48269357D01*
X75368389Y-48324098D01*
X75473251Y-48397523D01*
X75478233Y-48399846D01*
X75478238Y-48399849D01*
X75512457Y-48415805D01*
X75565742Y-48462722D01*
X75585203Y-48530999D01*
X75564661Y-48598959D01*
X75512457Y-48644195D01*
X75478238Y-48660151D01*
X75478233Y-48660154D01*
X75473251Y-48662477D01*
X75368389Y-48735902D01*
X75290211Y-48790643D01*
X75290208Y-48790645D01*
X75285700Y-48793802D01*
X75123802Y-48955700D01*
X74992477Y-49143251D01*
X74990154Y-49148233D01*
X74990151Y-49148238D01*
X74898039Y-49345775D01*
X74895716Y-49350757D01*
X74836457Y-49571913D01*
X74816502Y-49800000D01*
X74836457Y-50028087D01*
X74895716Y-50249243D01*
X74898039Y-50254224D01*
X74898039Y-50254225D01*
X74990151Y-50451762D01*
X74990154Y-50451767D01*
X74992477Y-50456749D01*
X75123802Y-50644300D01*
X75285700Y-50806198D01*
X75290208Y-50809355D01*
X75290211Y-50809357D01*
X75368389Y-50864098D01*
X75473251Y-50937523D01*
X75478233Y-50939846D01*
X75478238Y-50939849D01*
X75512457Y-50955805D01*
X75565742Y-51002722D01*
X75585203Y-51070999D01*
X75564661Y-51138959D01*
X75512457Y-51184195D01*
X75478238Y-51200151D01*
X75478233Y-51200154D01*
X75473251Y-51202477D01*
X75465528Y-51207885D01*
X75290211Y-51330643D01*
X75290208Y-51330645D01*
X75285700Y-51333802D01*
X75123802Y-51495700D01*
X74992477Y-51683251D01*
X74990154Y-51688233D01*
X74990151Y-51688238D01*
X74913385Y-51852866D01*
X74895716Y-51890757D01*
X74836457Y-52111913D01*
X74816502Y-52340000D01*
X74836457Y-52568087D01*
X74895716Y-52789243D01*
X74898039Y-52794224D01*
X74898039Y-52794225D01*
X74990151Y-52991762D01*
X74990154Y-52991767D01*
X74992477Y-52996749D01*
X74995634Y-53001257D01*
X75102341Y-53153650D01*
X75123802Y-53184300D01*
X75285700Y-53346198D01*
X75290208Y-53349355D01*
X75290211Y-53349357D01*
X75341693Y-53385405D01*
X75473251Y-53477523D01*
X75478233Y-53479846D01*
X75478238Y-53479849D01*
X75512457Y-53495805D01*
X75565742Y-53542722D01*
X75585203Y-53610999D01*
X75564661Y-53678959D01*
X75512457Y-53724195D01*
X75478238Y-53740151D01*
X75478233Y-53740154D01*
X75473251Y-53742477D01*
X75406695Y-53789080D01*
X75290211Y-53870643D01*
X75290208Y-53870645D01*
X75285700Y-53873802D01*
X75123802Y-54035700D01*
X75120645Y-54040208D01*
X75120643Y-54040211D01*
X75065902Y-54118389D01*
X74992477Y-54223251D01*
X74990154Y-54228233D01*
X74990151Y-54228238D01*
X74898039Y-54425775D01*
X74895716Y-54430757D01*
X74836457Y-54651913D01*
X74816502Y-54880000D01*
X74836457Y-55108087D01*
X74837881Y-55113400D01*
X74837881Y-55113402D01*
X74853416Y-55171377D01*
X74895716Y-55329243D01*
X74898039Y-55334224D01*
X74898039Y-55334225D01*
X74990151Y-55531762D01*
X74990154Y-55531767D01*
X74992477Y-55536749D01*
X75123802Y-55724300D01*
X75285700Y-55886198D01*
X75290208Y-55889355D01*
X75290211Y-55889357D01*
X75363667Y-55940791D01*
X75473251Y-56017523D01*
X75478233Y-56019846D01*
X75478238Y-56019849D01*
X75512457Y-56035805D01*
X75565742Y-56082722D01*
X75585203Y-56150999D01*
X75564661Y-56218959D01*
X75512457Y-56264195D01*
X75478238Y-56280151D01*
X75478233Y-56280154D01*
X75473251Y-56282477D01*
X75420493Y-56319419D01*
X75290211Y-56410643D01*
X75290208Y-56410645D01*
X75285700Y-56413802D01*
X75123802Y-56575700D01*
X75120645Y-56580208D01*
X75120643Y-56580211D01*
X75115326Y-56587805D01*
X74992477Y-56763251D01*
X74990154Y-56768233D01*
X74990151Y-56768238D01*
X74899938Y-56961703D01*
X74895716Y-56970757D01*
X74894294Y-56976065D01*
X74894293Y-56976067D01*
X74846272Y-57155283D01*
X74836457Y-57191913D01*
X74816502Y-57420000D01*
X74836457Y-57648087D01*
X74837881Y-57653400D01*
X74837881Y-57653402D01*
X74883410Y-57823315D01*
X74895716Y-57869243D01*
X74898039Y-57874224D01*
X74898039Y-57874225D01*
X74990151Y-58071762D01*
X74990154Y-58071767D01*
X74992477Y-58076749D01*
X75041255Y-58146411D01*
X75094547Y-58222519D01*
X75123802Y-58264300D01*
X75285700Y-58426198D01*
X75290208Y-58429355D01*
X75290211Y-58429357D01*
X75341693Y-58465405D01*
X75473251Y-58557523D01*
X75478233Y-58559846D01*
X75478238Y-58559849D01*
X75512457Y-58575805D01*
X75565742Y-58622722D01*
X75585203Y-58690999D01*
X75564661Y-58758959D01*
X75512457Y-58804195D01*
X75478238Y-58820151D01*
X75478233Y-58820154D01*
X75473251Y-58822477D01*
X75391443Y-58879760D01*
X75290211Y-58950643D01*
X75290208Y-58950645D01*
X75285700Y-58953802D01*
X75123802Y-59115700D01*
X75120645Y-59120208D01*
X75120643Y-59120211D01*
X75075953Y-59184035D01*
X74992477Y-59303251D01*
X74990154Y-59308233D01*
X74990151Y-59308238D01*
X74898039Y-59505775D01*
X74895716Y-59510757D01*
X74894294Y-59516065D01*
X74894293Y-59516067D01*
X74841654Y-59712516D01*
X74836457Y-59731913D01*
X74816502Y-59960000D01*
X74836457Y-60188087D01*
X74837881Y-60193400D01*
X74837881Y-60193402D01*
X74887888Y-60380027D01*
X74895716Y-60409243D01*
X74898039Y-60414224D01*
X74898039Y-60414225D01*
X74990151Y-60611762D01*
X74990154Y-60611767D01*
X74992477Y-60616749D01*
X75059605Y-60712617D01*
X75119921Y-60798757D01*
X75123802Y-60804300D01*
X75285700Y-60966198D01*
X75290208Y-60969355D01*
X75290211Y-60969357D01*
X75341692Y-61005404D01*
X75473251Y-61097523D01*
X75478233Y-61099846D01*
X75478238Y-61099849D01*
X75512457Y-61115805D01*
X75565742Y-61162722D01*
X75585203Y-61230999D01*
X75564661Y-61298959D01*
X75512457Y-61344195D01*
X75478238Y-61360151D01*
X75478233Y-61360154D01*
X75473251Y-61362477D01*
X75367090Y-61436812D01*
X75321531Y-61468713D01*
X75249260Y-61491500D01*
X74561843Y-61491500D01*
X74548236Y-61490763D01*
X74516738Y-61487341D01*
X74516733Y-61487341D01*
X74510612Y-61486676D01*
X74484362Y-61488973D01*
X74460612Y-61491050D01*
X74455786Y-61491379D01*
X74453314Y-61491500D01*
X74450231Y-61491500D01*
X74438262Y-61492674D01*
X74407494Y-61495690D01*
X74406181Y-61495812D01*
X74361916Y-61499685D01*
X74313587Y-61503913D01*
X74308468Y-61505400D01*
X74303167Y-61505920D01*
X74214166Y-61532791D01*
X74213033Y-61533126D01*
X74129586Y-61557370D01*
X74129582Y-61557372D01*
X74123664Y-61559091D01*
X74118932Y-61561544D01*
X74113831Y-61563084D01*
X74108388Y-61565978D01*
X74031740Y-61606731D01*
X74030574Y-61607343D01*
X73953547Y-61647271D01*
X73948074Y-61650108D01*
X73943911Y-61653431D01*
X73939204Y-61655934D01*
X73934429Y-61659828D01*
X73934428Y-61659829D01*
X73867102Y-61714739D01*
X73866075Y-61715567D01*
X73829792Y-61744531D01*
X73829787Y-61744536D01*
X73827028Y-61746738D01*
X73824527Y-61749239D01*
X73823809Y-61749881D01*
X73819461Y-61753594D01*
X73785938Y-61780935D01*
X73782015Y-61785677D01*
X73782013Y-61785679D01*
X73756703Y-61816273D01*
X73748713Y-61825053D01*
X73330621Y-62243145D01*
X73320478Y-62252247D01*
X73290975Y-62275968D01*
X73287008Y-62280696D01*
X73258709Y-62314421D01*
X73255528Y-62318069D01*
X73253885Y-62319881D01*
X73251691Y-62322075D01*
X73224358Y-62355349D01*
X73223696Y-62356147D01*
X73163846Y-62427474D01*
X73161278Y-62432144D01*
X73157897Y-62436261D01*
X73134078Y-62480684D01*
X73114023Y-62518086D01*
X73113394Y-62519245D01*
X73071538Y-62595381D01*
X73071535Y-62595389D01*
X73068567Y-62600787D01*
X73066955Y-62605869D01*
X73064438Y-62610563D01*
X73037238Y-62699531D01*
X73036918Y-62700559D01*
X73008765Y-62789306D01*
X73008171Y-62794602D01*
X73006613Y-62799698D01*
X72997595Y-62888479D01*
X72997218Y-62892187D01*
X72997089Y-62893393D01*
X72991500Y-62943227D01*
X72991500Y-62946754D01*
X72991445Y-62947739D01*
X72990998Y-62953419D01*
X72986626Y-62996462D01*
X67008500Y-62996462D01*
X67008500Y-60061843D01*
X67009237Y-60048236D01*
X67012659Y-60016738D01*
X67012659Y-60016733D01*
X67013324Y-60010612D01*
X67008950Y-59960612D01*
X67008621Y-59955786D01*
X67008500Y-59953314D01*
X67008500Y-59950231D01*
X67006564Y-59930489D01*
X67004310Y-59907494D01*
X67004188Y-59906181D01*
X66996623Y-59819718D01*
X66996087Y-59813587D01*
X66994600Y-59808468D01*
X66994080Y-59803167D01*
X66967209Y-59714166D01*
X66966874Y-59713033D01*
X66942630Y-59629586D01*
X66942628Y-59629582D01*
X66940909Y-59623664D01*
X66938456Y-59618932D01*
X66936916Y-59613831D01*
X66893269Y-59531740D01*
X66892657Y-59530574D01*
X66852729Y-59453547D01*
X66849892Y-59448074D01*
X66846569Y-59443911D01*
X66844066Y-59439204D01*
X66785245Y-59367082D01*
X66784554Y-59366226D01*
X66753262Y-59327027D01*
X66750758Y-59324523D01*
X66750116Y-59323805D01*
X66746415Y-59319472D01*
X66719065Y-59285938D01*
X66683737Y-59256712D01*
X66674958Y-59248723D01*
X64176855Y-56750621D01*
X64167753Y-56740478D01*
X64147897Y-56715782D01*
X64144032Y-56710975D01*
X64105578Y-56678708D01*
X64101931Y-56675528D01*
X64100119Y-56673885D01*
X64097925Y-56671691D01*
X64064651Y-56644358D01*
X64063853Y-56643696D01*
X63992526Y-56583846D01*
X63987856Y-56581278D01*
X63983739Y-56577897D01*
X63901914Y-56534023D01*
X63900755Y-56533394D01*
X63824619Y-56491538D01*
X63824611Y-56491535D01*
X63819213Y-56488567D01*
X63814131Y-56486955D01*
X63809437Y-56484438D01*
X63720469Y-56457238D01*
X63719441Y-56456918D01*
X63630694Y-56428765D01*
X63625398Y-56428171D01*
X63620302Y-56426613D01*
X63527743Y-56417210D01*
X63526607Y-56417089D01*
X63492992Y-56413319D01*
X63480270Y-56411892D01*
X63480266Y-56411892D01*
X63476773Y-56411500D01*
X63473246Y-56411500D01*
X63472261Y-56411445D01*
X63466581Y-56410998D01*
X63437175Y-56408011D01*
X63429663Y-56407248D01*
X63429661Y-56407248D01*
X63423538Y-56406626D01*
X63381259Y-56410623D01*
X63377891Y-56410941D01*
X63366033Y-56411500D01*
X61770740Y-56411500D01*
X61698469Y-56388713D01*
X61680850Y-56376376D01*
X61546749Y-56282477D01*
X61541767Y-56280154D01*
X61541762Y-56280151D01*
X61507543Y-56264195D01*
X61454258Y-56217278D01*
X61434797Y-56149001D01*
X61455339Y-56081041D01*
X61507543Y-56035805D01*
X61541762Y-56019849D01*
X61541767Y-56019846D01*
X61546749Y-56017523D01*
X61656333Y-55940791D01*
X61729789Y-55889357D01*
X61729792Y-55889355D01*
X61734300Y-55886198D01*
X61896198Y-55724300D01*
X62027523Y-55536749D01*
X62029846Y-55531767D01*
X62029849Y-55531762D01*
X62121961Y-55334225D01*
X62121961Y-55334224D01*
X62124284Y-55329243D01*
X62166585Y-55171377D01*
X62182119Y-55113402D01*
X62182119Y-55113400D01*
X62183543Y-55108087D01*
X62203498Y-54880000D01*
X62183543Y-54651913D01*
X62124284Y-54430757D01*
X62121961Y-54425775D01*
X62029849Y-54228238D01*
X62029846Y-54228233D01*
X62027523Y-54223251D01*
X61954098Y-54118389D01*
X61899357Y-54040211D01*
X61899355Y-54040208D01*
X61896198Y-54035700D01*
X61734300Y-53873802D01*
X61729792Y-53870645D01*
X61729789Y-53870643D01*
X61613305Y-53789080D01*
X61546749Y-53742477D01*
X61541767Y-53740154D01*
X61541762Y-53740151D01*
X61507543Y-53724195D01*
X61454258Y-53677278D01*
X61434797Y-53609001D01*
X61455339Y-53541041D01*
X61507543Y-53495805D01*
X61541762Y-53479849D01*
X61541767Y-53479846D01*
X61546749Y-53477523D01*
X61678307Y-53385405D01*
X61729789Y-53349357D01*
X61729792Y-53349355D01*
X61734300Y-53346198D01*
X61896198Y-53184300D01*
X61917660Y-53153650D01*
X62024366Y-53001257D01*
X62027523Y-52996749D01*
X62029846Y-52991767D01*
X62029849Y-52991762D01*
X62121961Y-52794225D01*
X62121961Y-52794224D01*
X62124284Y-52789243D01*
X62183543Y-52568087D01*
X62203498Y-52340000D01*
X62183543Y-52111913D01*
X62124284Y-51890757D01*
X62106615Y-51852866D01*
X62029849Y-51688238D01*
X62029846Y-51688233D01*
X62027523Y-51683251D01*
X61896198Y-51495700D01*
X61734300Y-51333802D01*
X61729792Y-51330645D01*
X61729789Y-51330643D01*
X61554472Y-51207885D01*
X61546749Y-51202477D01*
X61541767Y-51200154D01*
X61541762Y-51200151D01*
X61507543Y-51184195D01*
X61454258Y-51137278D01*
X61434797Y-51069001D01*
X61455339Y-51001041D01*
X61507543Y-50955805D01*
X61541762Y-50939849D01*
X61541767Y-50939846D01*
X61546749Y-50937523D01*
X61651611Y-50864098D01*
X61729789Y-50809357D01*
X61729792Y-50809355D01*
X61734300Y-50806198D01*
X61896198Y-50644300D01*
X62027523Y-50456749D01*
X62029846Y-50451767D01*
X62029849Y-50451762D01*
X62121961Y-50254225D01*
X62121961Y-50254224D01*
X62124284Y-50249243D01*
X62183543Y-50028087D01*
X62203498Y-49800000D01*
X62183543Y-49571913D01*
X62124284Y-49350757D01*
X62121961Y-49345775D01*
X62029849Y-49148238D01*
X62029846Y-49148233D01*
X62027523Y-49143251D01*
X61896198Y-48955700D01*
X61734300Y-48793802D01*
X61729792Y-48790645D01*
X61729789Y-48790643D01*
X61651611Y-48735902D01*
X61546749Y-48662477D01*
X61541767Y-48660154D01*
X61541762Y-48660151D01*
X61507543Y-48644195D01*
X61454258Y-48597278D01*
X61434797Y-48529001D01*
X61455339Y-48461041D01*
X61507543Y-48415805D01*
X61541762Y-48399849D01*
X61541767Y-48399846D01*
X61546749Y-48397523D01*
X61651611Y-48324098D01*
X61729789Y-48269357D01*
X61729792Y-48269355D01*
X61734300Y-48266198D01*
X61896198Y-48104300D01*
X62027523Y-47916749D01*
X62029846Y-47911767D01*
X62029849Y-47911762D01*
X62121961Y-47714225D01*
X62121961Y-47714224D01*
X62124284Y-47709243D01*
X62183543Y-47488087D01*
X62203498Y-47260000D01*
X62183543Y-47031913D01*
X62124284Y-46810757D01*
X62121961Y-46805775D01*
X62029849Y-46608238D01*
X62029846Y-46608233D01*
X62027523Y-46603251D01*
X61896198Y-46415700D01*
X61734300Y-46253802D01*
X61729792Y-46250645D01*
X61729789Y-46250643D01*
X61570937Y-46139414D01*
X61546749Y-46122477D01*
X61541767Y-46120154D01*
X61541762Y-46120151D01*
X61507543Y-46104195D01*
X61454258Y-46057278D01*
X61434797Y-45989001D01*
X61455339Y-45921041D01*
X61507543Y-45875805D01*
X61541762Y-45859849D01*
X61541767Y-45859846D01*
X61546749Y-45857523D01*
X61651611Y-45784098D01*
X61729789Y-45729357D01*
X61729792Y-45729355D01*
X61734300Y-45726198D01*
X61896198Y-45564300D01*
X61932155Y-45512949D01*
X61973394Y-45454053D01*
X62027523Y-45376749D01*
X62029846Y-45371767D01*
X62029849Y-45371762D01*
X62121961Y-45174225D01*
X62121961Y-45174224D01*
X62124284Y-45169243D01*
X62152424Y-45064226D01*
X62182119Y-44953402D01*
X62182119Y-44953400D01*
X62183543Y-44948087D01*
X62203498Y-44720000D01*
X62183543Y-44491913D01*
X62173244Y-44453478D01*
X62125707Y-44276067D01*
X62125706Y-44276065D01*
X62124284Y-44270757D01*
X62121961Y-44265775D01*
X62029849Y-44068238D01*
X62029846Y-44068233D01*
X62027523Y-44063251D01*
X61937343Y-43934461D01*
X61899357Y-43880211D01*
X61899355Y-43880208D01*
X61896198Y-43875700D01*
X61734300Y-43713802D01*
X61729792Y-43710645D01*
X61729789Y-43710643D01*
X61651611Y-43655902D01*
X61546749Y-43582477D01*
X61541767Y-43580154D01*
X61541762Y-43580151D01*
X61507543Y-43564195D01*
X61454258Y-43517278D01*
X61434797Y-43449001D01*
X61455339Y-43381041D01*
X61507543Y-43335805D01*
X61541762Y-43319849D01*
X61541767Y-43319846D01*
X61546749Y-43317523D01*
X61651611Y-43244098D01*
X61729789Y-43189357D01*
X61729792Y-43189355D01*
X61734300Y-43186198D01*
X61896198Y-43024300D01*
X62027523Y-42836749D01*
X62029846Y-42831767D01*
X62029849Y-42831762D01*
X62121961Y-42634225D01*
X62121961Y-42634224D01*
X62124284Y-42629243D01*
X62177541Y-42430489D01*
X62182119Y-42413402D01*
X62182119Y-42413400D01*
X62183543Y-42408087D01*
X62203498Y-42180000D01*
X62183543Y-41951913D01*
X62150315Y-41827905D01*
X62125707Y-41736067D01*
X62125706Y-41736065D01*
X62124284Y-41730757D01*
X62061715Y-41596576D01*
X62029849Y-41528238D01*
X62029846Y-41528233D01*
X62027523Y-41523251D01*
X61924680Y-41376376D01*
X61899357Y-41340211D01*
X61899355Y-41340208D01*
X61896198Y-41335700D01*
X61734300Y-41173802D01*
X61729792Y-41170645D01*
X61729789Y-41170643D01*
X61599653Y-41079521D01*
X61546749Y-41042477D01*
X61541767Y-41040154D01*
X61541762Y-41040151D01*
X61507543Y-41024195D01*
X61454258Y-40977278D01*
X61434797Y-40909001D01*
X61455339Y-40841041D01*
X61507543Y-40795805D01*
X61541762Y-40779849D01*
X61541767Y-40779846D01*
X61546749Y-40777523D01*
X61651611Y-40704098D01*
X61729789Y-40649357D01*
X61729792Y-40649355D01*
X61734300Y-40646198D01*
X61896198Y-40484300D01*
X62027523Y-40296749D01*
X62029846Y-40291767D01*
X62029849Y-40291762D01*
X62121961Y-40094225D01*
X62121961Y-40094224D01*
X62124284Y-40089243D01*
X62183543Y-39868087D01*
X62203498Y-39640000D01*
X62183543Y-39411913D01*
X62124284Y-39190757D01*
X62121961Y-39185775D01*
X62029849Y-38988238D01*
X62029846Y-38988233D01*
X62027523Y-38983251D01*
X61903903Y-38806704D01*
X61899357Y-38800211D01*
X61899355Y-38800208D01*
X61896198Y-38795700D01*
X61734300Y-38633802D01*
X61729792Y-38630645D01*
X61729789Y-38630643D01*
X61651611Y-38575902D01*
X61546749Y-38502477D01*
X61541767Y-38500154D01*
X61541762Y-38500151D01*
X61507543Y-38484195D01*
X61454258Y-38437278D01*
X61434797Y-38369001D01*
X61455339Y-38301041D01*
X61507543Y-38255805D01*
X61541762Y-38239849D01*
X61541767Y-38239846D01*
X61546749Y-38237523D01*
X61651611Y-38164098D01*
X61729789Y-38109357D01*
X61729792Y-38109355D01*
X61734300Y-38106198D01*
X61896198Y-37944300D01*
X62027523Y-37756749D01*
X62029846Y-37751767D01*
X62029849Y-37751762D01*
X62121961Y-37554225D01*
X62121961Y-37554224D01*
X62124284Y-37549243D01*
X62183543Y-37328087D01*
X62203498Y-37100000D01*
X62183543Y-36871913D01*
X62179061Y-36855186D01*
X62125707Y-36656067D01*
X62125706Y-36656065D01*
X62124284Y-36650757D01*
X62121961Y-36645775D01*
X62029849Y-36448238D01*
X62029846Y-36448233D01*
X62027523Y-36443251D01*
X61896198Y-36255700D01*
X61734300Y-36093802D01*
X61729792Y-36090645D01*
X61729789Y-36090643D01*
X61651611Y-36035902D01*
X61546749Y-35962477D01*
X61541767Y-35960154D01*
X61541762Y-35960151D01*
X61506951Y-35943919D01*
X61453666Y-35897002D01*
X61434205Y-35828725D01*
X61454747Y-35760765D01*
X61506951Y-35715529D01*
X61541511Y-35699414D01*
X61551007Y-35693931D01*
X61729467Y-35568972D01*
X61737875Y-35561916D01*
X61891916Y-35407875D01*
X61898972Y-35399467D01*
X62023931Y-35221007D01*
X62029414Y-35211511D01*
X62121490Y-35014053D01*
X62125236Y-35003761D01*
X62171394Y-34831497D01*
X62171058Y-34817401D01*
X62163116Y-34814000D01*
X59622033Y-34814000D01*
X59608502Y-34817973D01*
X59607273Y-34826522D01*
X59654764Y-35003761D01*
X59658510Y-35014053D01*
X59750586Y-35211511D01*
X59756069Y-35221007D01*
X59881028Y-35399467D01*
X59888084Y-35407875D01*
X60042125Y-35561916D01*
X60050533Y-35568972D01*
X60228993Y-35693931D01*
X60238489Y-35699414D01*
X60273049Y-35715529D01*
X60326334Y-35762446D01*
X60345795Y-35830723D01*
X60325253Y-35898683D01*
X60273049Y-35943919D01*
X60238238Y-35960151D01*
X60238233Y-35960154D01*
X60233251Y-35962477D01*
X60090708Y-36062287D01*
X60081531Y-36068713D01*
X60009260Y-36091500D01*
X57961840Y-36091500D01*
X57948232Y-36090763D01*
X57916736Y-36087341D01*
X57916732Y-36087341D01*
X57910611Y-36086676D01*
X57892611Y-36088251D01*
X57860609Y-36091050D01*
X57855784Y-36091379D01*
X57853313Y-36091500D01*
X57850231Y-36091500D01*
X57827763Y-36093703D01*
X57807489Y-36095691D01*
X57806174Y-36095813D01*
X57773913Y-36098636D01*
X57713587Y-36103913D01*
X57708468Y-36105400D01*
X57703167Y-36105920D01*
X57614194Y-36132782D01*
X57613054Y-36133120D01*
X57523663Y-36159091D01*
X57518929Y-36161545D01*
X57513831Y-36163084D01*
X57508387Y-36165978D01*
X57508386Y-36165979D01*
X57431831Y-36206684D01*
X57430663Y-36207298D01*
X57348074Y-36250108D01*
X57343911Y-36253431D01*
X57339204Y-36255934D01*
X57334430Y-36259828D01*
X57334428Y-36259829D01*
X57267105Y-36314737D01*
X57266160Y-36315500D01*
X57227027Y-36346739D01*
X57224536Y-36349230D01*
X57223809Y-36349880D01*
X57219463Y-36353592D01*
X57200588Y-36368987D01*
X57185938Y-36380935D01*
X57182015Y-36385677D01*
X57182013Y-36385679D01*
X57156703Y-36416273D01*
X57148713Y-36425053D01*
X56830621Y-36743145D01*
X56820478Y-36752247D01*
X56790975Y-36775968D01*
X56787008Y-36780696D01*
X56758709Y-36814421D01*
X56755528Y-36818069D01*
X56753885Y-36819881D01*
X56751691Y-36822075D01*
X56724358Y-36855349D01*
X56723696Y-36856147D01*
X56663846Y-36927474D01*
X56661278Y-36932144D01*
X56657897Y-36936261D01*
X56626860Y-36994145D01*
X56614023Y-37018086D01*
X56613394Y-37019245D01*
X56571538Y-37095381D01*
X56571535Y-37095389D01*
X56568567Y-37100787D01*
X56566955Y-37105869D01*
X56564438Y-37110563D01*
X56537238Y-37199531D01*
X56536918Y-37200559D01*
X56508765Y-37289306D01*
X56508171Y-37294602D01*
X56506613Y-37299698D01*
X56503190Y-37333402D01*
X56497218Y-37392187D01*
X56497089Y-37393393D01*
X56491500Y-37443227D01*
X56491500Y-37446754D01*
X56491445Y-37447739D01*
X56490998Y-37453419D01*
X56486626Y-37496462D01*
X21000000Y-37496462D01*
X21000000Y-32435774D01*
X32013102Y-32435774D01*
X32013302Y-32441103D01*
X32013302Y-32441105D01*
X32017427Y-32550966D01*
X32021751Y-32666158D01*
X32069093Y-32891791D01*
X32153776Y-33106221D01*
X32273377Y-33303317D01*
X32276874Y-33307347D01*
X32363438Y-33407103D01*
X32424477Y-33477445D01*
X32428608Y-33480832D01*
X32598627Y-33620240D01*
X32598633Y-33620244D01*
X32602755Y-33623624D01*
X32607391Y-33626263D01*
X32607394Y-33626265D01*
X32716422Y-33688327D01*
X32803114Y-33737675D01*
X33019825Y-33816337D01*
X33025074Y-33817286D01*
X33025077Y-33817287D01*
X33242608Y-33856623D01*
X33242615Y-33856624D01*
X33246692Y-33857361D01*
X33264414Y-33858197D01*
X33269356Y-33858430D01*
X33269363Y-33858430D01*
X33270844Y-33858500D01*
X33682890Y-33858500D01*
X33749809Y-33852822D01*
X33849409Y-33844371D01*
X33849413Y-33844370D01*
X33854720Y-33843920D01*
X33859875Y-33842582D01*
X33859881Y-33842581D01*
X34072703Y-33787343D01*
X34072707Y-33787342D01*
X34077872Y-33786001D01*
X34082738Y-33783809D01*
X34082741Y-33783808D01*
X34283202Y-33693507D01*
X34288075Y-33691312D01*
X34479319Y-33562559D01*
X34646135Y-33403424D01*
X34783754Y-33218458D01*
X34813553Y-33159849D01*
X34843342Y-33101256D01*
X34888240Y-33012949D01*
X34924321Y-32896752D01*
X34955024Y-32797871D01*
X34956607Y-32792773D01*
X34971985Y-32676749D01*
X34986198Y-32569511D01*
X34986198Y-32569506D01*
X34986898Y-32564226D01*
X34978249Y-32333842D01*
X34930907Y-32108209D01*
X34898234Y-32025475D01*
X34896072Y-32020000D01*
X59576502Y-32020000D01*
X59596457Y-32248087D01*
X59597881Y-32253400D01*
X59597881Y-32253402D01*
X59620864Y-32339173D01*
X59655716Y-32469243D01*
X59658039Y-32474224D01*
X59658039Y-32474225D01*
X59750151Y-32671762D01*
X59750154Y-32671767D01*
X59752477Y-32676749D01*
X59883802Y-32864300D01*
X60045700Y-33026198D01*
X60050208Y-33029355D01*
X60050211Y-33029357D01*
X60128389Y-33084098D01*
X60233251Y-33157523D01*
X60238233Y-33159846D01*
X60238238Y-33159849D01*
X60273049Y-33176081D01*
X60326334Y-33222998D01*
X60345795Y-33291275D01*
X60325253Y-33359235D01*
X60273049Y-33404471D01*
X60238489Y-33420586D01*
X60228993Y-33426069D01*
X60050533Y-33551028D01*
X60042125Y-33558084D01*
X59888084Y-33712125D01*
X59881028Y-33720533D01*
X59756069Y-33898993D01*
X59750586Y-33908489D01*
X59658510Y-34105947D01*
X59654764Y-34116239D01*
X59608606Y-34288503D01*
X59608942Y-34302599D01*
X59616884Y-34306000D01*
X62157967Y-34306000D01*
X62171498Y-34302027D01*
X62172727Y-34293478D01*
X62125236Y-34116239D01*
X62121490Y-34105947D01*
X62029414Y-33908489D01*
X62023931Y-33898993D01*
X61898972Y-33720533D01*
X61891916Y-33712125D01*
X61737875Y-33558084D01*
X61729467Y-33551028D01*
X61551007Y-33426069D01*
X61541511Y-33420586D01*
X61506951Y-33404471D01*
X61453666Y-33357554D01*
X61434205Y-33289277D01*
X61454747Y-33221317D01*
X61506951Y-33176081D01*
X61541762Y-33159849D01*
X61541767Y-33159846D01*
X61546749Y-33157523D01*
X61651611Y-33084098D01*
X61729789Y-33029357D01*
X61729792Y-33029355D01*
X61734300Y-33026198D01*
X61896198Y-32864300D01*
X62027523Y-32676749D01*
X62029846Y-32671767D01*
X62029849Y-32671762D01*
X62121961Y-32474225D01*
X62121961Y-32474224D01*
X62124284Y-32469243D01*
X62159137Y-32339173D01*
X62182119Y-32253402D01*
X62182119Y-32253400D01*
X62183543Y-32248087D01*
X62203498Y-32020000D01*
X62183543Y-31791913D01*
X62131202Y-31596576D01*
X62125707Y-31576067D01*
X62125706Y-31576065D01*
X62124284Y-31570757D01*
X62063835Y-31441122D01*
X62029849Y-31368238D01*
X62029846Y-31368233D01*
X62027523Y-31363251D01*
X61939442Y-31237458D01*
X61899357Y-31180211D01*
X61899355Y-31180208D01*
X61896198Y-31175700D01*
X61734300Y-31013802D01*
X61729792Y-31010645D01*
X61729789Y-31010643D01*
X61651611Y-30955902D01*
X61546749Y-30882477D01*
X61541767Y-30880154D01*
X61541762Y-30880151D01*
X61507543Y-30864195D01*
X61454258Y-30817278D01*
X61434797Y-30749001D01*
X61455339Y-30681041D01*
X61507543Y-30635805D01*
X61541762Y-30619849D01*
X61541767Y-30619846D01*
X61546749Y-30617523D01*
X61651611Y-30544098D01*
X61729789Y-30489357D01*
X61729792Y-30489355D01*
X61734300Y-30486198D01*
X61896198Y-30324300D01*
X62027523Y-30136749D01*
X62029846Y-30131767D01*
X62029849Y-30131762D01*
X62121961Y-29934225D01*
X62121961Y-29934224D01*
X62124284Y-29929243D01*
X62183543Y-29708087D01*
X62203498Y-29480000D01*
X62183543Y-29251913D01*
X62124284Y-29030757D01*
X62099366Y-28977320D01*
X62029849Y-28828238D01*
X62029846Y-28828233D01*
X62027523Y-28823251D01*
X61896198Y-28635700D01*
X61734300Y-28473802D01*
X61729789Y-28470643D01*
X61725576Y-28467108D01*
X61726527Y-28465974D01*
X61686529Y-28415929D01*
X61679224Y-28345310D01*
X61711258Y-28281951D01*
X61772462Y-28245970D01*
X61789517Y-28242918D01*
X61800316Y-28241745D01*
X61936705Y-28190615D01*
X62053261Y-28103261D01*
X62140615Y-27986705D01*
X62191745Y-27850316D01*
X62198500Y-27788134D01*
X62198500Y-26940000D01*
X74816502Y-26940000D01*
X74836457Y-27168087D01*
X74895716Y-27389243D01*
X74898039Y-27394224D01*
X74898039Y-27394225D01*
X74990151Y-27591762D01*
X74990154Y-27591767D01*
X74992477Y-27596749D01*
X75123802Y-27784300D01*
X75285700Y-27946198D01*
X75290208Y-27949355D01*
X75290211Y-27949357D01*
X75331542Y-27978297D01*
X75473251Y-28077523D01*
X75478233Y-28079846D01*
X75478238Y-28079849D01*
X75513049Y-28096081D01*
X75566334Y-28142998D01*
X75585795Y-28211275D01*
X75565253Y-28279235D01*
X75513049Y-28324471D01*
X75478489Y-28340586D01*
X75468993Y-28346069D01*
X75290533Y-28471028D01*
X75282125Y-28478084D01*
X75128084Y-28632125D01*
X75121028Y-28640533D01*
X74996069Y-28818993D01*
X74990586Y-28828489D01*
X74898510Y-29025947D01*
X74894764Y-29036239D01*
X74848606Y-29208503D01*
X74848942Y-29222599D01*
X74856884Y-29226000D01*
X77397967Y-29226000D01*
X77411498Y-29222027D01*
X77412727Y-29213478D01*
X77365236Y-29036239D01*
X77361490Y-29025947D01*
X77269414Y-28828489D01*
X77263931Y-28818993D01*
X77138972Y-28640533D01*
X77131916Y-28632125D01*
X76977875Y-28478084D01*
X76969467Y-28471028D01*
X76791007Y-28346069D01*
X76781511Y-28340586D01*
X76746951Y-28324471D01*
X76693666Y-28277554D01*
X76674205Y-28209277D01*
X76694747Y-28141317D01*
X76746951Y-28096081D01*
X76781762Y-28079849D01*
X76781767Y-28079846D01*
X76786749Y-28077523D01*
X76928458Y-27978297D01*
X76969789Y-27949357D01*
X76969792Y-27949355D01*
X76974300Y-27946198D01*
X77136198Y-27784300D01*
X77267523Y-27596749D01*
X77269846Y-27591767D01*
X77269849Y-27591762D01*
X77361961Y-27394225D01*
X77361961Y-27394224D01*
X77364284Y-27389243D01*
X77423543Y-27168087D01*
X77443498Y-26940000D01*
X77423543Y-26711913D01*
X77387463Y-26577262D01*
X77365707Y-26496067D01*
X77365706Y-26496065D01*
X77364284Y-26490757D01*
X77337318Y-26432928D01*
X77269849Y-26288238D01*
X77269846Y-26288233D01*
X77267523Y-26283251D01*
X77136198Y-26095700D01*
X76974300Y-25933802D01*
X76969792Y-25930645D01*
X76969789Y-25930643D01*
X76891611Y-25875902D01*
X76786749Y-25802477D01*
X76781767Y-25800154D01*
X76781762Y-25800151D01*
X76584225Y-25708039D01*
X76584224Y-25708039D01*
X76579243Y-25705716D01*
X76573935Y-25704294D01*
X76573933Y-25704293D01*
X76363402Y-25647881D01*
X76363400Y-25647881D01*
X76358087Y-25646457D01*
X76130000Y-25626502D01*
X75901913Y-25646457D01*
X75896600Y-25647881D01*
X75896598Y-25647881D01*
X75686067Y-25704293D01*
X75686065Y-25704294D01*
X75680757Y-25705716D01*
X75675776Y-25708039D01*
X75675775Y-25708039D01*
X75478238Y-25800151D01*
X75478233Y-25800154D01*
X75473251Y-25802477D01*
X75368389Y-25875902D01*
X75290211Y-25930643D01*
X75290208Y-25930645D01*
X75285700Y-25933802D01*
X75123802Y-26095700D01*
X74992477Y-26283251D01*
X74990154Y-26288233D01*
X74990151Y-26288238D01*
X74922682Y-26432928D01*
X74895716Y-26490757D01*
X74894294Y-26496065D01*
X74894293Y-26496067D01*
X74872537Y-26577262D01*
X74836457Y-26711913D01*
X74816502Y-26940000D01*
X62198500Y-26940000D01*
X62198500Y-26091866D01*
X62191745Y-26029684D01*
X62140615Y-25893295D01*
X62053261Y-25776739D01*
X61936705Y-25689385D01*
X61800316Y-25638255D01*
X61738134Y-25631500D01*
X60041866Y-25631500D01*
X59979684Y-25638255D01*
X59843295Y-25689385D01*
X59726739Y-25776739D01*
X59639385Y-25893295D01*
X59588255Y-26029684D01*
X59581500Y-26091866D01*
X59581500Y-27788134D01*
X59588255Y-27850316D01*
X59639385Y-27986705D01*
X59726739Y-28103261D01*
X59843295Y-28190615D01*
X59979684Y-28241745D01*
X59990474Y-28242917D01*
X59992606Y-28243803D01*
X59995222Y-28244425D01*
X59995121Y-28244848D01*
X60056035Y-28270155D01*
X60096463Y-28328517D01*
X60098922Y-28399471D01*
X60062629Y-28460490D01*
X60053969Y-28467489D01*
X60050207Y-28470646D01*
X60045700Y-28473802D01*
X59883802Y-28635700D01*
X59752477Y-28823251D01*
X59750154Y-28828233D01*
X59750151Y-28828238D01*
X59680634Y-28977320D01*
X59655716Y-29030757D01*
X59596457Y-29251913D01*
X59576502Y-29480000D01*
X59596457Y-29708087D01*
X59655716Y-29929243D01*
X59658039Y-29934224D01*
X59658039Y-29934225D01*
X59750151Y-30131762D01*
X59750154Y-30131767D01*
X59752477Y-30136749D01*
X59883802Y-30324300D01*
X60045700Y-30486198D01*
X60050208Y-30489355D01*
X60050211Y-30489357D01*
X60128389Y-30544098D01*
X60233251Y-30617523D01*
X60238233Y-30619846D01*
X60238238Y-30619849D01*
X60272457Y-30635805D01*
X60325742Y-30682722D01*
X60345203Y-30750999D01*
X60324661Y-30818959D01*
X60272457Y-30864195D01*
X60238238Y-30880151D01*
X60238233Y-30880154D01*
X60233251Y-30882477D01*
X60128389Y-30955902D01*
X60050211Y-31010643D01*
X60050208Y-31010645D01*
X60045700Y-31013802D01*
X59883802Y-31175700D01*
X59880645Y-31180208D01*
X59880643Y-31180211D01*
X59840558Y-31237458D01*
X59752477Y-31363251D01*
X59750154Y-31368233D01*
X59750151Y-31368238D01*
X59716165Y-31441122D01*
X59655716Y-31570757D01*
X59654294Y-31576065D01*
X59654293Y-31576067D01*
X59648798Y-31596576D01*
X59596457Y-31791913D01*
X59576502Y-32020000D01*
X34896072Y-32020000D01*
X34848185Y-31898744D01*
X34848184Y-31898742D01*
X34846224Y-31893779D01*
X34787736Y-31797393D01*
X34729390Y-31701243D01*
X34726623Y-31696683D01*
X34639755Y-31596576D01*
X34579023Y-31526588D01*
X34579021Y-31526586D01*
X34575523Y-31522555D01*
X34533970Y-31488484D01*
X34401373Y-31379760D01*
X34401367Y-31379756D01*
X34397245Y-31376376D01*
X34382949Y-31368238D01*
X34365265Y-31358171D01*
X34315959Y-31307088D01*
X34302098Y-31237458D01*
X34328082Y-31171387D01*
X34357232Y-31144149D01*
X34474578Y-31065148D01*
X34482870Y-31058481D01*
X34641900Y-30906772D01*
X34648941Y-30898814D01*
X34780141Y-30722475D01*
X34785745Y-30713438D01*
X34885357Y-30517516D01*
X34889357Y-30507665D01*
X34954534Y-30297760D01*
X34956817Y-30287376D01*
X34958861Y-30271957D01*
X34956665Y-30257793D01*
X34943478Y-30254000D01*
X32058808Y-30254000D01*
X32045277Y-30257973D01*
X32043752Y-30268580D01*
X32068477Y-30386421D01*
X32071537Y-30396617D01*
X32152263Y-30601029D01*
X32156994Y-30610561D01*
X32271016Y-30798462D01*
X32277280Y-30807052D01*
X32421327Y-30973052D01*
X32428958Y-30980472D01*
X32598911Y-31119826D01*
X32607674Y-31125848D01*
X32634711Y-31141238D01*
X32684018Y-31192320D01*
X32697880Y-31261951D01*
X32671897Y-31328022D01*
X32642747Y-31355261D01*
X32623472Y-31368238D01*
X32520681Y-31437441D01*
X32353865Y-31596576D01*
X32216246Y-31781542D01*
X32111760Y-31987051D01*
X32110178Y-31992145D01*
X32110177Y-31992148D01*
X32048115Y-32192020D01*
X32043393Y-32207227D01*
X32042692Y-32212516D01*
X32027304Y-32328623D01*
X32013102Y-32435774D01*
X21000000Y-32435774D01*
X21000000Y-28150400D01*
X32016500Y-28150400D01*
X32016837Y-28153646D01*
X32016837Y-28153650D01*
X32026679Y-28248500D01*
X32027474Y-28256166D01*
X32029655Y-28262702D01*
X32029655Y-28262704D01*
X32050262Y-28324471D01*
X32083450Y-28423946D01*
X32176522Y-28574348D01*
X32301697Y-28699305D01*
X32447258Y-28789030D01*
X32447780Y-28789352D01*
X32495273Y-28842124D01*
X32506697Y-28912196D01*
X32478423Y-28977320D01*
X32468636Y-28987782D01*
X32358094Y-29093234D01*
X32351059Y-29101186D01*
X32219859Y-29277525D01*
X32214255Y-29286562D01*
X32114643Y-29482484D01*
X32110643Y-29492335D01*
X32045466Y-29702240D01*
X32043183Y-29712624D01*
X32041139Y-29728043D01*
X32043335Y-29742207D01*
X32056522Y-29746000D01*
X34941192Y-29746000D01*
X34954723Y-29742027D01*
X34956248Y-29731420D01*
X34931523Y-29613579D01*
X34928463Y-29603383D01*
X34847737Y-29398971D01*
X34843006Y-29389439D01*
X34728984Y-29201538D01*
X34722720Y-29192948D01*
X34578673Y-29026948D01*
X34571044Y-29019530D01*
X34539431Y-28993609D01*
X34499436Y-28934949D01*
X34497504Y-28863979D01*
X34534248Y-28803230D01*
X34553018Y-28789030D01*
X34693120Y-28702332D01*
X34699348Y-28698478D01*
X34824305Y-28573303D01*
X34882999Y-28478084D01*
X34913275Y-28428968D01*
X34913276Y-28428966D01*
X34917115Y-28422738D01*
X34972797Y-28254861D01*
X34973867Y-28244425D01*
X34983172Y-28153598D01*
X34983500Y-28150400D01*
X34983500Y-26849600D01*
X34972526Y-26743834D01*
X34916550Y-26576054D01*
X34823478Y-26425652D01*
X34698303Y-26300695D01*
X34670004Y-26283251D01*
X34553968Y-26211725D01*
X34553966Y-26211724D01*
X34547738Y-26207885D01*
X34387254Y-26154655D01*
X34386389Y-26154368D01*
X34386387Y-26154368D01*
X34379861Y-26152203D01*
X34373025Y-26151503D01*
X34373022Y-26151502D01*
X34329969Y-26147091D01*
X34275400Y-26141500D01*
X32724600Y-26141500D01*
X32721354Y-26141837D01*
X32721350Y-26141837D01*
X32625692Y-26151762D01*
X32625688Y-26151763D01*
X32618834Y-26152474D01*
X32612298Y-26154655D01*
X32612296Y-26154655D01*
X32480194Y-26198728D01*
X32451054Y-26208450D01*
X32300652Y-26301522D01*
X32175695Y-26426697D01*
X32171855Y-26432927D01*
X32171854Y-26432928D01*
X32132935Y-26496067D01*
X32082885Y-26577262D01*
X32080581Y-26584209D01*
X32038224Y-26711913D01*
X32027203Y-26745139D01*
X32016500Y-26849600D01*
X32016500Y-28150400D01*
X21000000Y-28150400D01*
X21000000Y-27126000D01*
X21020002Y-27057879D01*
X21073658Y-27011386D01*
X21126000Y-27000000D01*
X27000000Y-27000000D01*
X27000000Y-21126000D01*
X27020002Y-21057879D01*
X27073658Y-21011386D01*
X27126000Y-21000000D01*
X88874000Y-21000000D01*
X88942121Y-21020002D01*
G37*
%TD.AperFunction*%
%TD*%
%TA.AperFunction,Conductor*%
%TO.N,/AC_PE*%
G36*
X108942121Y-82020002D02*
G01*
X108988614Y-82073658D01*
X109000000Y-82126000D01*
X109000000Y-102874000D01*
X108979998Y-102942121D01*
X108926342Y-102988614D01*
X108874000Y-103000000D01*
X103000000Y-103000000D01*
X103000000Y-108874000D01*
X102979998Y-108942121D01*
X102926342Y-108988614D01*
X102874000Y-109000000D01*
X81126000Y-109000000D01*
X81057879Y-108979998D01*
X81011386Y-108926342D01*
X81000000Y-108874000D01*
X81000000Y-106544669D01*
X81492001Y-106544669D01*
X81492371Y-106551490D01*
X81497895Y-106602352D01*
X81501521Y-106617604D01*
X81546676Y-106738054D01*
X81555214Y-106753649D01*
X81631715Y-106855724D01*
X81644276Y-106868285D01*
X81746351Y-106944786D01*
X81761946Y-106953324D01*
X81882394Y-106998478D01*
X81897649Y-107002105D01*
X81948514Y-107007631D01*
X81955328Y-107008000D01*
X83227885Y-107008000D01*
X83243124Y-107003525D01*
X83244329Y-107002135D01*
X83246000Y-106994452D01*
X83246000Y-106989884D01*
X83754000Y-106989884D01*
X83758475Y-107005123D01*
X83759865Y-107006328D01*
X83767548Y-107007999D01*
X85044669Y-107007999D01*
X85051490Y-107007629D01*
X85102352Y-107002105D01*
X85117604Y-106998479D01*
X85238054Y-106953324D01*
X85253649Y-106944786D01*
X85355724Y-106868285D01*
X85368285Y-106855724D01*
X85444786Y-106753649D01*
X85453324Y-106738054D01*
X85498478Y-106617606D01*
X85502105Y-106602351D01*
X85503484Y-106589654D01*
X87355618Y-106589654D01*
X87362673Y-106599627D01*
X87393679Y-106625551D01*
X87400598Y-106630579D01*
X87625272Y-106771515D01*
X87632807Y-106775556D01*
X87874520Y-106884694D01*
X87882551Y-106887680D01*
X88136832Y-106963002D01*
X88145184Y-106964869D01*
X88407340Y-107004984D01*
X88415874Y-107005700D01*
X88681045Y-107009867D01*
X88689596Y-107009418D01*
X88952883Y-106977557D01*
X88961284Y-106975955D01*
X89217824Y-106908653D01*
X89225926Y-106905926D01*
X89470949Y-106804434D01*
X89478617Y-106800628D01*
X89707598Y-106666822D01*
X89714679Y-106662009D01*
X89794655Y-106599301D01*
X89801545Y-106589654D01*
X92435618Y-106589654D01*
X92442673Y-106599627D01*
X92473679Y-106625551D01*
X92480598Y-106630579D01*
X92705272Y-106771515D01*
X92712807Y-106775556D01*
X92954520Y-106884694D01*
X92962551Y-106887680D01*
X93216832Y-106963002D01*
X93225184Y-106964869D01*
X93487340Y-107004984D01*
X93495874Y-107005700D01*
X93761045Y-107009867D01*
X93769596Y-107009418D01*
X94032883Y-106977557D01*
X94041284Y-106975955D01*
X94297824Y-106908653D01*
X94305926Y-106905926D01*
X94550949Y-106804434D01*
X94558617Y-106800628D01*
X94787598Y-106666822D01*
X94794679Y-106662009D01*
X94874655Y-106599301D01*
X94881545Y-106589654D01*
X97515618Y-106589654D01*
X97522673Y-106599627D01*
X97553679Y-106625551D01*
X97560598Y-106630579D01*
X97785272Y-106771515D01*
X97792807Y-106775556D01*
X98034520Y-106884694D01*
X98042551Y-106887680D01*
X98296832Y-106963002D01*
X98305184Y-106964869D01*
X98567340Y-107004984D01*
X98575874Y-107005700D01*
X98841045Y-107009867D01*
X98849596Y-107009418D01*
X99112883Y-106977557D01*
X99121284Y-106975955D01*
X99377824Y-106908653D01*
X99385926Y-106905926D01*
X99630949Y-106804434D01*
X99638617Y-106800628D01*
X99867598Y-106666822D01*
X99874679Y-106662009D01*
X99954655Y-106599301D01*
X99963125Y-106587442D01*
X99956608Y-106575818D01*
X98752812Y-105372022D01*
X98738868Y-105364408D01*
X98737035Y-105364539D01*
X98730420Y-105368790D01*
X97522910Y-106576300D01*
X97515618Y-106589654D01*
X94881545Y-106589654D01*
X94883125Y-106587442D01*
X94876608Y-106575818D01*
X93672812Y-105372022D01*
X93658868Y-105364408D01*
X93657035Y-105364539D01*
X93650420Y-105368790D01*
X92442910Y-106576300D01*
X92435618Y-106589654D01*
X89801545Y-106589654D01*
X89803125Y-106587442D01*
X89796608Y-106575818D01*
X88592812Y-105372022D01*
X88578868Y-105364408D01*
X88577035Y-105364539D01*
X88570420Y-105368790D01*
X87362910Y-106576300D01*
X87355618Y-106589654D01*
X85503484Y-106589654D01*
X85507631Y-106551486D01*
X85508000Y-106544672D01*
X85508000Y-105272115D01*
X85503525Y-105256876D01*
X85502135Y-105255671D01*
X85494452Y-105254000D01*
X83772115Y-105254000D01*
X83756876Y-105258475D01*
X83755671Y-105259865D01*
X83754000Y-105267548D01*
X83754000Y-106989884D01*
X83246000Y-106989884D01*
X83246000Y-105272115D01*
X83241525Y-105256876D01*
X83240135Y-105255671D01*
X83232452Y-105254000D01*
X81510116Y-105254000D01*
X81494877Y-105258475D01*
X81493672Y-105259865D01*
X81492001Y-105267548D01*
X81492001Y-106544669D01*
X81000000Y-106544669D01*
X81000000Y-104983204D01*
X86567665Y-104983204D01*
X86582932Y-105247969D01*
X86584005Y-105256470D01*
X86635065Y-105516722D01*
X86637276Y-105524974D01*
X86723184Y-105775894D01*
X86726499Y-105783779D01*
X86845664Y-106020713D01*
X86850020Y-106028079D01*
X86979347Y-106216250D01*
X86989601Y-106224594D01*
X87003342Y-106217448D01*
X88207978Y-105012812D01*
X88214356Y-105001132D01*
X88944408Y-105001132D01*
X88944539Y-105002965D01*
X88948790Y-105009580D01*
X90155730Y-106216520D01*
X90167939Y-106223187D01*
X90179439Y-106214497D01*
X90276831Y-106081913D01*
X90281418Y-106074685D01*
X90407962Y-105841621D01*
X90411530Y-105833827D01*
X90505271Y-105585750D01*
X90507748Y-105577544D01*
X90566954Y-105319038D01*
X90568294Y-105310577D01*
X90592031Y-105044616D01*
X90592277Y-105039677D01*
X90592666Y-105002485D01*
X90592523Y-104997519D01*
X90591547Y-104983204D01*
X91647665Y-104983204D01*
X91662932Y-105247969D01*
X91664005Y-105256470D01*
X91715065Y-105516722D01*
X91717276Y-105524974D01*
X91803184Y-105775894D01*
X91806499Y-105783779D01*
X91925664Y-106020713D01*
X91930020Y-106028079D01*
X92059347Y-106216250D01*
X92069601Y-106224594D01*
X92083342Y-106217448D01*
X93287978Y-105012812D01*
X93294356Y-105001132D01*
X94024408Y-105001132D01*
X94024539Y-105002965D01*
X94028790Y-105009580D01*
X95235730Y-106216520D01*
X95247939Y-106223187D01*
X95259439Y-106214497D01*
X95356831Y-106081913D01*
X95361418Y-106074685D01*
X95487962Y-105841621D01*
X95491530Y-105833827D01*
X95585271Y-105585750D01*
X95587748Y-105577544D01*
X95646954Y-105319038D01*
X95648294Y-105310577D01*
X95672031Y-105044616D01*
X95672277Y-105039677D01*
X95672666Y-105002485D01*
X95672523Y-104997519D01*
X95671547Y-104983204D01*
X96727665Y-104983204D01*
X96742932Y-105247969D01*
X96744005Y-105256470D01*
X96795065Y-105516722D01*
X96797276Y-105524974D01*
X96883184Y-105775894D01*
X96886499Y-105783779D01*
X97005664Y-106020713D01*
X97010020Y-106028079D01*
X97139347Y-106216250D01*
X97149601Y-106224594D01*
X97163342Y-106217448D01*
X98367978Y-105012812D01*
X98374356Y-105001132D01*
X99104408Y-105001132D01*
X99104539Y-105002965D01*
X99108790Y-105009580D01*
X100315730Y-106216520D01*
X100327939Y-106223187D01*
X100339439Y-106214497D01*
X100436831Y-106081913D01*
X100441418Y-106074685D01*
X100567962Y-105841621D01*
X100571530Y-105833827D01*
X100665271Y-105585750D01*
X100667748Y-105577544D01*
X100726954Y-105319038D01*
X100728294Y-105310577D01*
X100752031Y-105044616D01*
X100752277Y-105039677D01*
X100752666Y-105002485D01*
X100752523Y-104997519D01*
X100734362Y-104731123D01*
X100733201Y-104722649D01*
X100679419Y-104462944D01*
X100677120Y-104454709D01*
X100588588Y-104204705D01*
X100585191Y-104196854D01*
X100463550Y-103961178D01*
X100459122Y-103953866D01*
X100340031Y-103784417D01*
X100329509Y-103776037D01*
X100316121Y-103783089D01*
X99112022Y-104987188D01*
X99104408Y-105001132D01*
X98374356Y-105001132D01*
X98375592Y-104998868D01*
X98375461Y-104997035D01*
X98371210Y-104990420D01*
X97163814Y-103783024D01*
X97151804Y-103776466D01*
X97140064Y-103785434D01*
X97031935Y-103935911D01*
X97027418Y-103943196D01*
X96903325Y-104177567D01*
X96899839Y-104185395D01*
X96808700Y-104434446D01*
X96806311Y-104442670D01*
X96749812Y-104701795D01*
X96748563Y-104710250D01*
X96727754Y-104974653D01*
X96727665Y-104983204D01*
X95671547Y-104983204D01*
X95654362Y-104731123D01*
X95653201Y-104722649D01*
X95599419Y-104462944D01*
X95597120Y-104454709D01*
X95508588Y-104204705D01*
X95505191Y-104196854D01*
X95383550Y-103961178D01*
X95379122Y-103953866D01*
X95260031Y-103784417D01*
X95249509Y-103776037D01*
X95236121Y-103783089D01*
X94032022Y-104987188D01*
X94024408Y-105001132D01*
X93294356Y-105001132D01*
X93295592Y-104998868D01*
X93295461Y-104997035D01*
X93291210Y-104990420D01*
X92083814Y-103783024D01*
X92071804Y-103776466D01*
X92060064Y-103785434D01*
X91951935Y-103935911D01*
X91947418Y-103943196D01*
X91823325Y-104177567D01*
X91819839Y-104185395D01*
X91728700Y-104434446D01*
X91726311Y-104442670D01*
X91669812Y-104701795D01*
X91668563Y-104710250D01*
X91647754Y-104974653D01*
X91647665Y-104983204D01*
X90591547Y-104983204D01*
X90574362Y-104731123D01*
X90573201Y-104722649D01*
X90519419Y-104462944D01*
X90517120Y-104454709D01*
X90428588Y-104204705D01*
X90425191Y-104196854D01*
X90303550Y-103961178D01*
X90299122Y-103953866D01*
X90180031Y-103784417D01*
X90169509Y-103776037D01*
X90156121Y-103783089D01*
X88952022Y-104987188D01*
X88944408Y-105001132D01*
X88214356Y-105001132D01*
X88215592Y-104998868D01*
X88215461Y-104997035D01*
X88211210Y-104990420D01*
X87003814Y-103783024D01*
X86991804Y-103776466D01*
X86980064Y-103785434D01*
X86871935Y-103935911D01*
X86867418Y-103943196D01*
X86743325Y-104177567D01*
X86739839Y-104185395D01*
X86648700Y-104434446D01*
X86646311Y-104442670D01*
X86589812Y-104701795D01*
X86588563Y-104710250D01*
X86567754Y-104974653D01*
X86567665Y-104983204D01*
X81000000Y-104983204D01*
X81000000Y-104727885D01*
X81492000Y-104727885D01*
X81496475Y-104743124D01*
X81497865Y-104744329D01*
X81505548Y-104746000D01*
X83227885Y-104746000D01*
X83243124Y-104741525D01*
X83244329Y-104740135D01*
X83246000Y-104732452D01*
X83246000Y-104727885D01*
X83754000Y-104727885D01*
X83758475Y-104743124D01*
X83759865Y-104744329D01*
X83767548Y-104746000D01*
X85489884Y-104746000D01*
X85505123Y-104741525D01*
X85506328Y-104740135D01*
X85507999Y-104732452D01*
X85507999Y-103455331D01*
X85507629Y-103448510D01*
X85503718Y-103412500D01*
X87356584Y-103412500D01*
X87362980Y-103423770D01*
X88567188Y-104627978D01*
X88581132Y-104635592D01*
X88582965Y-104635461D01*
X88589580Y-104631210D01*
X89796604Y-103424186D01*
X89802985Y-103412500D01*
X92436584Y-103412500D01*
X92442980Y-103423770D01*
X93647188Y-104627978D01*
X93661132Y-104635592D01*
X93662965Y-104635461D01*
X93669580Y-104631210D01*
X94876604Y-103424186D01*
X94882985Y-103412500D01*
X97516584Y-103412500D01*
X97522980Y-103423770D01*
X98727188Y-104627978D01*
X98741132Y-104635592D01*
X98742965Y-104635461D01*
X98749580Y-104631210D01*
X99956604Y-103424186D01*
X99963795Y-103411017D01*
X99956473Y-103400780D01*
X99909233Y-103362115D01*
X99902261Y-103357160D01*
X99676122Y-103218582D01*
X99668552Y-103214624D01*
X99425704Y-103108022D01*
X99417644Y-103105120D01*
X99162592Y-103032467D01*
X99154214Y-103030685D01*
X98891656Y-102993318D01*
X98883111Y-102992691D01*
X98617908Y-102991302D01*
X98609374Y-102991839D01*
X98346433Y-103026456D01*
X98338035Y-103028149D01*
X98082238Y-103098127D01*
X98074143Y-103100946D01*
X97830199Y-103204997D01*
X97822577Y-103208881D01*
X97595013Y-103345075D01*
X97587981Y-103349962D01*
X97525053Y-103400377D01*
X97516584Y-103412500D01*
X94882985Y-103412500D01*
X94883795Y-103411017D01*
X94876473Y-103400780D01*
X94829233Y-103362115D01*
X94822261Y-103357160D01*
X94596122Y-103218582D01*
X94588552Y-103214624D01*
X94345704Y-103108022D01*
X94337644Y-103105120D01*
X94082592Y-103032467D01*
X94074214Y-103030685D01*
X93811656Y-102993318D01*
X93803111Y-102992691D01*
X93537908Y-102991302D01*
X93529374Y-102991839D01*
X93266433Y-103026456D01*
X93258035Y-103028149D01*
X93002238Y-103098127D01*
X92994143Y-103100946D01*
X92750199Y-103204997D01*
X92742577Y-103208881D01*
X92515013Y-103345075D01*
X92507981Y-103349962D01*
X92445053Y-103400377D01*
X92436584Y-103412500D01*
X89802985Y-103412500D01*
X89803795Y-103411017D01*
X89796473Y-103400780D01*
X89749233Y-103362115D01*
X89742261Y-103357160D01*
X89516122Y-103218582D01*
X89508552Y-103214624D01*
X89265704Y-103108022D01*
X89257644Y-103105120D01*
X89002592Y-103032467D01*
X88994214Y-103030685D01*
X88731656Y-102993318D01*
X88723111Y-102992691D01*
X88457908Y-102991302D01*
X88449374Y-102991839D01*
X88186433Y-103026456D01*
X88178035Y-103028149D01*
X87922238Y-103098127D01*
X87914143Y-103100946D01*
X87670199Y-103204997D01*
X87662577Y-103208881D01*
X87435013Y-103345075D01*
X87427981Y-103349962D01*
X87365053Y-103400377D01*
X87356584Y-103412500D01*
X85503718Y-103412500D01*
X85502105Y-103397648D01*
X85498479Y-103382396D01*
X85453324Y-103261946D01*
X85444786Y-103246351D01*
X85368285Y-103144276D01*
X85355724Y-103131715D01*
X85253649Y-103055214D01*
X85238054Y-103046676D01*
X85117606Y-103001522D01*
X85102351Y-102997895D01*
X85051486Y-102992369D01*
X85044672Y-102992000D01*
X83772115Y-102992000D01*
X83756876Y-102996475D01*
X83755671Y-102997865D01*
X83754000Y-103005548D01*
X83754000Y-104727885D01*
X83246000Y-104727885D01*
X83246000Y-103010116D01*
X83241525Y-102994877D01*
X83240135Y-102993672D01*
X83232452Y-102992001D01*
X81955331Y-102992001D01*
X81948510Y-102992371D01*
X81897648Y-102997895D01*
X81882396Y-103001521D01*
X81761946Y-103046676D01*
X81746351Y-103055214D01*
X81644276Y-103131715D01*
X81631715Y-103144276D01*
X81555214Y-103246351D01*
X81546676Y-103261946D01*
X81501522Y-103382394D01*
X81497895Y-103397649D01*
X81492369Y-103448514D01*
X81492000Y-103455328D01*
X81492000Y-104727885D01*
X81000000Y-104727885D01*
X81000000Y-95000000D01*
X94816372Y-95000000D01*
X94836854Y-95260249D01*
X94838008Y-95265056D01*
X94838009Y-95265062D01*
X94876424Y-95425069D01*
X94897796Y-95514089D01*
X94899689Y-95518660D01*
X94899690Y-95518662D01*
X94983725Y-95721539D01*
X94997697Y-95755271D01*
X95134097Y-95977856D01*
X95303637Y-96176363D01*
X95502144Y-96345903D01*
X95724729Y-96482303D01*
X95729299Y-96484196D01*
X95729303Y-96484198D01*
X95961338Y-96580310D01*
X95965911Y-96582204D01*
X96042598Y-96600615D01*
X96214938Y-96641991D01*
X96214944Y-96641992D01*
X96219751Y-96643146D01*
X96480000Y-96663628D01*
X96740249Y-96643146D01*
X96745056Y-96641992D01*
X96745062Y-96641991D01*
X96917402Y-96600615D01*
X96994089Y-96582204D01*
X96998662Y-96580310D01*
X97230697Y-96484198D01*
X97230701Y-96484196D01*
X97235271Y-96482303D01*
X97457856Y-96345903D01*
X97656363Y-96176363D01*
X97825903Y-95977856D01*
X97962303Y-95755271D01*
X97976276Y-95721539D01*
X98060310Y-95518662D01*
X98060311Y-95518660D01*
X98062204Y-95514089D01*
X98083576Y-95425069D01*
X98121991Y-95265062D01*
X98121992Y-95265056D01*
X98123146Y-95260249D01*
X98143628Y-95000000D01*
X98123146Y-94739751D01*
X98121992Y-94734944D01*
X98121991Y-94734938D01*
X98083576Y-94574931D01*
X98062204Y-94485911D01*
X97962303Y-94244729D01*
X97825903Y-94022144D01*
X97656363Y-93823637D01*
X97457856Y-93654097D01*
X97235271Y-93517697D01*
X97230701Y-93515804D01*
X97230697Y-93515802D01*
X96998662Y-93419690D01*
X96998660Y-93419689D01*
X96994089Y-93417796D01*
X96905069Y-93396424D01*
X96745062Y-93358009D01*
X96745056Y-93358008D01*
X96740249Y-93356854D01*
X96480000Y-93336372D01*
X96219751Y-93356854D01*
X96214944Y-93358008D01*
X96214938Y-93358009D01*
X96054931Y-93396424D01*
X95965911Y-93417796D01*
X95961340Y-93419689D01*
X95961338Y-93419690D01*
X95729303Y-93515802D01*
X95729299Y-93515804D01*
X95724729Y-93517697D01*
X95502144Y-93654097D01*
X95303637Y-93823637D01*
X95134097Y-94022144D01*
X94997697Y-94244729D01*
X94897796Y-94485911D01*
X94876424Y-94574931D01*
X94838009Y-94734938D01*
X94838008Y-94734944D01*
X94836854Y-94739751D01*
X94816372Y-95000000D01*
X81000000Y-95000000D01*
X81000000Y-85000000D01*
X21126000Y-85000000D01*
X21057879Y-84979998D01*
X21011386Y-84926342D01*
X21000000Y-84874000D01*
X21000000Y-82126000D01*
X21020002Y-82057879D01*
X21073658Y-82011386D01*
X21126000Y-82000000D01*
X108874000Y-82000000D01*
X108942121Y-82020002D01*
G37*
%TD.AperFunction*%
%TD*%
M02*
