%TF.GenerationSoftware,KiCad,Pcbnew,6.0.5*%
%TF.CreationDate,2022-07-08T15:37:51+02:00*%
%TF.ProjectId,pool_heater,706f6f6c-5f68-4656-9174-65722e6b6963,rev?*%
%TF.SameCoordinates,Original*%
%TF.FileFunction,Legend,Top*%
%TF.FilePolarity,Positive*%
%FSLAX46Y46*%
G04 Gerber Fmt 4.6, Leading zero omitted, Abs format (unit mm)*
G04 Created by KiCad (PCBNEW 6.0.5) date 2022-07-08 15:37:51*
%MOMM*%
%LPD*%
G01*
G04 APERTURE LIST*
%ADD10C,0.150000*%
%ADD11C,0.120000*%
%ADD12C,0.100000*%
G04 APERTURE END LIST*
D10*
%TO.C,J1*%
X33206666Y-99372380D02*
X33206666Y-100086666D01*
X33159047Y-100229523D01*
X33063809Y-100324761D01*
X32920952Y-100372380D01*
X32825714Y-100372380D01*
X34206666Y-100372380D02*
X33635238Y-100372380D01*
X33920952Y-100372380D02*
X33920952Y-99372380D01*
X33825714Y-99515238D01*
X33730476Y-99610476D01*
X33635238Y-99658095D01*
%TO.C,U1*%
X49048095Y-64282380D02*
X49048095Y-65091904D01*
X49095714Y-65187142D01*
X49143333Y-65234761D01*
X49238571Y-65282380D01*
X49429047Y-65282380D01*
X49524285Y-65234761D01*
X49571904Y-65187142D01*
X49619523Y-65091904D01*
X49619523Y-64282380D01*
X50619523Y-65282380D02*
X50048095Y-65282380D01*
X50333809Y-65282380D02*
X50333809Y-64282380D01*
X50238571Y-64425238D01*
X50143333Y-64520476D01*
X50048095Y-64568095D01*
%TO.C,K2*%
X60052380Y-82238095D02*
X59052380Y-82238095D01*
X60052380Y-81666666D02*
X59480952Y-82095238D01*
X59052380Y-81666666D02*
X59623809Y-82238095D01*
X59147619Y-81285714D02*
X59100000Y-81238095D01*
X59052380Y-81142857D01*
X59052380Y-80904761D01*
X59100000Y-80809523D01*
X59147619Y-80761904D01*
X59242857Y-80714285D01*
X59338095Y-80714285D01*
X59480952Y-80761904D01*
X60052380Y-81333333D01*
X60052380Y-80714285D01*
%TO.C,K1*%
X27452380Y-83238095D02*
X26452380Y-83238095D01*
X27452380Y-82666666D02*
X26880952Y-83095238D01*
X26452380Y-82666666D02*
X27023809Y-83238095D01*
X27452380Y-81714285D02*
X27452380Y-82285714D01*
X27452380Y-82000000D02*
X26452380Y-82000000D01*
X26595238Y-82095238D01*
X26690476Y-82190476D01*
X26738095Y-82285714D01*
%TO.C,J7*%
X36502380Y-56583333D02*
X37216666Y-56583333D01*
X37359523Y-56630952D01*
X37454761Y-56726190D01*
X37502380Y-56869047D01*
X37502380Y-56964285D01*
X36502380Y-56202380D02*
X36502380Y-55535714D01*
X37502380Y-55964285D01*
%TO.C,J6*%
X36502380Y-42833333D02*
X37216666Y-42833333D01*
X37359523Y-42880952D01*
X37454761Y-42976190D01*
X37502380Y-43119047D01*
X37502380Y-43214285D01*
X36502380Y-41928571D02*
X36502380Y-42119047D01*
X36550000Y-42214285D01*
X36597619Y-42261904D01*
X36740476Y-42357142D01*
X36930952Y-42404761D01*
X37311904Y-42404761D01*
X37407142Y-42357142D01*
X37454761Y-42309523D01*
X37502380Y-42214285D01*
X37502380Y-42023809D01*
X37454761Y-41928571D01*
X37407142Y-41880952D01*
X37311904Y-41833333D01*
X37073809Y-41833333D01*
X36978571Y-41880952D01*
X36930952Y-41928571D01*
X36883333Y-42023809D01*
X36883333Y-42214285D01*
X36930952Y-42309523D01*
X36978571Y-42357142D01*
X37073809Y-42404761D01*
%TO.C,J2*%
X50766666Y-99652380D02*
X50766666Y-100366666D01*
X50719047Y-100509523D01*
X50623809Y-100604761D01*
X50480952Y-100652380D01*
X50385714Y-100652380D01*
X51195238Y-99747619D02*
X51242857Y-99700000D01*
X51338095Y-99652380D01*
X51576190Y-99652380D01*
X51671428Y-99700000D01*
X51719047Y-99747619D01*
X51766666Y-99842857D01*
X51766666Y-99938095D01*
X51719047Y-100080952D01*
X51147619Y-100652380D01*
X51766666Y-100652380D01*
%TO.C,R2*%
X39283333Y-47272380D02*
X38950000Y-46796190D01*
X38711904Y-47272380D02*
X38711904Y-46272380D01*
X39092857Y-46272380D01*
X39188095Y-46320000D01*
X39235714Y-46367619D01*
X39283333Y-46462857D01*
X39283333Y-46605714D01*
X39235714Y-46700952D01*
X39188095Y-46748571D01*
X39092857Y-46796190D01*
X38711904Y-46796190D01*
X39664285Y-46367619D02*
X39711904Y-46320000D01*
X39807142Y-46272380D01*
X40045238Y-46272380D01*
X40140476Y-46320000D01*
X40188095Y-46367619D01*
X40235714Y-46462857D01*
X40235714Y-46558095D01*
X40188095Y-46700952D01*
X39616666Y-47272380D01*
X40235714Y-47272380D01*
%TO.C,J5*%
X36502380Y-30333333D02*
X37216666Y-30333333D01*
X37359523Y-30380952D01*
X37454761Y-30476190D01*
X37502380Y-30619047D01*
X37502380Y-30714285D01*
X36502380Y-29380952D02*
X36502380Y-29857142D01*
X36978571Y-29904761D01*
X36930952Y-29857142D01*
X36883333Y-29761904D01*
X36883333Y-29523809D01*
X36930952Y-29428571D01*
X36978571Y-29380952D01*
X37073809Y-29333333D01*
X37311904Y-29333333D01*
X37407142Y-29380952D01*
X37454761Y-29428571D01*
X37502380Y-29523809D01*
X37502380Y-29761904D01*
X37454761Y-29857142D01*
X37407142Y-29904761D01*
%TO.C,C1*%
X83735984Y-63607142D02*
X83688365Y-63654761D01*
X83545508Y-63702380D01*
X83450270Y-63702380D01*
X83307412Y-63654761D01*
X83212174Y-63559523D01*
X83164555Y-63464285D01*
X83116936Y-63273809D01*
X83116936Y-63130952D01*
X83164555Y-62940476D01*
X83212174Y-62845238D01*
X83307412Y-62750000D01*
X83450270Y-62702380D01*
X83545508Y-62702380D01*
X83688365Y-62750000D01*
X83735984Y-62797619D01*
X84688365Y-63702380D02*
X84116936Y-63702380D01*
X84402651Y-63702380D02*
X84402651Y-62702380D01*
X84307412Y-62845238D01*
X84212174Y-62940476D01*
X84116936Y-62988095D01*
%TO.C,J4*%
X90766666Y-99652380D02*
X90766666Y-100366666D01*
X90719047Y-100509523D01*
X90623809Y-100604761D01*
X90480952Y-100652380D01*
X90385714Y-100652380D01*
X91671428Y-99985714D02*
X91671428Y-100652380D01*
X91433333Y-99604761D02*
X91195238Y-100319047D01*
X91814285Y-100319047D01*
%TO.C,U2*%
X94762380Y-45301904D02*
X95571904Y-45301904D01*
X95667142Y-45254285D01*
X95714761Y-45206666D01*
X95762380Y-45111428D01*
X95762380Y-44920952D01*
X95714761Y-44825714D01*
X95667142Y-44778095D01*
X95571904Y-44730476D01*
X94762380Y-44730476D01*
X94857619Y-44301904D02*
X94810000Y-44254285D01*
X94762380Y-44159047D01*
X94762380Y-43920952D01*
X94810000Y-43825714D01*
X94857619Y-43778095D01*
X94952857Y-43730476D01*
X95048095Y-43730476D01*
X95190952Y-43778095D01*
X95762380Y-44349523D01*
X95762380Y-43730476D01*
%TO.C,A1*%
X67795714Y-22026666D02*
X68271904Y-22026666D01*
X67700476Y-22312380D02*
X68033809Y-21312380D01*
X68367142Y-22312380D01*
X69224285Y-22312380D02*
X68652857Y-22312380D01*
X68938571Y-22312380D02*
X68938571Y-21312380D01*
X68843333Y-21455238D01*
X68748095Y-21550476D01*
X68652857Y-21598095D01*
%TO.C,R5*%
X39283333Y-59772380D02*
X38950000Y-59296190D01*
X38711904Y-59772380D02*
X38711904Y-58772380D01*
X39092857Y-58772380D01*
X39188095Y-58820000D01*
X39235714Y-58867619D01*
X39283333Y-58962857D01*
X39283333Y-59105714D01*
X39235714Y-59200952D01*
X39188095Y-59248571D01*
X39092857Y-59296190D01*
X38711904Y-59296190D01*
X40188095Y-58772380D02*
X39711904Y-58772380D01*
X39664285Y-59248571D01*
X39711904Y-59200952D01*
X39807142Y-59153333D01*
X40045238Y-59153333D01*
X40140476Y-59200952D01*
X40188095Y-59248571D01*
X40235714Y-59343809D01*
X40235714Y-59581904D01*
X40188095Y-59677142D01*
X40140476Y-59724761D01*
X40045238Y-59772380D01*
X39807142Y-59772380D01*
X39711904Y-59724761D01*
X39664285Y-59677142D01*
%TO.C,PS1*%
X61952380Y-87324285D02*
X60952380Y-87324285D01*
X60952380Y-86943333D01*
X61000000Y-86848095D01*
X61047619Y-86800476D01*
X61142857Y-86752857D01*
X61285714Y-86752857D01*
X61380952Y-86800476D01*
X61428571Y-86848095D01*
X61476190Y-86943333D01*
X61476190Y-87324285D01*
X61904761Y-86371904D02*
X61952380Y-86229047D01*
X61952380Y-85990952D01*
X61904761Y-85895714D01*
X61857142Y-85848095D01*
X61761904Y-85800476D01*
X61666666Y-85800476D01*
X61571428Y-85848095D01*
X61523809Y-85895714D01*
X61476190Y-85990952D01*
X61428571Y-86181428D01*
X61380952Y-86276666D01*
X61333333Y-86324285D01*
X61238095Y-86371904D01*
X61142857Y-86371904D01*
X61047619Y-86324285D01*
X61000000Y-86276666D01*
X60952380Y-86181428D01*
X60952380Y-85943333D01*
X61000000Y-85800476D01*
X61952380Y-84848095D02*
X61952380Y-85419523D01*
X61952380Y-85133809D02*
X60952380Y-85133809D01*
X61095238Y-85229047D01*
X61190476Y-85324285D01*
X61238095Y-85419523D01*
%TO.C,J3*%
X70716666Y-99802380D02*
X70716666Y-100516666D01*
X70669047Y-100659523D01*
X70573809Y-100754761D01*
X70430952Y-100802380D01*
X70335714Y-100802380D01*
X71097619Y-99802380D02*
X71716666Y-99802380D01*
X71383333Y-100183333D01*
X71526190Y-100183333D01*
X71621428Y-100230952D01*
X71669047Y-100278571D01*
X71716666Y-100373809D01*
X71716666Y-100611904D01*
X71669047Y-100707142D01*
X71621428Y-100754761D01*
X71526190Y-100802380D01*
X71240476Y-100802380D01*
X71145238Y-100754761D01*
X71097619Y-100707142D01*
%TO.C,C2*%
X83583333Y-40107142D02*
X83535714Y-40154761D01*
X83392857Y-40202380D01*
X83297619Y-40202380D01*
X83154761Y-40154761D01*
X83059523Y-40059523D01*
X83011904Y-39964285D01*
X82964285Y-39773809D01*
X82964285Y-39630952D01*
X83011904Y-39440476D01*
X83059523Y-39345238D01*
X83154761Y-39250000D01*
X83297619Y-39202380D01*
X83392857Y-39202380D01*
X83535714Y-39250000D01*
X83583333Y-39297619D01*
X83964285Y-39297619D02*
X84011904Y-39250000D01*
X84107142Y-39202380D01*
X84345238Y-39202380D01*
X84440476Y-39250000D01*
X84488095Y-39297619D01*
X84535714Y-39392857D01*
X84535714Y-39488095D01*
X84488095Y-39630952D01*
X83916666Y-40202380D01*
X84535714Y-40202380D01*
%TO.C,R3*%
X39283333Y-54772380D02*
X38950000Y-54296190D01*
X38711904Y-54772380D02*
X38711904Y-53772380D01*
X39092857Y-53772380D01*
X39188095Y-53820000D01*
X39235714Y-53867619D01*
X39283333Y-53962857D01*
X39283333Y-54105714D01*
X39235714Y-54200952D01*
X39188095Y-54248571D01*
X39092857Y-54296190D01*
X38711904Y-54296190D01*
X39616666Y-53772380D02*
X40235714Y-53772380D01*
X39902380Y-54153333D01*
X40045238Y-54153333D01*
X40140476Y-54200952D01*
X40188095Y-54248571D01*
X40235714Y-54343809D01*
X40235714Y-54581904D01*
X40188095Y-54677142D01*
X40140476Y-54724761D01*
X40045238Y-54772380D01*
X39759523Y-54772380D01*
X39664285Y-54724761D01*
X39616666Y-54677142D01*
D11*
%TO.C,J1*%
X38620000Y-108810000D02*
X38620000Y-101190000D01*
X28460000Y-108810000D02*
X38620000Y-108810000D01*
X38620000Y-107540000D02*
X28460000Y-107540000D01*
X38620000Y-101190000D02*
X28460000Y-101190000D01*
X28460000Y-101190000D02*
X28460000Y-108810000D01*
%TO.C,U1*%
X44560000Y-63890000D02*
X55060000Y-63890000D01*
X52060000Y-63830000D02*
X52060000Y-43390000D01*
X52060000Y-43390000D02*
X47560000Y-43390000D01*
X55060000Y-63890000D02*
X55060000Y-43330000D01*
X44560000Y-43330000D02*
X44560000Y-63890000D01*
X47560000Y-43390000D02*
X47560000Y-63830000D01*
X50810000Y-63830000D02*
X52060000Y-63830000D01*
X55060000Y-43330000D02*
X44560000Y-43330000D01*
X47560000Y-63830000D02*
X48810000Y-63830000D01*
X50810000Y-63830000D02*
G75*
G03*
X48810000Y-63830000I-1000000J0D01*
G01*
%TO.C,K2*%
X49650000Y-75310000D02*
X48380000Y-75310000D01*
X45900000Y-68400000D02*
X58600000Y-68400000D01*
X54730000Y-75310000D02*
X54730000Y-76580000D01*
X54730000Y-74040000D02*
X54730000Y-75310000D01*
X58600000Y-68400000D02*
X58600000Y-97600000D01*
X56000000Y-75310000D02*
X54730000Y-75310000D01*
X45900000Y-97600000D02*
X45900000Y-68400000D01*
X58800000Y-70600000D02*
X58800000Y-68200000D01*
X53460000Y-74040000D02*
X52190000Y-76580000D01*
X54730000Y-76580000D02*
X49650000Y-76580000D01*
X56400000Y-68200000D02*
X58800000Y-68200000D01*
X48380000Y-75310000D02*
X48380000Y-74040000D01*
X49650000Y-74040000D02*
X54730000Y-74040000D01*
X49650000Y-76580000D02*
X49650000Y-74040000D01*
X58600000Y-97600000D02*
X45900000Y-97600000D01*
X56000000Y-74040000D02*
X56000000Y-75310000D01*
%TO.C,K1*%
X37230000Y-89920000D02*
X32150000Y-89920000D01*
X32150000Y-89920000D02*
X32150000Y-92460000D01*
X30880000Y-91190000D02*
X30880000Y-92460000D01*
X41300000Y-68150000D02*
X28200000Y-68150000D01*
X41500000Y-97750000D02*
X41500000Y-96250000D01*
X38500000Y-91190000D02*
X37230000Y-91190000D01*
X28200000Y-68150000D02*
X28200000Y-97550000D01*
X32150000Y-92460000D02*
X37230000Y-92460000D01*
D12*
X35960000Y-92460000D02*
X34690000Y-89920000D01*
D11*
X28200000Y-97550000D02*
X41300000Y-97550000D01*
X37230000Y-92460000D02*
X37230000Y-91190000D01*
X32150000Y-91190000D02*
X30880000Y-91190000D01*
X37230000Y-91190000D02*
X37230000Y-89920000D01*
X40000000Y-97750000D02*
X41500000Y-97750000D01*
X41300000Y-97550000D02*
X41300000Y-68150000D01*
X38500000Y-92460000D02*
X38500000Y-91190000D01*
%TO.C,J7*%
X35200000Y-60750000D02*
X35200000Y-62550000D01*
X35950000Y-53250000D02*
X35200000Y-53250000D01*
X35950000Y-60750000D02*
X35200000Y-60750000D01*
X35200000Y-59250000D02*
X35950000Y-59250000D01*
X36250000Y-50900000D02*
X36250000Y-49650000D01*
X29990000Y-49940000D02*
X29990000Y-62560000D01*
X35950000Y-49950000D02*
X35200000Y-49950000D01*
X30750000Y-61800000D02*
X30750000Y-56250000D01*
X29990000Y-62560000D02*
X35960000Y-62560000D01*
X33700000Y-50700000D02*
X30750000Y-50700000D01*
X33700000Y-61800000D02*
X30750000Y-61800000D01*
X35200000Y-49950000D02*
X35200000Y-51750000D01*
X33700000Y-62550000D02*
X33700000Y-61800000D01*
X36250000Y-49650000D02*
X35000000Y-49650000D01*
X35950000Y-51750000D02*
X35950000Y-49950000D01*
X35960000Y-49940000D02*
X29990000Y-49940000D01*
X35950000Y-62550000D02*
X35950000Y-60750000D01*
X35200000Y-62550000D02*
X35950000Y-62550000D01*
X35200000Y-53250000D02*
X35200000Y-59250000D01*
X30750000Y-50700000D02*
X30750000Y-56250000D01*
X35960000Y-62560000D02*
X35960000Y-49940000D01*
X33700000Y-49950000D02*
X33700000Y-50700000D01*
X35950000Y-59250000D02*
X35950000Y-53250000D01*
X35200000Y-51750000D02*
X35950000Y-51750000D01*
%TO.C,J6*%
X33700000Y-38200000D02*
X30750000Y-38200000D01*
X35200000Y-40750000D02*
X35200000Y-44250000D01*
X35960000Y-37440000D02*
X29990000Y-37440000D01*
X30750000Y-46800000D02*
X30750000Y-42500000D01*
X36250000Y-38400000D02*
X36250000Y-37150000D01*
X36250000Y-37150000D02*
X35000000Y-37150000D01*
X35950000Y-44250000D02*
X35950000Y-40750000D01*
X35200000Y-47550000D02*
X35950000Y-47550000D01*
X35200000Y-45750000D02*
X35200000Y-47550000D01*
X35200000Y-44250000D02*
X35950000Y-44250000D01*
X29990000Y-37440000D02*
X29990000Y-47560000D01*
X35200000Y-39250000D02*
X35950000Y-39250000D01*
X35950000Y-39250000D02*
X35950000Y-37450000D01*
X33700000Y-47550000D02*
X33700000Y-46800000D01*
X29990000Y-47560000D02*
X35960000Y-47560000D01*
X35960000Y-47560000D02*
X35960000Y-37440000D01*
X33700000Y-46800000D02*
X30750000Y-46800000D01*
X33700000Y-37450000D02*
X33700000Y-38200000D01*
X30750000Y-38200000D02*
X30750000Y-42500000D01*
X35950000Y-40750000D02*
X35200000Y-40750000D01*
X35200000Y-37450000D02*
X35200000Y-39250000D01*
X35950000Y-47550000D02*
X35950000Y-45750000D01*
X35950000Y-37450000D02*
X35200000Y-37450000D01*
X35950000Y-45750000D02*
X35200000Y-45750000D01*
%TO.C,J2*%
X40960000Y-101190000D02*
X40960000Y-108810000D01*
X61280000Y-108810000D02*
X61280000Y-101190000D01*
X61280000Y-107540000D02*
X40960000Y-107540000D01*
X40960000Y-101190000D02*
X61280000Y-101190000D01*
X40960000Y-108810000D02*
X61280000Y-108810000D01*
%TO.C,R2*%
X40177064Y-45910000D02*
X38722936Y-45910000D01*
X40177064Y-44090000D02*
X38722936Y-44090000D01*
%TO.C,J5*%
X33700000Y-25700000D02*
X30750000Y-25700000D01*
X33700000Y-24950000D02*
X33700000Y-25700000D01*
X30750000Y-25700000D02*
X30750000Y-30000000D01*
X35200000Y-26750000D02*
X35950000Y-26750000D01*
X35950000Y-24950000D02*
X35200000Y-24950000D01*
X29990000Y-24940000D02*
X29990000Y-35060000D01*
X35200000Y-33250000D02*
X35200000Y-35050000D01*
X33700000Y-35050000D02*
X33700000Y-34300000D01*
X35950000Y-35050000D02*
X35950000Y-33250000D01*
X29990000Y-35060000D02*
X35960000Y-35060000D01*
X36250000Y-24650000D02*
X35000000Y-24650000D01*
X30750000Y-34300000D02*
X30750000Y-30000000D01*
X36250000Y-25900000D02*
X36250000Y-24650000D01*
X35960000Y-35060000D02*
X35960000Y-24940000D01*
X35200000Y-28250000D02*
X35200000Y-31750000D01*
X35200000Y-35050000D02*
X35950000Y-35050000D01*
X35950000Y-28250000D02*
X35200000Y-28250000D01*
X35200000Y-24950000D02*
X35200000Y-26750000D01*
X35950000Y-33250000D02*
X35200000Y-33250000D01*
X33700000Y-34300000D02*
X30750000Y-34300000D01*
X35200000Y-31750000D02*
X35950000Y-31750000D01*
X35950000Y-31750000D02*
X35950000Y-28250000D01*
X35950000Y-26750000D02*
X35950000Y-24950000D01*
X35960000Y-24940000D02*
X29990000Y-24940000D01*
%TO.C,C1*%
X82821651Y-56960000D02*
X82821651Y-54064000D01*
X83262651Y-62030000D02*
X83262651Y-53970000D01*
X82381651Y-61790000D02*
X82381651Y-59040000D01*
X83502651Y-62061000D02*
X83502651Y-53939000D01*
X83422651Y-62052000D02*
X83422651Y-53948000D01*
X82341651Y-56960000D02*
X82341651Y-54226000D01*
X82501651Y-56960000D02*
X82501651Y-54165000D01*
X81181651Y-56960000D02*
X81181651Y-54945000D01*
X81341651Y-61189000D02*
X81341651Y-59040000D01*
X79821651Y-58533000D02*
X79821651Y-57467000D01*
X83902651Y-62080000D02*
X83902651Y-53920000D01*
X81141651Y-61019000D02*
X81141651Y-59040000D01*
X82701651Y-61902000D02*
X82701651Y-59040000D01*
X81781651Y-56960000D02*
X81781651Y-54507000D01*
X81461651Y-61280000D02*
X81461651Y-59040000D01*
X82381651Y-56960000D02*
X82381651Y-54210000D01*
X82261651Y-56960000D02*
X82261651Y-54260000D01*
X83662651Y-62074000D02*
X83662651Y-53926000D01*
X81981651Y-56960000D02*
X81981651Y-54394000D01*
X82101651Y-61666000D02*
X82101651Y-59040000D01*
X82861651Y-61947000D02*
X82861651Y-59040000D01*
X80381651Y-60102000D02*
X80381651Y-55898000D01*
X81021651Y-60907000D02*
X81021651Y-55093000D01*
X81141651Y-56960000D02*
X81141651Y-54981000D01*
X81981651Y-61606000D02*
X81981651Y-59040000D01*
X83702651Y-62076000D02*
X83702651Y-53924000D01*
X80941651Y-60826000D02*
X80941651Y-55174000D01*
X82421651Y-56960000D02*
X82421651Y-54195000D01*
X81261651Y-61124000D02*
X81261651Y-59040000D01*
X79901651Y-58948000D02*
X79901651Y-57052000D01*
X83021651Y-61985000D02*
X83021651Y-59040000D01*
X81301651Y-61156000D02*
X81301651Y-59040000D01*
X81501651Y-56960000D02*
X81501651Y-54691000D01*
X80901651Y-60784000D02*
X80901651Y-55216000D01*
X82941651Y-61967000D02*
X82941651Y-59040000D01*
X83542651Y-62065000D02*
X83542651Y-53935000D01*
X83742651Y-62077000D02*
X83742651Y-53923000D01*
X83382651Y-62048000D02*
X83382651Y-53952000D01*
X81541651Y-56960000D02*
X81541651Y-54662000D01*
X88312349Y-60315000D02*
X87512349Y-60315000D01*
X82261651Y-61740000D02*
X82261651Y-59040000D01*
X82141651Y-56960000D02*
X82141651Y-54314000D01*
X83342651Y-62042000D02*
X83342651Y-53958000D01*
X80421651Y-60166000D02*
X80421651Y-55834000D01*
X82541651Y-56960000D02*
X82541651Y-54150000D01*
X81581651Y-61365000D02*
X81581651Y-59040000D01*
X80021651Y-59346000D02*
X80021651Y-56654000D01*
X81901651Y-61562000D02*
X81901651Y-59040000D01*
X80621651Y-60454000D02*
X80621651Y-55546000D01*
X82021651Y-61627000D02*
X82021651Y-59040000D01*
X82661651Y-61889000D02*
X82661651Y-59040000D01*
X80301651Y-59964000D02*
X80301651Y-56036000D01*
X81381651Y-56960000D02*
X81381651Y-54780000D01*
X81461651Y-56960000D02*
X81461651Y-54720000D01*
X82421651Y-61805000D02*
X82421651Y-59040000D01*
X82941651Y-56960000D02*
X82941651Y-54033000D01*
X81101651Y-60983000D02*
X81101651Y-55017000D01*
X82301651Y-61757000D02*
X82301651Y-59040000D01*
X81741651Y-56960000D02*
X81741651Y-54531000D01*
X80541651Y-60345000D02*
X80541651Y-55655000D01*
X81621651Y-56960000D02*
X81621651Y-54608000D01*
X81661651Y-61418000D02*
X81661651Y-59040000D01*
X82181651Y-56960000D02*
X82181651Y-54296000D01*
X81221651Y-61090000D02*
X81221651Y-59040000D01*
X83582651Y-62068000D02*
X83582651Y-53932000D01*
X82541651Y-61850000D02*
X82541651Y-59040000D01*
X81421651Y-61250000D02*
X81421651Y-59040000D01*
X80861651Y-60741000D02*
X80861651Y-55259000D01*
X82741651Y-56960000D02*
X82741651Y-54086000D01*
X80781651Y-60651000D02*
X80781651Y-55349000D01*
X82461651Y-61821000D02*
X82461651Y-59040000D01*
X80701651Y-60556000D02*
X80701651Y-55444000D01*
X82181651Y-61704000D02*
X82181651Y-59040000D01*
X80741651Y-60604000D02*
X80741651Y-55396000D01*
X79861651Y-58768000D02*
X79861651Y-57232000D01*
X81821651Y-61517000D02*
X81821651Y-59040000D01*
X81741651Y-61469000D02*
X81741651Y-59040000D01*
X82581651Y-61863000D02*
X82581651Y-59040000D01*
X83061651Y-56960000D02*
X83061651Y-54006000D01*
X81541651Y-61338000D02*
X81541651Y-59040000D01*
X83302651Y-62037000D02*
X83302651Y-53963000D01*
X81261651Y-56960000D02*
X81261651Y-54876000D01*
X81061651Y-60945000D02*
X81061651Y-55055000D01*
X83021651Y-56960000D02*
X83021651Y-54015000D01*
X82701651Y-56960000D02*
X82701651Y-54098000D01*
X81701651Y-61444000D02*
X81701651Y-59040000D01*
X81221651Y-56960000D02*
X81221651Y-54910000D01*
X82981651Y-56960000D02*
X82981651Y-54024000D01*
X80341651Y-60034000D02*
X80341651Y-55966000D01*
X82221651Y-61722000D02*
X82221651Y-59040000D01*
X83101651Y-56960000D02*
X83101651Y-53998000D01*
X81941651Y-56960000D02*
X81941651Y-54416000D01*
X80661651Y-60505000D02*
X80661651Y-55495000D01*
X80461651Y-60228000D02*
X80461651Y-55772000D01*
X83181651Y-56960000D02*
X83181651Y-53983000D01*
X82901651Y-61957000D02*
X82901651Y-59040000D01*
X81821651Y-56960000D02*
X81821651Y-54483000D01*
X79981651Y-59229000D02*
X79981651Y-56771000D01*
X83622651Y-62071000D02*
X83622651Y-53929000D01*
X82061651Y-56960000D02*
X82061651Y-54353000D01*
X80101651Y-59552000D02*
X80101651Y-56448000D01*
X80821651Y-60697000D02*
X80821651Y-55303000D01*
X83822651Y-62080000D02*
X83822651Y-53920000D01*
X80261651Y-59890000D02*
X80261651Y-56110000D01*
X81501651Y-61309000D02*
X81501651Y-59040000D01*
X83862651Y-62080000D02*
X83862651Y-53920000D01*
X82621651Y-56960000D02*
X82621651Y-54123000D01*
X80501651Y-60287000D02*
X80501651Y-55713000D01*
X81181651Y-61055000D02*
X81181651Y-59040000D01*
X81621651Y-61392000D02*
X81621651Y-59040000D01*
X81381651Y-61220000D02*
X81381651Y-59040000D01*
X83462651Y-62057000D02*
X83462651Y-53943000D01*
X82141651Y-61686000D02*
X82141651Y-59040000D01*
X81581651Y-56960000D02*
X81581651Y-54635000D01*
X79941651Y-59098000D02*
X79941651Y-56902000D01*
X80141651Y-59645000D02*
X80141651Y-56355000D01*
X81301651Y-56960000D02*
X81301651Y-54844000D01*
X81341651Y-56960000D02*
X81341651Y-54811000D01*
X82501651Y-61835000D02*
X82501651Y-59040000D01*
X81941651Y-61584000D02*
X81941651Y-59040000D01*
X82901651Y-56960000D02*
X82901651Y-54043000D01*
X82981651Y-61976000D02*
X82981651Y-59040000D01*
X82461651Y-56960000D02*
X82461651Y-54179000D01*
X82661651Y-56960000D02*
X82661651Y-54111000D01*
X80981651Y-60867000D02*
X80981651Y-55133000D01*
X82341651Y-61774000D02*
X82341651Y-59040000D01*
X82781651Y-61925000D02*
X82781651Y-59040000D01*
X82781651Y-56960000D02*
X82781651Y-54075000D01*
X82221651Y-56960000D02*
X82221651Y-54278000D01*
X81861651Y-61540000D02*
X81861651Y-59040000D01*
X80061651Y-59453000D02*
X80061651Y-56547000D01*
X81701651Y-56960000D02*
X81701651Y-54556000D01*
X82581651Y-56960000D02*
X82581651Y-54137000D01*
X82821651Y-61936000D02*
X82821651Y-59040000D01*
X82741651Y-61914000D02*
X82741651Y-59040000D01*
X82301651Y-56960000D02*
X82301651Y-54243000D01*
X82061651Y-61647000D02*
X82061651Y-59040000D01*
X81901651Y-56960000D02*
X81901651Y-54438000D01*
X83061651Y-61994000D02*
X83061651Y-59040000D01*
X83141651Y-62010000D02*
X83141651Y-59040000D01*
X80181651Y-59731000D02*
X80181651Y-56269000D01*
X81781651Y-61493000D02*
X81781651Y-59040000D01*
X83181651Y-62017000D02*
X83181651Y-59040000D01*
X82861651Y-56960000D02*
X82861651Y-54053000D01*
X87912349Y-60715000D02*
X87912349Y-59915000D01*
X81861651Y-56960000D02*
X81861651Y-54460000D01*
X83782651Y-62079000D02*
X83782651Y-53921000D01*
X82101651Y-56960000D02*
X82101651Y-54334000D01*
X82021651Y-56960000D02*
X82021651Y-54373000D01*
X81421651Y-56960000D02*
X81421651Y-54750000D01*
X83101651Y-62002000D02*
X83101651Y-59040000D01*
X80581651Y-60400000D02*
X80581651Y-55600000D01*
X81661651Y-56960000D02*
X81661651Y-54582000D01*
X83141651Y-56960000D02*
X83141651Y-53990000D01*
X82621651Y-61877000D02*
X82621651Y-59040000D01*
X83222651Y-62024000D02*
X83222651Y-53976000D01*
X80221651Y-59813000D02*
X80221651Y-56187000D01*
X88022651Y-58000000D02*
G75*
G03*
X88022651Y-58000000I-4120000J0D01*
G01*
%TO.C,J4*%
X101280000Y-107540000D02*
X80960000Y-107540000D01*
X80960000Y-101190000D02*
X80960000Y-108810000D01*
X80960000Y-101190000D02*
X101280000Y-101190000D01*
X101280000Y-108810000D02*
X101280000Y-101190000D01*
X80960000Y-108810000D02*
X101280000Y-108810000D01*
%TO.C,U2*%
X92810000Y-32540000D02*
X100810000Y-32540000D01*
X94310000Y-24540000D02*
X94310000Y-16540000D01*
X100810000Y-24540000D02*
X92810000Y-24540000D01*
X94270000Y-62870000D02*
X94270000Y-60270000D01*
X99310000Y-16540000D02*
X99310000Y-24540000D01*
X91670000Y-57670000D02*
X101950000Y-57670000D01*
X89310000Y-23540000D02*
X104310000Y-23540000D01*
X100810000Y-32540000D02*
X100810000Y-24540000D01*
X104310000Y-63540000D02*
X89310000Y-63540000D01*
X89310000Y-63540000D02*
X89310000Y-23540000D01*
X91670000Y-60270000D02*
X91670000Y-57670000D01*
X92810000Y-24540000D02*
X92810000Y-32540000D01*
X101950000Y-62870000D02*
X101950000Y-57670000D01*
X94270000Y-62870000D02*
X101950000Y-62870000D01*
X91670000Y-62870000D02*
X91670000Y-61540000D01*
X93000000Y-62870000D02*
X91670000Y-62870000D01*
X94310000Y-16540000D02*
X99310000Y-16540000D01*
X94270000Y-60270000D02*
X91670000Y-60270000D01*
X104310000Y-23540000D02*
X104310000Y-63540000D01*
%TO.C,A1*%
X62160000Y-28210000D02*
X59490000Y-28210000D01*
X74860000Y-63770000D02*
X77530000Y-63770000D01*
X59490000Y-23000000D02*
X59490000Y-25670000D01*
X77530000Y-23000000D02*
X59490000Y-23000000D01*
X62160000Y-28210000D02*
X62160000Y-63770000D01*
X62160000Y-25670000D02*
X59490000Y-25670000D01*
X77530000Y-66440000D02*
X77530000Y-23000000D01*
X62160000Y-63770000D02*
X59490000Y-63770000D01*
X59490000Y-28210000D02*
X59490000Y-66440000D01*
X59490000Y-66440000D02*
X77530000Y-66440000D01*
X74860000Y-25670000D02*
X74860000Y-63770000D01*
X62160000Y-28210000D02*
X62160000Y-25670000D01*
X74860000Y-25670000D02*
X77530000Y-25670000D01*
%TO.C,R5*%
X40177064Y-58410000D02*
X38722936Y-58410000D01*
X40177064Y-56590000D02*
X38722936Y-56590000D01*
%TO.C,PS1*%
X62620000Y-98230000D02*
X99860000Y-98230000D01*
X62620000Y-73990000D02*
X62620000Y-98230000D01*
X62620000Y-73990000D02*
X99860000Y-73990000D01*
X64000000Y-98610000D02*
X70000000Y-98610000D01*
X99860000Y-98230000D02*
X99860000Y-73990000D01*
%TO.C,J3*%
X63460000Y-107540000D02*
X78700000Y-107540000D01*
X63460000Y-108810000D02*
X78700000Y-108810000D01*
X63460000Y-108810000D02*
X63460000Y-101190000D01*
X63460000Y-101190000D02*
X78700000Y-101190000D01*
X78700000Y-108810000D02*
X78700000Y-101190000D01*
%TO.C,C2*%
X87151000Y-42713000D02*
X87151000Y-47287000D01*
X85751000Y-46040000D02*
X85751000Y-48562000D01*
X87511000Y-43355000D02*
X87511000Y-46645000D01*
X85711000Y-46040000D02*
X85711000Y-48584000D01*
X85671000Y-41394000D02*
X85671000Y-43960000D01*
X86591000Y-42055000D02*
X86591000Y-47945000D01*
X85311000Y-46040000D02*
X85311000Y-48774000D01*
X87311000Y-42966000D02*
X87311000Y-47034000D01*
X85311000Y-41226000D02*
X85311000Y-43960000D01*
X83830000Y-40920000D02*
X83830000Y-49080000D01*
X85871000Y-41507000D02*
X85871000Y-43960000D01*
X87791000Y-44232000D02*
X87791000Y-45768000D01*
X85231000Y-46040000D02*
X85231000Y-48805000D01*
X86031000Y-41608000D02*
X86031000Y-43960000D01*
X86911000Y-42396000D02*
X86911000Y-47604000D01*
X87071000Y-42600000D02*
X87071000Y-47400000D01*
X85111000Y-46040000D02*
X85111000Y-48850000D01*
X86391000Y-46040000D02*
X86391000Y-48124000D01*
X84471000Y-40983000D02*
X84471000Y-43960000D01*
X84791000Y-41053000D02*
X84791000Y-43960000D01*
X85551000Y-41334000D02*
X85551000Y-43960000D01*
X86191000Y-46040000D02*
X86191000Y-48280000D01*
X84871000Y-46040000D02*
X84871000Y-48925000D01*
X79340302Y-42685000D02*
X80140302Y-42685000D01*
X84591000Y-46040000D02*
X84591000Y-48994000D01*
X85471000Y-46040000D02*
X85471000Y-48704000D01*
X85271000Y-46040000D02*
X85271000Y-48790000D01*
X84711000Y-41033000D02*
X84711000Y-43960000D01*
X79740302Y-42285000D02*
X79740302Y-43085000D01*
X83950000Y-40924000D02*
X83950000Y-49076000D01*
X84911000Y-46040000D02*
X84911000Y-48914000D01*
X86951000Y-42444000D02*
X86951000Y-47556000D01*
X86671000Y-42133000D02*
X86671000Y-47867000D01*
X84350000Y-40963000D02*
X84350000Y-49037000D01*
X84551000Y-40998000D02*
X84551000Y-43960000D01*
X84671000Y-41024000D02*
X84671000Y-43960000D01*
X86311000Y-41811000D02*
X86311000Y-43960000D01*
X84951000Y-41098000D02*
X84951000Y-43960000D01*
X86151000Y-46040000D02*
X86151000Y-48309000D01*
X86791000Y-42259000D02*
X86791000Y-47741000D01*
X87231000Y-42834000D02*
X87231000Y-47166000D01*
X86191000Y-41720000D02*
X86191000Y-43960000D01*
X85551000Y-46040000D02*
X85551000Y-48666000D01*
X84791000Y-46040000D02*
X84791000Y-48947000D01*
X85151000Y-46040000D02*
X85151000Y-48835000D01*
X85031000Y-41123000D02*
X85031000Y-43960000D01*
X87671000Y-43771000D02*
X87671000Y-46229000D01*
X85471000Y-41296000D02*
X85471000Y-43960000D01*
X86991000Y-42495000D02*
X86991000Y-47505000D01*
X86471000Y-41945000D02*
X86471000Y-43960000D01*
X85431000Y-41278000D02*
X85431000Y-43960000D01*
X84030000Y-40929000D02*
X84030000Y-49071000D01*
X85391000Y-46040000D02*
X85391000Y-48740000D01*
X85391000Y-41260000D02*
X85391000Y-43960000D01*
X86511000Y-41981000D02*
X86511000Y-43960000D01*
X85911000Y-46040000D02*
X85911000Y-48469000D01*
X86431000Y-46040000D02*
X86431000Y-48090000D01*
X85791000Y-46040000D02*
X85791000Y-48540000D01*
X86631000Y-42093000D02*
X86631000Y-47907000D01*
X85711000Y-41416000D02*
X85711000Y-43960000D01*
X87591000Y-43547000D02*
X87591000Y-46453000D01*
X87391000Y-43110000D02*
X87391000Y-46890000D01*
X86271000Y-46040000D02*
X86271000Y-48220000D01*
X85831000Y-46040000D02*
X85831000Y-48517000D01*
X84751000Y-46040000D02*
X84751000Y-48957000D01*
X87031000Y-42546000D02*
X87031000Y-47454000D01*
X87551000Y-43448000D02*
X87551000Y-46552000D01*
X84070000Y-40932000D02*
X84070000Y-49068000D01*
X86351000Y-41844000D02*
X86351000Y-43960000D01*
X84871000Y-41075000D02*
X84871000Y-43960000D01*
X84430000Y-40976000D02*
X84430000Y-49024000D01*
X85631000Y-41373000D02*
X85631000Y-43960000D01*
X86391000Y-41876000D02*
X86391000Y-43960000D01*
X84711000Y-46040000D02*
X84711000Y-48967000D01*
X86231000Y-46040000D02*
X86231000Y-48250000D01*
X84270000Y-40952000D02*
X84270000Y-49048000D01*
X86711000Y-42174000D02*
X86711000Y-47826000D01*
X85071000Y-41137000D02*
X85071000Y-43960000D01*
X85351000Y-41243000D02*
X85351000Y-43960000D01*
X87271000Y-42898000D02*
X87271000Y-47102000D01*
X85271000Y-41210000D02*
X85271000Y-43960000D01*
X84190000Y-40943000D02*
X84190000Y-49057000D01*
X84831000Y-41064000D02*
X84831000Y-43960000D01*
X85431000Y-46040000D02*
X85431000Y-48722000D01*
X86271000Y-41780000D02*
X86271000Y-43960000D01*
X85511000Y-46040000D02*
X85511000Y-48686000D01*
X85591000Y-46040000D02*
X85591000Y-48647000D01*
X85151000Y-41165000D02*
X85151000Y-43960000D01*
X86751000Y-42216000D02*
X86751000Y-47784000D01*
X85871000Y-46040000D02*
X85871000Y-48493000D01*
X84671000Y-46040000D02*
X84671000Y-48976000D01*
X85631000Y-46040000D02*
X85631000Y-48627000D01*
X84991000Y-46040000D02*
X84991000Y-48889000D01*
X85991000Y-46040000D02*
X85991000Y-48418000D01*
X87751000Y-44052000D02*
X87751000Y-45948000D01*
X86231000Y-41750000D02*
X86231000Y-43960000D01*
X84150000Y-40939000D02*
X84150000Y-49061000D01*
X84631000Y-46040000D02*
X84631000Y-48985000D01*
X83910000Y-40923000D02*
X83910000Y-49077000D01*
X86831000Y-42303000D02*
X86831000Y-47697000D01*
X86551000Y-42017000D02*
X86551000Y-47983000D01*
X86111000Y-41662000D02*
X86111000Y-43960000D01*
X85351000Y-46040000D02*
X85351000Y-48757000D01*
X86111000Y-46040000D02*
X86111000Y-48338000D01*
X83750000Y-40920000D02*
X83750000Y-49080000D01*
X85671000Y-46040000D02*
X85671000Y-48606000D01*
X85951000Y-46040000D02*
X85951000Y-48444000D01*
X84631000Y-41015000D02*
X84631000Y-43960000D01*
X83870000Y-40921000D02*
X83870000Y-49079000D01*
X84551000Y-46040000D02*
X84551000Y-49002000D01*
X84751000Y-41043000D02*
X84751000Y-43960000D01*
X85831000Y-41483000D02*
X85831000Y-43960000D01*
X84511000Y-40990000D02*
X84511000Y-43960000D01*
X84310000Y-40958000D02*
X84310000Y-49042000D01*
X85591000Y-41353000D02*
X85591000Y-43960000D01*
X85071000Y-46040000D02*
X85071000Y-48863000D01*
X84991000Y-41111000D02*
X84991000Y-43960000D01*
X86871000Y-42349000D02*
X86871000Y-47651000D01*
X84591000Y-41006000D02*
X84591000Y-43960000D01*
X83990000Y-40926000D02*
X83990000Y-49074000D01*
X87631000Y-43654000D02*
X87631000Y-46346000D01*
X87431000Y-43187000D02*
X87431000Y-46813000D01*
X84831000Y-46040000D02*
X84831000Y-48936000D01*
X85191000Y-41179000D02*
X85191000Y-43960000D01*
X83790000Y-40920000D02*
X83790000Y-49080000D01*
X84951000Y-46040000D02*
X84951000Y-48902000D01*
X85911000Y-41531000D02*
X85911000Y-43960000D01*
X86031000Y-46040000D02*
X86031000Y-48392000D01*
X87471000Y-43269000D02*
X87471000Y-46731000D01*
X85111000Y-41150000D02*
X85111000Y-43960000D01*
X85511000Y-41314000D02*
X85511000Y-43960000D01*
X87351000Y-43036000D02*
X87351000Y-46964000D01*
X85991000Y-41582000D02*
X85991000Y-43960000D01*
X85951000Y-41556000D02*
X85951000Y-43960000D01*
X85791000Y-41460000D02*
X85791000Y-43960000D01*
X84511000Y-46040000D02*
X84511000Y-49010000D01*
X84110000Y-40935000D02*
X84110000Y-49065000D01*
X86351000Y-46040000D02*
X86351000Y-48156000D01*
X84471000Y-46040000D02*
X84471000Y-49017000D01*
X84230000Y-40948000D02*
X84230000Y-49052000D01*
X84911000Y-41086000D02*
X84911000Y-43960000D01*
X86471000Y-46040000D02*
X86471000Y-48055000D01*
X87111000Y-42655000D02*
X87111000Y-47345000D01*
X85031000Y-46040000D02*
X85031000Y-48877000D01*
X87711000Y-43902000D02*
X87711000Y-46098000D01*
X86151000Y-41691000D02*
X86151000Y-43960000D01*
X86071000Y-41635000D02*
X86071000Y-43960000D01*
X86431000Y-41910000D02*
X86431000Y-43960000D01*
X85751000Y-41438000D02*
X85751000Y-43960000D01*
X85191000Y-46040000D02*
X85191000Y-48821000D01*
X86071000Y-46040000D02*
X86071000Y-48365000D01*
X86511000Y-46040000D02*
X86511000Y-48019000D01*
X85231000Y-41195000D02*
X85231000Y-43960000D01*
X87831000Y-44467000D02*
X87831000Y-45533000D01*
X87191000Y-42772000D02*
X87191000Y-47228000D01*
X86311000Y-46040000D02*
X86311000Y-48189000D01*
X84390000Y-40970000D02*
X84390000Y-49030000D01*
X87870000Y-45000000D02*
G75*
G03*
X87870000Y-45000000I-4120000J0D01*
G01*
%TO.C,R3*%
X40177064Y-51590000D02*
X38722936Y-51590000D01*
X40177064Y-53410000D02*
X38722936Y-53410000D01*
%TD*%
M02*
