M48
; DRILL file {KiCad 6.0.5} date Fri 08 Jul 2022 15:37:57 CEST
; FORMAT={-:-/ absolute / inch / decimal}
; #@! TF.CreationDate,2022-07-08T15:37:57+02:00
; #@! TF.GenerationSoftware,Kicad,Pcbnew,6.0.5
; #@! TF.FileFunction,Plated,1,2,PTH
FMAT,2
INCH
; #@! TA.AperFunction,Plated,PTH,ViaDrill
T1C0.0157
; #@! TA.AperFunction,Plated,PTH,ComponentDrill
T2C0.0299
; #@! TA.AperFunction,Plated,PTH,ComponentDrill
T3C0.0315
; #@! TA.AperFunction,Plated,PTH,ComponentDrill
T4C0.0374
; #@! TA.AperFunction,Plated,PTH,ComponentDrill
T5C0.0394
; #@! TA.AperFunction,Plated,PTH,ComponentDrill
T6C0.0512
; #@! TA.AperFunction,Plated,PTH,ComponentDrill
T7C0.0591
; #@! TA.AperFunction,Plated,PTH,ComponentDrill
T8C0.0598
%
G90
G05
T1
X1.7717Y-2.5984
X2.2638Y-2.5984
X2.5197Y-2.7165
X2.5984Y-2.874
X2.9134Y-2.6378
T2
X3.5984Y-3.0402
X3.7984Y-3.0402
X3.7984Y-3.7402
T3
X1.811Y-1.7606
X1.811Y-1.8606
X1.811Y-1.9606
X1.811Y-2.0606
X1.811Y-2.1606
X1.811Y-2.2606
X1.811Y-2.3606
X1.811Y-2.4606
X2.111Y-1.7606
X2.111Y-1.8606
X2.111Y-1.9606
X2.111Y-2.0606
X2.111Y-2.1606
X2.111Y-2.2606
X2.111Y-2.3606
X2.111Y-2.4606
X2.5984Y-3.7402
X2.7984Y-3.7402
X3.2283Y-1.7717
X3.2344Y-2.2835
X3.3661Y-1.7717
X3.3722Y-2.2835
T4
X1.3189Y-1.0827
X1.3189Y-1.1811
X1.3189Y-1.2795
X1.3189Y-1.5748
X1.3189Y-1.6732
X1.3189Y-1.7717
X1.3189Y-2.0669
X1.3189Y-2.1654
X1.3189Y-2.2638
X1.3189Y-2.3622
T5
X2.3972Y-1.0606
X2.3972Y-1.1606
X2.3972Y-1.2606
X2.3972Y-1.3606
X2.3972Y-1.4606
X2.3972Y-1.5606
X2.3972Y-1.6606
X2.3972Y-1.7606
X2.3972Y-1.8606
X2.3972Y-1.9606
X2.3972Y-2.0606
X2.3972Y-2.1606
X2.3972Y-2.2606
X2.3972Y-2.3606
X2.3972Y-2.4606
X2.9972Y-1.0606
X2.9972Y-1.1606
X2.9972Y-1.2606
X2.9972Y-1.3606
X2.9972Y-1.4606
X2.9972Y-1.5606
X2.9972Y-1.6606
X2.9972Y-1.7606
X2.9972Y-1.8606
X2.9972Y-1.9606
X2.9972Y-2.0606
X2.9972Y-2.1606
X2.9972Y-2.2606
X2.9972Y-2.3606
X2.9972Y-2.4606
X3.6614Y-2.3228
X3.6614Y-2.4228
X3.7614Y-2.3228
X3.7614Y-2.4228
X3.8614Y-2.3228
X3.8614Y-2.4228
X3.9614Y-2.3228
X3.9614Y-2.4228
T6
X1.2205Y-2.7425
X1.2205Y-2.9409
X1.2205Y-3.1394
X1.2205Y-3.7402
X1.5157Y-2.7425
X1.5157Y-2.9409
X1.5157Y-3.1394
X1.5157Y-3.7402
T7
X1.9094Y-2.815
X1.9094Y-3.4646
X1.9094Y-3.7402
X2.2047Y-2.815
X2.2047Y-3.6024
T8
X1.2205Y-4.1339
X1.4205Y-4.1339
X1.7126Y-4.1339
X1.9126Y-4.1339
X2.1126Y-4.1339
X2.3126Y-4.1339
X2.5984Y-4.1339
X2.7984Y-4.1339
X2.9984Y-4.1339
X3.2874Y-4.1339
X3.4874Y-4.1339
X3.6874Y-4.1339
X3.8874Y-4.1339
T0
M30
